<?xml version="1.0" encoding="utf-8"?>
<!-- Generator: Adobe Illustrator 15.0.0, SVG Export Plug-In . SVG Version: 6.00 Build 0)  -->
<!DOCTYPE svg PUBLIC "-//W3C//DTD SVG 1.1//EN" "http://www.w3.org/Graphics/SVG/1.1/DTD/svg11.dtd">
<svg version="1.1" id="Layer_1" xmlns="http://www.w3.org/2000/svg" xmlns:xlink="http://www.w3.org/1999/xlink" x="0px" y="0px"
	 width="298.129px" height="45.721px" viewBox="0 0 298.129 45.721" enable-background="new 0 0 298.129 45.721"
	 xml:space="preserve">
<g>
	<path fill="#0071C9" d="M33.555,2.414c1.499,0.573,2.667,1.554,3.504,2.942c0.749,1.212,1.124,3.416,1.124,6.612v1.124v22.348
		l0.033,1.025c0.021,0.926,0.166,1.62,0.43,2.083c0.22,0.396,0.76,0.892,1.62,1.487c-0.419,0.639-0.827,1.124-1.223,1.455
		c-0.463,0.353-1.103,0.739-1.918,1.157c-0.859,0.441-1.443,0.849-1.751,1.223c-0.331,0.353-0.618,0.97-0.86,1.852
		c-1.499-0.265-2.612-0.915-3.339-1.951c-0.331-0.485-0.584-1.058-0.761-1.719c-0.198-0.727-0.375-1.785-0.529-3.174l-0.033-0.462
		c-0.462,0.838-1.102,1.609-1.917,2.314l-1.455,1.256c-1.19,1.014-1.797,2.259-1.818,3.736h-0.297c-3.284,0-6.259-0.738-8.926-2.215
		c-2.689-1.499-4.783-3.537-6.281-6.116c-1.521-2.623-2.281-5.521-2.281-8.695c0-2.049,0.397-4.077,1.19-6.083
		c0.749-1.961,1.873-3.856,3.372-5.686c1.432-1.785,3.151-3.383,5.157-4.793c1.565-1.058,2.534-1.587,2.909-1.587
		c0.22,0,0.331,0.099,0.331,0.297c0,0.132-0.166,0.353-0.496,0.662c-1.675,1.344-3.031,3.152-4.067,5.421
		c-1.036,2.271-1.553,4.529-1.553,6.777c0,2.204,0.43,4.297,1.289,6.281c0.859,1.983,2.094,3.681,3.703,5.091
		c1.608,1.41,3.471,2.479,5.587,3.207V6.017c-1.344,0.838-2.524,1.422-3.537,1.752c-0.926,0.287-2.194,0.43-3.802,0.43
		c-0.815,0-1.995-0.055-3.537-0.166c-1.433-0.087-2.491-0.132-3.174-0.132c-1.917,0-3.493,0.452-4.727,1.356
		c-1.212,0.882-1.818,2.083-1.818,3.604c0,1.014,0.331,1.873,0.992,2.578c0.639,0.728,1.399,1.091,2.281,1.091
		c0.947,0,1.807-0.319,2.579-0.958c0.44-0.375,0.716-0.562,0.827-0.562c0.308,0,0.462,0.166,0.462,0.496
		c0,0.463-0.462,0.948-1.388,1.455c-0.904,0.485-1.863,0.728-2.876,0.728c-1.256,0-2.369-0.342-3.339-1.025
		c-0.992-0.661-1.774-1.576-2.347-2.744C0.297,12.75,0,11.472,0,10.083C0,8.805,0.264,7.571,0.793,6.38
		c0.529-1.168,1.256-2.182,2.182-3.042C3.879,2.501,5.003,1.83,6.347,1.322c1.256-0.484,2.623-0.727,4.1-0.727
		c2.248,0,4.98,0.948,8.199,2.843c0.903,0.529,1.631,0.893,2.182,1.091c0.573,0.198,1.212,0.297,1.917,0.297
		c0.396,0,0.915-0.088,1.554-0.265v-0.43C24.409,1.377,25.059,0,26.249,0c0.617,0,0.925,0.386,0.925,1.157
		c0,0.97-0.595,2.248-1.785,3.834v4c0.662-0.683,1.256-1.201,1.785-1.554c0.596-0.396,1.565-0.926,2.909-1.587
		c0.97-0.507,1.697-1.002,2.183-1.488C32.772,3.857,33.202,3.207,33.555,2.414z M25.389,14.646v7.604h4.562v-7.471
		c0-2.116-0.155-3.571-0.463-4.364c-0.309-0.771-0.882-1.157-1.719-1.157c-0.904,0-1.521,0.396-1.852,1.19
		C25.565,11.24,25.389,12.64,25.389,14.646z M29.952,26.117v-2.678h-4.562v2.678H29.952z M29.952,32.233v-4.926h-4.562v11.141
		c0.287,0.088,0.562,0.132,0.827,0.132c1.19,0,2.116-0.484,2.777-1.455c0.639-0.969,0.959-2.292,0.959-3.967V32.233z"/>
</g>
<g>
	<path d="M72.139,17.593c-0.463-2.007-1.003-3.28-1.698-3.975c-0.656-0.695-1.659-0.927-3.897-0.927h-1.775v18.253
		c0,3.28,0.386,3.512,3.782,3.782v1.351H55.97v-1.351c3.241-0.27,3.627-0.501,3.627-3.782V12.691h-1.312
		c-3.164,0-3.859,0.425-4.438,1.042c-0.617,0.656-1.119,1.968-1.621,3.898h-1.389c0.154-2.817,0.386-5.634,0.463-7.603h0.926
		c0.618,0.888,1.119,0.965,2.2,0.965h15.514c1.042,0,1.582-0.231,2.238-0.965h0.926c0.039,1.621,0.232,5.017,0.425,7.487
		L72.139,17.593z"/>
	<path d="M103.282,12.344c-3.01,0.27-3.242,0.501-3.242,3.782v14.857c0,3.242,0.309,3.474,3.242,3.743v1.351h-11.77v-1.351
		c3.087-0.27,3.357-0.54,3.357-3.782v-7.178H84.334v7.178c0,3.28,0.308,3.512,3.164,3.782v1.351h-11.5v-1.351
		c2.817-0.27,3.165-0.501,3.165-3.782V16.126c0-3.28-0.347-3.512-3.319-3.782v-1.351h11.577v1.351
		c-2.779,0.27-3.087,0.501-3.087,3.782v5.673h10.535v-5.673c0-3.28-0.309-3.512-3.165-3.782v-1.351h11.577V12.344z"/>
	<path d="M126.745,29.672c-0.231,1.736-1.042,5.248-1.351,6.406h-19.681v-1.351c3.28-0.27,3.667-0.501,3.667-3.782V16.126
		c0-3.357-0.386-3.55-3.126-3.782v-1.351h18.176c0.039,0.694,0.232,3.396,0.386,5.789l-1.389,0.193
		c-0.386-1.351-0.888-2.624-1.583-3.319c-0.656-0.695-1.698-0.965-3.859-0.965h-1.852c-1.428,0-1.582,0.077-1.582,1.351v8.182h2.585
		c3.241,0,3.743-0.193,4.284-2.895h1.389v7.795h-1.389c-0.541-2.778-1.003-2.933-4.284-2.933h-2.585v6.676
		c0,1.813,0.154,2.778,0.926,3.165c0.694,0.309,2.006,0.386,3.473,0.386c1.968,0,3.357-0.27,4.283-1.235
		c0.733-0.849,1.428-2.084,2.161-3.782L126.745,29.672z"/>
	<path d="M163.445,12.344c-2.123,0.116-3.087,0.926-3.28,2.277c-0.193,1.196-0.348,2.624-0.348,5.364v4.207
		c0,4.091-0.617,7.333-2.778,9.647c-1.775,1.853-4.399,2.817-7.139,2.817c-2.547,0-4.978-0.54-6.831-2.007
		c-2.2-1.698-3.203-4.554-3.203-9.068v-9.069c0-3.627-0.386-3.898-3.241-4.168v-1.351h11.616v1.351
		c-2.817,0.27-3.203,0.541-3.203,4.168v8.374c0,5.789,2.084,9.146,6.251,9.146c4.592,0,6.599-3.473,6.599-9.918v-4.129
		c0-2.74-0.193-4.206-0.386-5.364c-0.193-1.351-1.119-2.123-3.744-2.277v-1.351h9.687V12.344z"/>
	<path d="M179.113,22.609c4.477,0.54,7.448,2.354,7.448,6.02c0,2.585-1.428,4.592-3.627,5.789c-1.969,1.119-4.94,1.66-8.143,1.66
		h-9.802v-1.351c2.972-0.27,3.319-0.54,3.319-3.82V16.165c0-3.28-0.347-3.55-3.087-3.82v-1.351h11.269
		c2.972,0,4.9,0.386,6.367,1.351c1.428,0.926,2.277,2.47,2.277,4.399c0,3.666-3.242,5.171-6.02,5.711V22.609z M174.29,22.069
		c3.705,0,5.364-1.466,5.364-4.669c0-3.473-2.083-4.785-4.168-4.785c-0.849,0-1.505,0.231-1.736,0.463
		c-0.27,0.27-0.347,0.849-0.347,1.659v7.332H174.29z M173.402,30.829c0,2.856,0.772,3.666,2.817,3.628
		c2.161-0.039,4.593-1.622,4.593-5.403c0-3.589-2.239-5.441-6.638-5.441h-0.772V30.829z"/>
	<path d="M213.151,12.344c-2.47,0.27-3.242,0.964-4.631,3.242c-1.427,2.277-2.431,3.937-4.322,7.563
		c-0.54,1.042-0.695,1.467-0.695,2.663v4.939c0,3.473,0.31,3.705,3.744,4.013v1.312h-12.542v-1.312
		c3.28-0.27,3.627-0.54,3.627-4.013v-4.284c0-0.965-0.155-1.351-0.501-2.084c-1.042-2.122-2.47-4.708-4.785-8.76
		c-1.428-2.547-2.084-2.972-4.207-3.28v-1.351h11.038v1.351c-2.547,0.347-2.509,0.849-1.814,2.238
		c1.35,2.663,2.894,5.519,4.399,8.374c1.119-2.2,3.087-5.827,4.013-8.181c0.618-1.543,0.579-2.045-2.276-2.431v-1.351h8.953V12.344z
		"/>
	<path d="M228.047,17.284c-0.811-2.431-2.238-5.287-5.403-5.287c-2.161,0-3.743,1.621-3.743,3.82c0,2.123,1.39,3.357,4.786,5.056
		c4.052,1.968,6.831,4.129,6.831,7.949c0,4.399-3.744,7.834-9.377,7.834c-1.39,0-2.74-0.193-3.898-0.54
		c-1.081-0.309-1.814-0.618-2.354-0.849c-0.348-0.965-0.849-4.207-1.119-6.561l1.351-0.424c0.772,2.47,3.049,6.792,6.753,6.792
		c2.354,0,3.859-1.621,3.859-4.052c0-2.277-1.698-3.705-4.592-5.248c-3.975-2.007-6.715-4.091-6.715-7.795
		c0-4.245,3.357-7.564,8.837-7.564c2.47,0,4.669,0.772,5.364,1.042c0.154,1.428,0.424,3.126,0.733,5.519L228.047,17.284z"/>
	<path d="M247.536,17.284c-0.81-2.431-2.238-5.287-5.402-5.287c-2.161,0-3.744,1.621-3.744,3.82c0,2.123,1.39,3.357,4.785,5.056
		c4.052,1.968,6.831,4.129,6.831,7.949c0,4.399-3.743,7.834-9.377,7.834c-1.39,0-2.74-0.193-3.898-0.54
		c-1.081-0.309-1.813-0.618-2.354-0.849c-0.347-0.965-0.85-4.207-1.119-6.561l1.35-0.424c0.772,2.47,3.049,6.792,6.753,6.792
		c2.354,0,3.859-1.621,3.859-4.052c0-2.277-1.698-3.705-4.592-5.248c-3.976-2.007-6.715-4.091-6.715-7.795
		c0-4.245,3.357-7.564,8.837-7.564c2.469,0,4.67,0.772,5.364,1.042c0.154,1.428,0.424,3.126,0.733,5.519L247.536,17.284z"/>
	<path d="M272.813,29.672c-0.232,1.736-1.042,5.248-1.351,6.406h-19.681v-1.351c3.28-0.27,3.666-0.501,3.666-3.782V16.126
		c0-3.357-0.386-3.55-3.125-3.782v-1.351h18.176c0.038,0.694,0.231,3.396,0.386,5.789l-1.389,0.193
		c-0.386-1.351-0.888-2.624-1.583-3.319c-0.656-0.695-1.698-0.965-3.859-0.965h-1.852c-1.428,0-1.582,0.077-1.582,1.351v8.182h2.585
		c3.241,0,3.744-0.193,4.283-2.895h1.389v7.795h-1.389c-0.54-2.778-1.003-2.933-4.283-2.933h-2.585v6.676
		c0,1.813,0.154,2.778,0.926,3.165c0.695,0.309,2.007,0.386,3.474,0.386c1.968,0,3.357-0.27,4.283-1.235
		c0.733-0.849,1.428-2.084,2.161-3.782L272.813,29.672z"/>
	<path d="M298.129,12.344c-2.47,0.27-3.241,0.964-4.631,3.242c-1.428,2.277-2.431,3.937-4.322,7.563
		c-0.54,1.042-0.695,1.467-0.695,2.663v4.939c0,3.473,0.309,3.705,3.744,4.013v1.312h-12.542v-1.312
		c3.281-0.27,3.628-0.54,3.628-4.013v-4.284c0-0.965-0.154-1.351-0.502-2.084c-1.042-2.122-2.47-4.708-4.785-8.76
		c-1.428-2.547-2.084-2.972-4.207-3.28v-1.351h11.037v1.351c-2.547,0.347-2.509,0.849-1.814,2.238
		c1.351,2.663,2.895,5.519,4.399,8.374c1.119-2.2,3.087-5.827,4.014-8.181c0.618-1.543,0.579-2.045-2.277-2.431v-1.351h8.953V12.344
		z"/>
</g>
</svg>
