<?xml version="1.0" encoding="utf-8"?>
<!-- Generator: Adobe Illustrator 15.0.0, SVG Export Plug-In . SVG Version: 6.00 Build 0)  -->
<!DOCTYPE svg PUBLIC "-//W3C//DTD SVG 1.1//EN" "http://www.w3.org/Graphics/SVG/1.1/DTD/svg11.dtd">
<svg version="1.1" id="Layer_1" xmlns="http://www.w3.org/2000/svg" xmlns:xlink="http://www.w3.org/1999/xlink" x="0px" y="0px"
	 width="298.129px" height="45.721px" viewBox="0 0 298.129 45.721" enable-background="new 0 0 298.129 45.721"
	 xml:space="preserve">
<g>
	<path fill="#0071C9" d="M33.555,2.414c1.499,0.573,2.667,1.554,3.504,2.942c0.749,1.212,1.124,3.416,1.124,6.612v1.124v22.348
		l0.033,1.025c0.021,0.926,0.166,1.62,0.43,2.083c0.22,0.396,0.76,0.892,1.62,1.487c-0.419,0.639-0.827,1.124-1.223,1.455
		c-0.463,0.353-1.103,0.739-1.918,1.157c-0.859,0.441-1.443,0.849-1.751,1.223c-0.331,0.353-0.618,0.97-0.86,1.852
		c-1.499-0.265-2.612-0.915-3.339-1.951c-0.331-0.485-0.584-1.058-0.761-1.719c-0.198-0.727-0.375-1.785-0.529-3.174l-0.033-0.462
		c-0.462,0.838-1.102,1.609-1.917,2.314l-1.455,1.256c-1.19,1.014-1.797,2.259-1.818,3.736h-0.297c-3.284,0-6.259-0.738-8.926-2.215
		c-2.689-1.499-4.783-3.537-6.281-6.116c-1.521-2.623-2.281-5.521-2.281-8.695c0-2.049,0.397-4.077,1.19-6.083
		c0.749-1.961,1.873-3.856,3.372-5.686c1.432-1.785,3.151-3.383,5.157-4.793c1.565-1.058,2.534-1.587,2.909-1.587
		c0.22,0,0.331,0.099,0.331,0.297c0,0.132-0.166,0.353-0.496,0.662c-1.675,1.344-3.031,3.152-4.067,5.421
		c-1.036,2.271-1.553,4.529-1.553,6.777c0,2.204,0.43,4.297,1.289,6.281c0.859,1.983,2.094,3.681,3.703,5.091
		c1.608,1.41,3.471,2.479,5.587,3.207V6.017c-1.344,0.838-2.524,1.422-3.537,1.752c-0.926,0.287-2.194,0.43-3.802,0.43
		c-0.815,0-1.995-0.055-3.537-0.166c-1.433-0.087-2.491-0.132-3.174-0.132c-1.917,0-3.493,0.452-4.727,1.356
		c-1.212,0.882-1.818,2.083-1.818,3.604c0,1.014,0.331,1.873,0.992,2.578c0.639,0.728,1.399,1.091,2.281,1.091
		c0.947,0,1.807-0.319,2.579-0.958c0.44-0.375,0.716-0.562,0.827-0.562c0.308,0,0.462,0.166,0.462,0.496
		c0,0.463-0.462,0.948-1.388,1.455c-0.904,0.485-1.863,0.728-2.876,0.728c-1.256,0-2.369-0.342-3.339-1.025
		c-0.992-0.661-1.774-1.576-2.347-2.744C0.297,12.75,0,11.472,0,10.083C0,8.805,0.264,7.571,0.793,6.38
		c0.529-1.168,1.256-2.182,2.182-3.042C3.879,2.501,5.003,1.83,6.347,1.322c1.256-0.484,2.623-0.727,4.1-0.727
		c2.248,0,4.98,0.948,8.199,2.843c0.903,0.529,1.631,0.893,2.182,1.091c0.573,0.198,1.212,0.297,1.917,0.297
		c0.396,0,0.915-0.088,1.554-0.265v-0.43C24.409,1.377,25.059,0,26.249,0c0.617,0,0.925,0.386,0.925,1.157
		c0,0.97-0.595,2.248-1.785,3.834v4c0.662-0.683,1.256-1.201,1.785-1.554c0.596-0.396,1.565-0.926,2.909-1.587
		c0.97-0.507,1.697-1.002,2.183-1.488C32.772,3.857,33.202,3.207,33.555,2.414z M25.389,14.646v7.604h4.562v-7.471
		c0-2.116-0.155-3.571-0.463-4.364c-0.309-0.771-0.882-1.157-1.719-1.157c-0.904,0-1.521,0.396-1.852,1.19
		C25.565,11.24,25.389,12.64,25.389,14.646z M29.952,26.117v-2.678h-4.562v2.678H29.952z M29.952,32.233v-4.926h-4.562v11.141
		c0.287,0.088,0.562,0.132,0.827,0.132c1.19,0,2.116-0.484,2.777-1.455c0.639-0.969,0.959-2.292,0.959-3.967V32.233z"/>
</g>
<g>
	<path d="M69.723,17.54c-0.411-1.728-0.89-2.824-1.505-3.422c-0.583-0.599-1.472-0.797-3.456-0.797h-1.574v15.712
		c0,2.823,0.342,3.023,3.353,3.255v1.163H55.387v-1.163c2.874-0.232,3.216-0.432,3.216-3.255V13.321h-1.164
		c-2.805,0-3.421,0.366-3.934,0.897c-0.547,0.564-0.992,1.694-1.437,3.355h-1.231c0.137-2.426,0.342-4.85,0.411-6.544h0.821
		c0.548,0.764,0.992,0.83,1.95,0.83h13.754c0.923,0,1.402-0.199,1.984-0.83h0.821c0.034,1.395,0.206,4.318,0.376,6.444L69.723,17.54
		z"/>
	<path d="M97.332,13.022c-2.668,0.232-2.874,0.431-2.874,3.255v12.789c0,2.791,0.274,2.99,2.874,3.222v1.163H86.897v-1.163
		c2.736-0.232,2.977-0.464,2.977-3.255v-6.179h-9.34v6.179c0,2.823,0.273,3.023,2.805,3.255v1.163H73.144v-1.163
		c2.498-0.232,2.805-0.432,2.805-3.255V16.277c0-2.824-0.308-3.023-2.942-3.255v-1.163h10.264v1.163
		c-2.463,0.232-2.736,0.431-2.736,3.255v4.883h9.34v-4.883c0-2.824-0.274-3.023-2.806-3.255v-1.163h10.264V13.022z"/>
	<path d="M118.134,27.938c-0.206,1.494-0.924,4.517-1.198,5.514H99.488v-1.163c2.908-0.232,3.251-0.432,3.251-3.255V16.277
		c0-2.89-0.343-3.056-2.771-3.255v-1.163h16.114c0.034,0.599,0.206,2.923,0.343,4.983l-1.232,0.166
		c-0.342-1.162-0.787-2.259-1.402-2.856c-0.583-0.599-1.505-0.831-3.422-0.831h-1.642c-1.266,0-1.402,0.067-1.402,1.162v7.043h2.292
		c2.874,0,3.319-0.167,3.798-2.491h1.231v6.709h-1.231c-0.479-2.39-0.89-2.524-3.798-2.524h-2.292v5.746
		c0,1.562,0.137,2.392,0.821,2.725c0.615,0.266,1.778,0.332,3.079,0.332c1.745,0,2.977-0.232,3.798-1.063
		c0.65-0.73,1.266-1.793,1.916-3.255L118.134,27.938z"/>
	<path d="M150.67,13.022c-1.882,0.099-2.737,0.797-2.908,1.96c-0.171,1.029-0.308,2.258-0.308,4.617v3.621
		c0,3.521-0.547,6.312-2.463,8.305c-1.574,1.594-3.9,2.425-6.329,2.425c-2.258,0-4.414-0.465-6.056-1.728
		c-1.95-1.461-2.839-3.92-2.839-7.806V16.61c0-3.123-0.342-3.355-2.874-3.588v-1.163h10.298v1.163
		c-2.498,0.232-2.84,0.465-2.84,3.588v7.208c0,4.983,1.848,7.873,5.542,7.873c4.071,0,5.85-2.99,5.85-8.537v-3.555
		c0-2.358-0.171-3.621-0.342-4.617c-0.171-1.163-0.992-1.828-3.318-1.96v-1.163h8.587V13.022z"/>
	<path d="M164.561,21.858c3.969,0.465,6.603,2.026,6.603,5.182c0,2.226-1.265,3.953-3.215,4.983c-1.746,0.963-4.38,1.429-7.22,1.429
		h-8.689v-1.163c2.634-0.232,2.942-0.464,2.942-3.288V16.311c0-2.824-0.308-3.056-2.737-3.289v-1.163h9.99
		c2.635,0,4.345,0.332,5.645,1.163c1.266,0.797,2.019,2.125,2.019,3.787c0,3.156-2.875,4.451-5.337,4.917V21.858z M160.285,21.393
		c3.284,0,4.755-1.262,4.755-4.019c0-2.99-1.847-4.119-3.695-4.119c-0.752,0-1.334,0.199-1.54,0.398
		c-0.239,0.232-0.308,0.731-0.308,1.429v6.311H160.285z M159.498,28.933c0,2.458,0.684,3.156,2.498,3.123
		c1.916-0.034,4.071-1.396,4.071-4.651c0-3.089-1.984-4.684-5.885-4.684h-0.684V28.933z"/>
	<path d="M194.737,13.022c-2.189,0.232-2.874,0.83-4.106,2.79c-1.266,1.96-2.156,3.389-3.832,6.511
		c-0.479,0.897-0.616,1.263-0.616,2.292v4.251c0,2.99,0.274,3.189,3.319,3.455v1.13h-11.119v-1.13
		c2.909-0.232,3.216-0.465,3.216-3.455v-3.688c0-0.83-0.137-1.162-0.444-1.793c-0.924-1.828-2.19-4.053-4.242-7.541
		c-1.267-2.193-1.849-2.558-3.73-2.824v-1.163h9.785v1.163c-2.258,0.299-2.224,0.731-1.608,1.927c1.197,2.292,2.566,4.75,3.9,7.208
		c0.992-1.894,2.736-5.016,3.557-7.042c0.548-1.328,0.514-1.76-2.018-2.092v-1.163h7.938V13.022z"/>
	<path d="M207.943,17.274c-0.718-2.093-1.984-4.551-4.79-4.551c-1.915,0-3.318,1.395-3.318,3.288c0,1.827,1.232,2.891,4.243,4.352
		c3.592,1.694,6.056,3.554,6.056,6.842c0,3.787-3.319,6.744-8.313,6.744c-1.233,0-2.43-0.167-3.457-0.465
		c-0.958-0.265-1.608-0.531-2.087-0.73c-0.308-0.831-0.753-3.622-0.992-5.648l1.198-0.365c0.684,2.125,2.703,5.846,5.987,5.846
		c2.087,0,3.422-1.396,3.422-3.488c0-1.959-1.505-3.188-4.071-4.517c-3.525-1.728-5.954-3.521-5.954-6.71
		c0-3.654,2.976-6.511,7.834-6.511c2.19,0,4.14,0.664,4.756,0.897c0.136,1.229,0.376,2.691,0.649,4.75L207.943,17.274z"/>
	<path d="M225.221,17.274c-0.718-2.093-1.984-4.551-4.789-4.551c-1.916,0-3.319,1.395-3.319,3.288c0,1.827,1.232,2.891,4.242,4.352
		c3.592,1.694,6.056,3.554,6.056,6.842c0,3.787-3.318,6.744-8.313,6.744c-1.232,0-2.43-0.167-3.456-0.465
		c-0.958-0.265-1.607-0.531-2.087-0.73c-0.308-0.831-0.753-3.622-0.992-5.648l1.197-0.365c0.685,2.125,2.704,5.846,5.988,5.846
		c2.087,0,3.421-1.396,3.421-3.488c0-1.959-1.506-3.188-4.071-4.517c-3.524-1.728-5.953-3.521-5.953-6.71
		c0-3.654,2.977-6.511,7.834-6.511c2.19,0,4.141,0.664,4.755,0.897c0.137,1.229,0.376,2.691,0.65,4.75L225.221,17.274z"/>
	<path d="M247.631,27.938c-0.206,1.494-0.923,4.517-1.197,5.514h-17.448v-1.163c2.907-0.232,3.25-0.432,3.25-3.255V16.277
		c0-2.89-0.343-3.056-2.771-3.255v-1.163h16.114c0.034,0.599,0.206,2.923,0.342,4.983l-1.231,0.166
		c-0.343-1.162-0.788-2.259-1.403-2.856c-0.582-0.599-1.505-0.831-3.422-0.831h-1.642c-1.267,0-1.403,0.067-1.403,1.162v7.043h2.292
		c2.873,0,3.319-0.167,3.797-2.491h1.231v6.709h-1.231c-0.479-2.39-0.89-2.524-3.797-2.524h-2.292v5.746
		c0,1.562,0.136,2.392,0.821,2.725c0.616,0.266,1.779,0.332,3.079,0.332c1.745,0,2.977-0.232,3.797-1.063
		c0.65-0.73,1.267-1.793,1.917-3.255L247.631,27.938z"/>
	<path d="M270.075,13.022c-2.189,0.232-2.874,0.83-4.105,2.79c-1.266,1.96-2.156,3.389-3.833,6.511
		c-0.479,0.897-0.616,1.263-0.616,2.292v4.251c0,2.99,0.273,3.189,3.319,3.455v1.13h-11.119v-1.13
		c2.909-0.232,3.216-0.465,3.216-3.455v-3.688c0-0.83-0.137-1.162-0.445-1.793c-0.923-1.828-2.189-4.053-4.242-7.541
		c-1.267-2.193-1.848-2.558-3.73-2.824v-1.163h9.785v1.163c-2.258,0.299-2.224,0.731-1.608,1.927c1.197,2.292,2.566,4.75,3.9,7.208
		c0.992-1.894,2.737-5.016,3.558-7.042c0.548-1.328,0.514-1.76-2.019-2.092v-1.163h7.938V13.022z"/>
</g>
</svg>
