<?xml version="1.0" encoding="utf-8"?>
<!-- Generator: Adobe Illustrator 15.0.0, SVG Export Plug-In . SVG Version: 6.00 Build 0)  -->
<!DOCTYPE svg PUBLIC "-//W3C//DTD SVG 1.1//EN" "http://www.w3.org/Graphics/SVG/1.1/DTD/svg11.dtd">
<svg version="1.1" id="Layer_1" xmlns="http://www.w3.org/2000/svg" xmlns:xlink="http://www.w3.org/1999/xlink" x="0px" y="0px"
	 width="40.266px" height="45.722px" viewBox="0 0 40.266 45.722" enable-background="new 0 0 40.266 45.722" xml:space="preserve">
<g>
	<path fill="#646464" d="M33.555,2.414c1.499,0.571,2.667,1.554,3.504,2.94c0.749,1.212,1.124,3.416,1.124,6.612v1.124V35.44
		l0.033,1.025c0.021,0.926,0.166,1.62,0.43,2.083c0.22,0.396,0.76,0.892,1.62,1.487c-0.419,0.639-0.827,1.124-1.223,1.455
		c-0.463,0.353-1.103,0.737-1.918,1.155c-0.859,0.441-1.443,0.851-1.751,1.225c-0.331,0.353-0.618,0.97-0.86,1.852
		c-1.499-0.265-2.612-0.915-3.339-1.951c-0.331-0.483-0.584-1.058-0.761-1.719c-0.198-0.727-0.375-1.785-0.529-3.174l-0.033-0.462
		c-0.462,0.838-1.102,1.607-1.917,2.312l-1.455,1.256c-1.19,1.016-1.797,2.261-1.818,3.736h-0.297c-3.284,0-6.259-0.738-8.926-2.215
		c-2.689-1.499-4.783-3.537-6.281-6.116c-1.521-2.623-2.281-5.521-2.281-8.695c0-2.049,0.397-4.075,1.19-6.083
		c0.749-1.961,1.873-3.854,3.372-5.686c1.432-1.785,3.151-3.383,5.157-4.793c1.565-1.058,2.534-1.587,2.909-1.587
		c0.22,0,0.331,0.099,0.331,0.297c0,0.132-0.166,0.354-0.496,0.662c-1.675,1.344-3.031,3.152-4.067,5.421
		c-1.036,2.271-1.553,4.529-1.553,6.777c0,2.204,0.43,4.297,1.289,6.279c0.859,1.983,2.094,3.683,3.703,5.093
		c1.608,1.408,3.471,2.479,5.587,3.207V6.017c-1.344,0.838-2.524,1.422-3.537,1.752C19.836,8.056,18.568,8.2,16.96,8.2
		c-0.815,0-1.995-0.057-3.537-0.166c-1.433-0.089-2.491-0.134-3.174-0.134c-1.917,0-3.493,0.452-4.727,1.356
		c-1.212,0.882-1.818,2.083-1.818,3.604c0,1.016,0.331,1.873,0.992,2.578c0.639,0.729,1.399,1.093,2.281,1.093
		c0.947,0,1.807-0.319,2.579-0.958c0.44-0.375,0.716-0.562,0.827-0.562c0.308,0,0.462,0.166,0.462,0.496
		c0,0.463-0.462,0.948-1.388,1.455c-0.904,0.483-1.863,0.728-2.876,0.728c-1.256,0-2.369-0.342-3.339-1.023
		c-0.992-0.661-1.774-1.576-2.347-2.744C0.297,12.75,0,11.472,0,10.083C0,8.805,0.264,7.571,0.793,6.38
		c0.529-1.168,1.256-2.182,2.182-3.042C3.879,2.501,5.003,1.83,6.347,1.323c1.256-0.484,2.623-0.729,4.1-0.729
		c2.248,0,4.98,0.948,8.199,2.843c0.903,0.529,1.631,0.895,2.182,1.091c0.573,0.198,1.212,0.299,1.917,0.299
		c0.396,0,0.915-0.09,1.554-0.267v-0.43C24.409,1.377,25.059,0,26.249,0c0.617,0,0.925,0.386,0.925,1.157
		c0,0.97-0.595,2.248-1.785,3.834v4c0.662-0.685,1.256-1.201,1.785-1.556c0.596-0.396,1.565-0.926,2.909-1.587
		c0.97-0.507,1.697-1.002,2.183-1.488C32.772,3.857,33.202,3.207,33.555,2.414z M25.389,14.646v7.604h4.562v-7.473
		c0-2.114-0.155-3.569-0.463-4.362c-0.309-0.771-0.882-1.157-1.719-1.157c-0.904,0-1.521,0.396-1.852,1.19
		C25.565,11.24,25.389,12.64,25.389,14.646z M29.952,26.117v-2.68H25.39v2.68H29.952z M29.952,32.233v-4.926H25.39v11.143
		c0.287,0.088,0.562,0.132,0.827,0.132c1.19,0,2.116-0.484,2.777-1.455c0.639-0.969,0.959-2.292,0.959-3.967L29.952,32.233
		L29.952,32.233z"/>
</g>
</svg>
