<?xml version="1.0" encoding="UTF-8" standalone="no"?>
<!DOCTYPE svg  PUBLIC '-//W3C//DTD SVG 1.1//EN'  'http://www.w3.org/Graphics/SVG/1.1/DTD/svg11.dtd'>
<svg xmlns="http://www.w3.org/2000/svg">
<defs>
<font id="LFTEtica-Regular" horiz-adv-x="500">
<font-face underline-position="-50" font-weight="400" descent="-200" panose-1="2 0 5 3 4 0 0 2 0 4" units-per-em="1000" unicode-range="U+0020-25CA" bbox="-195 -226 1093 915" x-height="525" underline-thickness="50" font-family="LFTEtica" ascent="800" cap-height="720"/>
<missing-glyph horiz-adv-x="1000"/>
<glyph glyph-name=".notdef" horiz-adv-x="1000"/>
<glyph glyph-name=".notdef" horiz-adv-x="1000"/>
<glyph glyph-name=".null" horiz-adv-x="0"/>
<glyph glyph-name="nonmarkingreturn" horiz-adv-x="333"/>
<glyph glyph-name="space" horiz-adv-x="205" unicode=" "/>
<glyph glyph-name="exclam" horiz-adv-x="313" unicode="!" d="M92 46q0 29 18 45.5t48 16.5q28 0 46 -16t18 -44q0 -27 -18 -43.5t-46 -16.5q-30 0 -48 16t-18 42zM121 202l-10 278v240h92v-240l-9 -278h-73z"/>
<glyph glyph-name="quotedbl" horiz-adv-x="373" unicode='&quot;' d="M152 720v-279h-83v279h83zM304 720v-279h-84v279h84z"/>
<glyph glyph-name="numbersign" horiz-adv-x="696" unicode="#" d="M649 386h-141l-47 -136h133v-60h-152l-66 -178l-57 13l60 165h-154l-65 -178l-56 13l58 165h-111v60h132l47 136h-124v61h145l68 194l58 -14l-63 -180h153l69 192l57 -12l-63 -180h119v-61zM291 386l-44 -136h151l48 136h-155z"/>
<glyph glyph-name="dollar" horiz-adv-x="523" unicode="$" d="M225 -87v87q-118 9 -205 100l47 52q89 -82 182 -82q61 0 99.5 28.5t38.5 80.5q0 47 -32 76.5t-121 56.5q-102 31 -146 74.5t-44 119.5q0 75 50 121t131 54v84h75v-85q106 -16 169 -91l-46 -48q-77 72 -162 72q-59 0 -95 -25.5t-36 -73.5q0 -51 35.5 -78.5t123.5 -54.5 q99 -31 142.5 -76.5t43.5 -118.5q0 -74 -48 -123.5t-127 -61.5v-88h-75z"/>
<glyph glyph-name="percent" horiz-adv-x="873" unicode="%" d="M181 0l438 720h78l-439 -720h-77zM41 552q0 70 46.5 116.5t119.5 46.5q72 0 119 -45.5t47 -116.5q0 -68 -48 -115t-118 -47q-74 0 -120 44.5t-46 116.5zM111 553q0 -44 27 -71.5t69 -27.5t68 28t26 71q0 44 -26 72t-68 28t-69 -28.5t-27 -71.5zM500 155q0 70 47 117 t119 47t119 -46.5t47 -115.5t-47.5 -115.5t-118.5 -46.5q-73 0 -119.5 45t-46.5 115zM570 157q0 -43 27 -71t69 -28t68 28t26 71q0 42 -26.5 71t-67.5 29q-42 0 -69 -28.5t-27 -71.5z"/>
<glyph glyph-name="ampersand" horiz-adv-x="723" unicode="&amp;" d="M604 -9l-84 96q-49 -54 -101 -79t-120 -25q-99 0 -161 59t-62 153q0 143 166 222q-76 83 -76 155q0 66 46.5 109.5t121.5 43.5q72 0 118 -40t46 -107q0 -108 -133 -175l85 -101l120 101l50 -57l-123 -104l169 -195zM310 59q87 0 163 87l-183 220q-128 -54 -128 -166 q0 -60 40.5 -100.5t107.5 -40.5zM247 575q0 -52 69 -124q105 48 105 126q0 34 -24.5 56.5t-63.5 22.5q-38 0 -62 -23t-24 -58z"/>
<glyph glyph-name="quotesingle" horiz-adv-x="221" unicode="&apos;" d="M152 720v-279h-83v279h83z"/>
<glyph glyph-name="parenleft" horiz-adv-x="353" unicode="(" d="M231 734l61 -33q-73 -98 -107 -193.5t-34 -209.5q0 -113 33 -202t110 -188l-52 -37q-84 79 -130.5 189t-46.5 237q0 244 166 437z"/>
<glyph glyph-name="parenright" horiz-adv-x="353" unicode=")" d="M61 701l61 33q166 -193 166 -437q0 -127 -46.5 -237t-130.5 -189l-52 37q77 99 110 188t33 202q0 114 -34 209.5t-107 193.5z"/>
<glyph glyph-name="asterisk" horiz-adv-x="441" unicode="*" d="M305 421l-86 94l-87 -94l-41 26l69 103l-100 41l16 44l109 -27l11 112h47l11 -111l112 27l15 -45l-105 -41l67 -102z"/>
<glyph glyph-name="plus" horiz-adv-x="600" unicode="+" d="M333 558v-229h228v-65h-228v-229h-68v229h-227v65h227v229h68z"/>
<glyph glyph-name="comma" horiz-adv-x="232" unicode="," d="M50 42q0 26 17.5 41.5t45.5 15.5q34 0 51.5 -22.5t17.5 -58.5q0 -52 -31 -93t-88 -60l-17 39q65 29 71 84q-4 -1 -12 -1q-25 0 -40 15.5t-15 39.5z"/>
<glyph glyph-name="hyphen" horiz-adv-x="333" unicode="-" d="M33 229v87h267v-87h-267z"/>
<glyph glyph-name="period" horiz-adv-x="240" unicode="." d="M55 46q0 29 18 45.5t48 16.5q28 0 46 -16t18 -44q0 -27 -18 -43.5t-46 -16.5q-30 0 -48 16t-18 42z"/>
<glyph glyph-name="slash" horiz-adv-x="374" unicode="/" d="M22 -92l243 831h77l-246 -831h-74z"/>
<glyph glyph-name="zero" horiz-adv-x="604" unicode="0" d="M61 353q0 367 242 367q119 0 179.5 -87t60.5 -276q0 -369 -243 -369q-239 0 -239 365zM149 353q0 -288 153 -288q152 0 152 290q0 150 -37 217t-115 67q-77 0 -115 -68t-38 -218z"/>
<glyph glyph-name="one" horiz-adv-x="468" unicode="1" d="M219 74v512q-77 -49 -167 -63l-12 65q53 14 109 47t93 74h64v-635h137v-74h-379v74h155z"/>
<glyph glyph-name="two" horiz-adv-x="512" unicode="2" d="M37 0v60l261 324q35 44 50 76t15 68q0 50 -33.5 80.5t-90.5 30.5q-77 0 -166 -78l-48 59q102 100 228 100q83 0 140.5 -48t57.5 -132q0 -55 -17 -96.5t-60 -94.5l-221 -271h304v-78h-420z"/>
<glyph glyph-name="three" horiz-adv-x="524" unicode="3" d="M18 84l44 55q85 -75 180 -75q63 0 103.5 33t40.5 93q0 137 -156 138q-35 0 -53 -3l-3 74q71 2 123 41.5t52 98.5q0 50 -33 76.5t-83 26.5q-75 0 -152 -50l-36 59q90 69 200 69q84 0 136.5 -45.5t52.5 -124.5q0 -59 -36 -106.5t-95 -69.5q84 -7 125.5 -56t41.5 -127 q0 -95 -64 -149t-160 -54q-138 0 -228 96z"/>
<glyph glyph-name="four" horiz-adv-x="551" unicode="4" d="M358 0v164h-326v71l295 474h118v-468h81v-77h-81v-164h-87zM124 241h234v380z"/>
<glyph glyph-name="five" horiz-adv-x="535" unicode="5" d="M62 260l34 449h346l-5 -83h-267l-18 -232q54 52 140 52q93 0 142.5 -56.5t49.5 -157.5q0 -115 -66 -179.5t-173 -64.5q-117 0 -206 68l34 62q80 -52 168 -52q71 0 112 41.5t41 120.5q0 68 -32 105.5t-98 37.5q-38 0 -69 -15.5t-49 -35.5l-5 -60h-79z"/>
<glyph glyph-name="six" horiz-adv-x="547" unicode="6" d="M285 60q56 0 92.5 40.5t36.5 116.5q0 75 -34.5 111.5t-90.5 36.5q-77 0 -152 -75q1 -117 40 -173.5t108 -56.5zM53 302q0 205 68.5 311.5t192.5 106.5q95 0 163 -58l-37 -59q-59 42 -122 42q-167 0 -182 -279q79 76 173 76q90 0 139.5 -60.5t49.5 -157.5q0 -116 -58 -176 t-159 -60q-114 0 -171 81t-57 233z"/>
<glyph glyph-name="seven" horiz-adv-x="453" unicode="7" d="M438 649l-261 -649h-92v11l252 615h-320v83h421v-60z"/>
<glyph glyph-name="eight" horiz-adv-x="537" unicode="8" d="M37 177q0 70 44 123t109 80q-57 22 -89 65t-32 102q0 78 55.5 125.5t145.5 47.5q87 0 141.5 -43.5t54.5 -117.5q0 -55 -34.5 -101t-87.5 -73q75 -34 112 -80t37 -112q0 -95 -62.5 -150t-167.5 -55t-165.5 50.5t-60.5 138.5zM156 553q0 -90 120 -134q42 20 75 56t33 78 q0 47 -31 72t-84 25q-51 0 -82 -26.5t-31 -70.5zM126 181q0 -54 36.5 -86t101.5 -32q63 0 101.5 35t38.5 90q0 107 -148 156q-130 -57 -130 -163z"/>
<glyph glyph-name="nine" horiz-adv-x="539" unicode="9" d="M253 643q-56 0 -93.5 -39.5t-37.5 -112.5q0 -76 33.5 -114t88.5 -38q80 0 154 81q-1 106 -40 164.5t-105 58.5zM482 413q0 -210 -65.5 -317.5t-182.5 -107.5q-98 0 -171 54l34 60q63 -43 129 -43q45 0 77.5 23t51 66t28.5 88t16 106q-81 -77 -172 -77t-140.5 62 t-49.5 158q0 109 59.5 172t157.5 63q112 0 170 -81.5t58 -225.5z"/>
<glyph glyph-name="colon" horiz-adv-x="240" unicode=":" d="M55 46q0 29 18 45.5t48 16.5q28 0 46 -16t18 -44q0 -27 -18 -43.5t-46 -16.5q-30 0 -48 16t-18 42zM55 442q0 29 18 45.5t48 16.5q28 0 46 -16t18 -44q0 -27 -18 -43.5t-46 -16.5q-30 0 -48 16t-18 42z"/>
<glyph glyph-name="semicolon" horiz-adv-x="232" unicode=";" d="M53 442q0 29 18 45.5t48 16.5q28 0 46 -16t18 -44q0 -27 -18 -43.5t-46 -16.5q-30 0 -48 16t-18 42zM50 42q0 26 17.5 41.5t45.5 15.5q34 0 51.5 -22.5t17.5 -58.5q0 -52 -31 -93t-88 -60l-17 39q65 29 71 84q-4 -1 -12 -1q-25 0 -40 15.5t-15 39.5z"/>
<glyph glyph-name="less" horiz-adv-x="600" unicode="&lt;" d="M560 50l-539 222v45l539 223l25 -65l-449 -180l450 -179z"/>
<glyph glyph-name="equal" horiz-adv-x="600" unicode="=" d="M560 235v-61h-520v61h520zM560 399v-61h-520v61h520z"/>
<glyph glyph-name="greater" horiz-adv-x="600" unicode="&gt;" d="M579 276l-539 -222l-25 65l448 180l-448 180l26 64l538 -222v-45z"/>
<glyph glyph-name="question" horiz-adv-x="529" unicode="?" d="M195 46q0 29 18 45.5t48 16.5q28 0 46 -16t18 -44q0 -27 -18 -43.5t-46 -16.5q-30 0 -48 16t-18 42zM220 202v28q0 44 17.5 81t42 64t49 51.5t42 54.5t17.5 63q0 109 -122 109q-63 0 -97.5 -35.5t-34.5 -102.5h-83q0 105 58 161t163 56q94 0 150.5 -46.5t56.5 -131.5 q0 -42 -18.5 -79.5t-44.5 -65.5t-52 -55t-44.5 -60.5t-18.5 -69.5v-22h-81z"/>
<glyph glyph-name="at" horiz-adv-x="986" unicode="@" d="M683 380l-56 -225q-5 -22 -5 -38q0 -29 11.5 -44t41.5 -15q81 0 126 74t45 173q0 137 -84.5 207t-230.5 70q-174 0 -282 -110t-108 -286q0 -158 97 -244t256 -86q164 0 285 88l34 -51q-132 -104 -321 -104q-122 0 -217 43.5t-152.5 135t-57.5 219.5q0 204 133 333 t336 129q181 0 284 -91.5t103 -246.5q0 -135 -69.5 -225t-181.5 -90q-54 0 -81.5 22.5t-27.5 62.5v7q-63 -90 -148 -90q-68 0 -103.5 43t-35.5 113q0 110 69.5 187t190.5 77q88 0 149 -38zM568 206l32 129q-27 19 -81 19q-78 0 -123 -57t-45 -141q0 -95 76 -95q48 0 86.5 42 t54.5 103z"/>
<glyph glyph-name="A" horiz-adv-x="652" unicode="A" d="M211 278h229l-115 334zM275 720h99l261 -720h-99l-70 193h-281l-69 -193h-99z"/>
<glyph glyph-name="B" horiz-adv-x="623" unicode="B" d="M79 0v720h250q232 0 232 -177q0 -58 -33 -105.5t-98 -57.5v-2q84 -9 124 -59t40 -111q0 -208 -276 -208h-239zM172 328v-247h171q77 0 117 35t40 96q0 64 -42.5 90t-122.5 26h-163zM318 638h-146v-228h131q163 0 163 121q0 58 -37 82.5t-111 24.5z"/>
<glyph glyph-name="C" horiz-adv-x="656" unicode="C" d="M569 159l53 -62q-109 -109 -260 -109q-154 0 -231.5 103t-77.5 271q0 105 34 187.5t106 133t173 50.5q116 0 183.5 -58.5t71.5 -172.5h-92q-3 66 -42.5 106t-120.5 40q-101 0 -157.5 -76.5t-56.5 -207.5q0 -144 57.5 -218.5t158.5 -74.5q63 0 109.5 23.5t91.5 64.5z"/>
<glyph glyph-name="D" horiz-adv-x="697" unicode="D" d="M79 720h210q355 0 355 -361q0 -187 -91.5 -273t-277.5 -86h-196v720zM293 636h-121v-553h121q132 0 192.5 68.5t60.5 207.5q0 138 -61 207.5t-192 69.5z"/>
<glyph glyph-name="E" horiz-adv-x="593" unicode="E" d="M79 0v720h457v-84h-364v-228h332v-84h-332v-241h372v-83h-465z"/>
<glyph glyph-name="F" horiz-adv-x="547" unicode="F" d="M79 0v720h436v-84h-343v-232h303v-84h-303v-320h-93z"/>
<glyph glyph-name="G" horiz-adv-x="712" unicode="G" d="M402 296v78h247v-273q-96 -113 -266 -113q-171 0 -250.5 101.5t-79.5 273.5q0 169 84 269.5t242 100.5q137 0 200.5 -61t67.5 -157h-95q-2 59 -45 96t-130 37q-110 0 -168 -79t-58 -205q0 -141 59.5 -218t171.5 -77q114 0 186 74v153h-166z"/>
<glyph glyph-name="H" horiz-adv-x="699" unicode="H" d="M79 0v720h93v-305h355v305h93v-720h-93v329h-355v-329h-93z"/>
<glyph glyph-name="I" horiz-adv-x="251" unicode="I" d="M79 0v720h93v-720h-93z"/>
<glyph glyph-name="J" horiz-adv-x="395" unicode="J" d="M321 720v-554q0 -92 -38.5 -135t-120.5 -43q-90 0 -146 26l19 76q49 -21 102 -21q52 0 72 24t20 90v537h92z"/>
<glyph glyph-name="K" horiz-adv-x="639" unicode="K" d="M79 0v720h93v-310h129l181 310h103l-204 -346l238 -374h-106l-212 330h-129v-330h-93z"/>
<glyph glyph-name="L" horiz-adv-x="529" unicode="L" d="M79 720h93v-637h330v-83h-423v720z"/>
<glyph glyph-name="M" horiz-adv-x="865" unicode="M" d="M810 0h-87l-58 556l-195 -556h-75l-195 556l-56 -556h-89l72 720h105l200 -581l204 581h102z"/>
<glyph glyph-name="N" horiz-adv-x="704" unicode="N" d="M79 0v720h84l370 -549v549h92v-720h-83l-372 550v-550h-91z"/>
<glyph glyph-name="O" horiz-adv-x="765" unicode="O" d="M54 367q0 174 91.5 270t241.5 96q147 0 235.5 -95.5t88.5 -270.5q0 -187 -89.5 -283t-238.5 -96t-239 96t-90 283zM152 367q0 -145 61.5 -221.5t169.5 -76.5t169.5 76t61.5 222q0 133 -62 207t-167 74q-108 0 -170.5 -74t-62.5 -207z"/>
<glyph glyph-name="P" horiz-adv-x="601" unicode="P" d="M79 0v720h235q121 0 183 -57t62 -161q0 -106 -64 -165.5t-192 -59.5h-131v-277h-93zM308 639h-136v-284h128q167 0 167 144q0 140 -159 140z"/>
<glyph glyph-name="Q" horiz-adv-x="765" unicode="Q" d="M152 367q0 -145 61.5 -221.5t169.5 -76.5t169.5 76t61.5 222q0 133 -62 207t-167 74q-108 0 -170.5 -74t-62.5 -207zM668 -94l-239 85q-23 -3 -46 -3q-149 0 -239 96t-90 283q0 174 91.5 270t241.5 96q147 0 235.5 -95.5t88.5 -270.5q0 -242 -154 -328v-4l143 -49z"/>
<glyph glyph-name="R" horiz-adv-x="634" unicode="R" d="M310 639h-138v-281h131q166 0 166 145q0 136 -159 136zM79 720h234q125 0 187.5 -57t62.5 -158q0 -138 -119 -196l160 -309h-102l-147 286q-34 -6 -74 -6h-109v-280h-93v720z"/>
<glyph glyph-name="S" horiz-adv-x="582" unicode="S" d="M32 99l51 60q106 -93 206 -93q66 0 107 32.5t41 90.5q0 55 -33.5 84t-130.5 58q-119 36 -167 80.5t-48 124.5q0 94 65 145.5t169 51.5q142 0 235 -103l-51 -57q-78 82 -182 82q-62 0 -101 -28.5t-39 -80.5q0 -55 38 -80.5t143 -60.5q110 -36 154.5 -81.5t44.5 -125.5 q0 -97 -67 -153.5t-178 -56.5q-154 0 -257 111z"/>
<glyph glyph-name="T" horiz-adv-x="576" unicode="T" d="M242 0v636h-224v84h540v-84h-223v-636h-93z"/>
<glyph glyph-name="U" horiz-adv-x="690" unicode="U" d="M74 720h92v-444q0 -103 48 -154.5t134 -51.5q93 0 134.5 51t41.5 155v444h92v-452q0 -139 -69 -209.5t-202 -70.5q-127 0 -199 69.5t-72 210.5v452z"/>
<glyph glyph-name="V" horiz-adv-x="605" unicode="V" d="M247 0l-231 720h96l190 -615l194 615h94l-234 -720h-109z"/>
<glyph glyph-name="W" horiz-adv-x="924" unicode="W" d="M205 0l-189 720h94l155 -602l153 602h89l154 -602l152 602h95l-190 -720h-103l-153 582l-151 -582h-106z"/>
<glyph glyph-name="X" horiz-adv-x="594" unicode="X" d="M16 0l225 368l-218 352h102l173 -282l172 282h104l-223 -359l224 -361h-106l-174 285l-172 -285h-107z"/>
<glyph glyph-name="Y" horiz-adv-x="590" unicode="Y" d="M246 0v301l-231 419h102l177 -327l178 327h103l-236 -419v-301h-93z"/>
<glyph glyph-name="Z" horiz-adv-x="591" unicode="Z" d="M36 0v61l383 575h-357v84h494v-41l-399 -596h398v-83h-519z"/>
<glyph glyph-name="bracketleft" horiz-adv-x="346" unicode="[" d="M280 -125h-193v845h193v-71h-108v-703h108v-71z"/>
<glyph glyph-name="backslash" horiz-adv-x="372" unicode="\" d="M103 739l243 -831h-74l-246 831h77z"/>
<glyph glyph-name="bracketright" horiz-adv-x="346" unicode="]" d="M258 -125h-193v71h108v703h-108v71h193v-845z"/>
<glyph glyph-name="asciicircum" horiz-adv-x="693" unicode="^" d="M379 693l233 -246l-47 -40l-218 224l-219 -224l-48 44l233 242h66z"/>
<glyph glyph-name="underscore" horiz-adv-x="492" unicode="_" d="M-2 -226v65h495v-65h-495z"/>
<glyph glyph-name="grave" d="M212 770l144 -137l-43 -50l-155 123z" unicode="`"/>
<glyph glyph-name="a" horiz-adv-x="530" unicode="a" d="M460 352v-352h-72l-8 89q-53 -101 -175 -101q-72 0 -115 39.5t-43 112.5q0 31 11.5 58.5t37 52.5t75.5 39.5t119 14.5q40 0 82 -6v50q0 56 -29 85t-82 29q-76 0 -155 -58l-41 54q84 78 201 78q194 0 194 -185zM372 213v20q-32 5 -80 5q-81 0 -119 -24.5t-38 -75.5 q0 -38 24 -59t70 -21q58 0 100.5 50t42.5 105z"/>
<glyph glyph-name="b" horiz-adv-x="595" unicode="b" d="M147 0h-73v720h88v-267q69 84 171 84q101 0 156 -71.5t55 -201.5t-56 -203t-169 -73q-58 0 -101 25t-65 57zM162 371v-227q20 -31 60.5 -54t89.5 -23q65 0 102 49.5t37 144.5q0 97 -35.5 147t-100.5 50q-82 0 -153 -87z"/>
<glyph glyph-name="c" horiz-adv-x="529" unicode="c" d="M455 120l37 -59q-85 -73 -204 -73q-110 0 -174.5 73t-64.5 203q0 127 67.5 200t175.5 73q95 0 146 -50.5t56 -145.5h-83q-13 118 -118 118q-70 0 -110.5 -50.5t-40.5 -141.5t39.5 -147t115.5 -56q44 0 79 13t79 43z"/>
<glyph glyph-name="d" horiz-adv-x="596" unicode="d" d="M433 151v217q-68 88 -154 88q-62 0 -98.5 -50t-36.5 -144q0 -84 34 -139t111 -55q75 0 144 83zM444 0l-6 71q-65 -83 -172 -83t-161 72.5t-54 200.5t58.5 202t159.5 74q97 0 164 -78v261h88v-720h-77z"/>
<glyph glyph-name="e" horiz-adv-x="548" unicode="e" d="M143 308h273q-2 156 -124 156q-41 0 -71.5 -16.5t-46 -43t-23 -50t-8.5 -46.5zM458 118l35 -60q-84 -70 -201 -70q-114 0 -178.5 69t-64.5 203q0 126 65.5 201.5t176.5 75.5q211 0 211 -255q0 -38 -1 -46h-358q2 -80 40 -126.5t116 -46.5q79 0 159 55z"/>
<glyph glyph-name="f" horiz-adv-x="289" unicode="f" d="M94 0v454h-62v55l62 12v69q0 65 31 104t95 39q36 0 72 -9l-5 -67q-23 7 -47 7q-58 0 -58 -69v-70h96v-71h-96v-454h-88z"/>
<glyph glyph-name="g" horiz-adv-x="596" unicode="g" d="M433 144v228q-21 31 -60.5 58t-84.5 27q-71 0 -107.5 -51t-36.5 -142t34.5 -143t106.5 -52q76 0 148 75zM521 525v-507q0 -127 -54.5 -177.5t-174.5 -50.5q-102 0 -183 33l17 73q85 -29 162 -29q86 0 117 36t31 120v49q-65 -81 -172 -81q-106 0 -159.5 72.5t-53.5 195.5 q0 124 56 201t165 77q99 0 168 -88l5 76h76z"/>
<glyph glyph-name="h" horiz-adv-x="564" unicode="h" d="M74 720h88v-268q74 85 171 85q161 0 161 -193v-344h-89v323q0 63 -19 98t-77 35q-78 0 -147 -79v-377h-88v720z"/>
<glyph glyph-name="i" horiz-adv-x="248" unicode="i" d="M168 525v-525h-88v525h88zM67 666q0 23 16.5 37.5t41.5 14.5t41 -14t16 -38q0 -22 -16 -35.5t-41 -13.5t-41.5 13.5t-16.5 35.5z"/>
<glyph glyph-name="j" horiz-adv-x="247" unicode="j" d="M67 666q0 24 16.5 38t41.5 14t41 -14t16 -38q0 -22 -16 -35.5t-41 -13.5t-41.5 13.5t-16.5 35.5zM167 525v-593q0 -67 -27 -101t-92 -34q-46 0 -75 10l8 67q18 -6 45 -6q28 0 41 14.5t13 56.5v586h87z"/>
<glyph glyph-name="k" horiz-adv-x="523" unicode="k" d="M162 720v-391h59l161 196h101l-190 -232l215 -293h-105l-188 255h-53v-255h-88v720h88z"/>
<glyph glyph-name="l" horiz-adv-x="238" unicode="l" d="M163 0h-88v720h88v-720z"/>
<glyph glyph-name="m" horiz-adv-x="827" unicode="m" d="M74 525h76l6 -76q71 88 163 88q101 0 128 -87q78 87 169 87q141 0 141 -173v-364h-88v349q0 53 -17.5 80t-60.5 27q-65 0 -130 -75v-381h-89v346q0 54 -16.5 82t-59.5 28q-66 0 -134 -77v-379h-88v525z"/>
<glyph glyph-name="n" horiz-adv-x="564" unicode="n" d="M74 525h76l6 -77q75 89 174 89q164 0 164 -193v-344h-89v322q0 135 -94 135q-46 0 -86 -26t-63 -54v-377h-88v525z"/>
<glyph glyph-name="o" horiz-adv-x="588" unicode="o" d="M49 260q0 131 68 204t183 73q111 0 175 -71.5t64 -203.5q0 -129 -68.5 -201.5t-183.5 -72.5q-112 0 -175 71.5t-63 200.5zM142 262q0 -97 41 -146.5t109 -49.5t111 49.5t43 146.5q0 98 -42.5 147.5t-110.5 49.5t-109.5 -50.5t-41.5 -146.5z"/>
<glyph glyph-name="p" horiz-adv-x="595" unicode="p" d="M162 -200h-88v725h76l7 -77q73 89 178 89q101 0 155 -71.5t54 -201.5q0 -129 -55 -202.5t-163 -73.5q-104 0 -164 74v-262zM162 372v-229q20 -28 59.5 -51.5t84.5 -23.5q68 0 106 48.5t38 144.5t-34 146.5t-97 50.5q-84 0 -157 -86z"/>
<glyph glyph-name="q" horiz-adv-x="596" unicode="q" d="M433 142v232q-64 83 -150 83q-63 0 -101 -51t-38 -144q0 -82 33.5 -138t102.5 -56q89 0 153 74zM432 -200v263q-69 -75 -163 -75q-109 0 -163.5 72.5t-54.5 200.5t59 202t162 74q95 0 168 -85l10 73h71v-725h-89z"/>
<glyph glyph-name="r" horiz-adv-x="336" unicode="r" d="M147 525l6 -80q19 41 50.5 66.5t68.5 25.5q24 0 49 -9l-9 -86q-17 6 -45 6q-32 0 -60.5 -26t-44.5 -59v-363h-88v525h73z"/>
<glyph glyph-name="s" horiz-adv-x="492" unicode="s" d="M32 73l41 56q84 -67 166 -67q52 0 81.5 21t29.5 57q0 37 -24.5 55t-97.5 36q-91 23 -130.5 57.5t-39.5 95.5q0 71 52 112t138 41q115 0 193 -78l-41 -53q-69 60 -149 60q-47 0 -74 -19.5t-27 -53.5q0 -35 27 -52.5t100 -36.5q91 -24 129.5 -58t38.5 -96 q0 -75 -54.5 -118.5t-145.5 -43.5q-63 0 -119 23.5t-94 61.5z"/>
<glyph glyph-name="t" horiz-adv-x="307" unicode="t" d="M267 453h-85v-347q0 -45 40 -45q22 0 47 9l10 -65q-42 -17 -91 -17q-93 0 -93 102v363h-66v55l67 16l11 146h75v-145h85v-72z"/>
<glyph glyph-name="u" horiz-adv-x="560" unicode="u" d="M486 0h-74l-7 76q-73 -88 -172 -88q-90 0 -126.5 49t-36.5 136v352h89v-331q0 -64 22.5 -95t76.5 -31q74 0 141 77v380h87v-525z"/>
<glyph glyph-name="v" horiz-adv-x="499" unicode="v" d="M17 525h92l141 -437l145 437h87l-182 -525h-103z"/>
<glyph glyph-name="w" horiz-adv-x="745" unicode="w" d="M629 525h88l-132 -525h-95l-120 402l-116 -402h-95l-132 525h88l96 -422l117 418h85l124 -418z"/>
<glyph glyph-name="x" horiz-adv-x="503" unicode="x" d="M19 0l179 266l-174 259h97l130 -200l129 200h96l-172 -259l179 -266h-96l-136 208l-136 -208h-96z"/>
<glyph glyph-name="y" horiz-adv-x="496" unicode="y" d="M387 525h90l-188 -532q-18 -52 -27.5 -75.5t-25 -52.5t-30.5 -40t-38 -19t-54 -8q-45 0 -90 12l9 63q37 -8 71 -8q33 0 52.5 22t39.5 85l9 28l-186 525h94l137 -423z"/>
<glyph glyph-name="z" horiz-adv-x="450" unicode="z" d="M40 0v56l261 397h-255v72h369v-42l-269 -413h267v-70h-373z"/>
<glyph glyph-name="braceleft" horiz-adv-x="373" unicode="{" d="M347 651h-41q-44 0 -59.5 -28t-15.5 -90v-128q0 -51 -16.5 -80t-65.5 -41q52 -9 67 -42t15 -99v-93q0 -57 16.5 -81.5t65.5 -24.5h34v-69h-38q-93 0 -128.5 34t-35.5 121v117q0 52 -17 76t-62 24h-31v72h29q48 0 64.5 27t16.5 96v97q0 99 35 140t128 41h39v-69z"/>
<glyph glyph-name="bar" d="M288 720v-920h-76v920h76z" unicode="|"/>
<glyph glyph-name="braceright" horiz-adv-x="373" unicode="}" d="M67 651h-41v69h39q93 0 128 -41t35 -140v-97q0 -69 16.5 -96t64.5 -27h29v-72h-31q-45 0 -62 -24t-17 -76v-117q0 -87 -35.5 -121t-128.5 -34h-38v69h34q49 0 65.5 24.5t16.5 81.5v93q0 66 15 99t67 42q-49 12 -65.5 41t-16.5 80v128q0 62 -15.5 90t-59.5 28z"/>
<glyph glyph-name="asciitilde" horiz-adv-x="780" unicode="~" d="M690 346l48 -63q-110 -98 -214 -98q-52 0 -140 35.5t-130 35.5q-32 0 -62.5 -10.5t-49.5 -22.5t-52 -36l-46 67q115 93 217 93q47 0 134 -36.5t124 -36.5q75 0 171 72z"/>
<glyph glyph-name="uni00A0" horiz-adv-x="205" unicode=" "/>
<glyph glyph-name="exclamdown" horiz-adv-x="313" unicode="¡" d="M92 478q0 26 18 42t48 16q28 0 46 -16.5t18 -43.5q0 -28 -18 -44t-46 -16q-30 0 -48 16.5t-18 45.5zM111 44l10 278h73l9 -278v-240h-92v240z"/>
<glyph glyph-name="cent" horiz-adv-x="526" unicode="¢" d="M459 209l36 -58q-66 -57 -147 -69v-100h-79v97q-98 9 -155.5 82.5t-57.5 192.5q0 118 59 189t155 80v97h78v-101q69 -14 109 -63t44 -127h-80q-12 116 -121 116q-71 0 -111 -48.5t-40 -140.5q0 -89 40.5 -144.5t116.5 -55.5q80 0 153 53z"/>
<glyph glyph-name="sterling" horiz-adv-x="516" unicode="£" d="M248 223q0 -68 -65 -145h287v-78h-427v71l50 5q71 77 71 147q0 39 -25 96h-94v65h70q-48 91 -48 154q0 80 61 131t151 51q129 0 200 -86l-48 -53q-62 62 -145 62q-60 0 -94.5 -28.5t-34.5 -78.5q0 -47 50 -152h156v-65h-136q21 -50 21 -96z"/>
<glyph glyph-name="currency" horiz-adv-x="578" unicode="¤" d="M38 545l40 42l94 -95q52 39 116 39q66 0 115 -38l94 93l41 -41l-94 -95q40 -50 40 -114q0 -65 -40 -116l95 -93l-42 -41l-94 94q-51 -39 -115 -39t-116 39q-69 -72 -94 -94l-40 41l94 94q-40 50 -40 115q0 64 40 114zM423 336q0 57 -39 96t-96 39t-96.5 -39t-39.5 -96 q0 -58 39.5 -97t96.5 -39q56 0 95.5 40t39.5 96z"/>
<glyph glyph-name="yen" horiz-adv-x="576" unicode="¥" d="M49 324v65h167l-183 320h95l160 -294l163 294h92l-186 -320h172v-65h-201v-84h201v-65h-201v-175h-83v175h-196v65h196v84h-196z"/>
<glyph glyph-name="brokenbar" d="M288 720v-408h-76v408h76zM288 208v-408h-76v408h76z" unicode="¦"/>
<glyph glyph-name="section" horiz-adv-x="524" unicode="§" d="M253 440q-37 -8 -63.5 -28t-26.5 -54q0 -31 31 -49t84 -31q88 31 88 85q0 14 -6.5 25t-14.5 17.5t-26.5 14t-29 10.5t-36.5 10zM76 68l41 48q74 -63 154 -63q40 0 65.5 17.5t25.5 53.5q0 22 -18 38.5t-37.5 24t-58.5 19.5q-27 8 -39.5 12.5t-36.5 13.5t-36 18.5t-26 23.5 t-20 32.5t-6 41.5q0 44 29 76.5t88 45.5q-113 33 -113 121q0 63 45 102.5t133 39.5q103 0 176 -69l-39 -46q-74 52 -135 52q-40 0 -66.5 -17t-26.5 -51q0 -33 22 -52.5t73 -35.5q105 -34 142 -64t37 -81q0 -48 -32.5 -78.5t-78.5 -43.5q59 -22 83.5 -50t24.5 -70 q0 -61 -49 -100t-126 -39q-54 0 -107.5 21t-87.5 59z"/>
<glyph glyph-name="dieresis" d="M104 652q0 21 14.5 35t38.5 14q25 0 38.5 -13.5t13.5 -35.5q0 -20 -14.5 -34t-36.5 -14q-25 0 -39.5 13.5t-14.5 34.5zM302 652q0 21 15 35t39 14q25 0 38.5 -13.5t13.5 -35.5q0 -21 -14.5 -34.5t-37.5 -13.5q-24 0 -39 13.5t-15 34.5z" unicode="¨"/>
<glyph glyph-name="copyright" horiz-adv-x="810" unicode="©" d="M405 720q160 0 260 -99t100 -257q0 -155 -107 -259.5t-253 -104.5q-153 0 -256.5 94.5t-103.5 265.5q0 155 104 257.5t256 102.5zM405 677q-135 0 -223.5 -90.5t-88.5 -226.5q0 -150 89 -233t223 -83q125 0 219.5 91.5t94.5 224.5q0 140 -88.5 228.5t-225.5 88.5z M522 259l26 -32q-59 -62 -144 -62q-80 0 -122 55t-42 142q0 86 44.5 141.5t124.5 55.5q61 0 99 -33.5t39 -95.5h-49q-9 83 -91 83q-54 0 -83 -40.5t-29 -108.5q0 -76 30 -114t84 -38q61 0 113 47z"/>
<glyph glyph-name="ordfeminine" horiz-adv-x="473" unicode="ª" d="M385 519v-255h-64l-4 65q-16 -32 -50 -53t-77 -21q-59 0 -93.5 28.5t-34.5 80.5q0 54 42.5 91t142.5 37q24 0 66 -5v30q0 78 -88 78q-66 0 -121 -41l-27 48q68 54 152 54q156 0 156 -137zM313 418v17q-40 5 -68 5q-111 0 -111 -72q0 -54 70 -54q46 0 77.5 31t31.5 73z "/>
<glyph glyph-name="guillemotleft" horiz-adv-x="480" unicode="«" d="M453 378l-105 -117l105 -116l-49 -45l-152 143v35l153 145zM242 378l-105 -117l105 -116l-49 -45l-152 143v35l153 145z"/>
<glyph glyph-name="logicalnot" horiz-adv-x="600" unicode="¬" d="M568 125h-63v201h-473v62h536v-263z"/>
<glyph glyph-name="uni00AD" horiz-adv-x="333" unicode="­" d="M33 229v87h267v-87h-267z"/>
<glyph glyph-name="registered" horiz-adv-x="421" unicode="®" d="M210 725q79 0 128 -49t49 -128q0 -75 -52.5 -126t-124.5 -51q-78 0 -127 47t-49 130q0 76 50.5 126.5t125.5 50.5zM210 691q-60 0 -100.5 -40.5t-40.5 -102.5q0 -68 39 -105.5t102 -37.5q57 0 99 41.5t42 101.5q0 64 -39 103.5t-102 39.5zM209 612h-34v-62h32q42 0 42 33 q0 29 -40 29zM146 637h69q65 0 65 -55q0 -32 -32 -48l41 -73h-32l-37 67q-5 -1 -18 -1h-27v-66h-29v176z"/>
<glyph glyph-name="macron" d="M112 616v67h276v-67h-276z" unicode="¯"/>
<glyph glyph-name="degree" horiz-adv-x="314" unicode="°" d="M40 660q0 49 34.5 82.5t83.5 33.5q48 0 82 -34t34 -82q0 -49 -34 -82.5t-82 -33.5q-50 0 -84 33t-34 83zM82 661q0 -34 21.5 -56.5t54.5 -22.5q32 0 53.5 22.5t21.5 56.5q0 33 -21 54t-54 21q-34 0 -55 -21t-21 -54z"/>
<glyph glyph-name="plusminus" horiz-adv-x="600" unicode="±" d="M333 558v-229h228v-65h-228v-199h227v-65h-520v65h225v199h-227v65h227v229h68z"/>
<glyph glyph-name="twosuperior" horiz-adv-x="315" unicode="²" d="M20 400v49l134 138q16 16 21 21.5t13.5 17t11 20.5t2.5 21q0 47 -56 47q-47 0 -106 -43l-29 45q71 61 150 61q54 0 86 -26.5t32 -72.5q0 -55 -57 -112l-107 -106h168v-60h-263z"/>
<glyph glyph-name="threesuperior" horiz-adv-x="326" unicode="³" d="M11 443l31 46q53 -36 104 -36q75 0 75 55q0 27 -19.5 39.5t-64.5 12.5q-27 0 -33 -2v61q95 2 95 59q0 39 -58 39q-45 0 -90 -25l-22 48q59 37 128 37q55 0 86 -23.5t31 -67.5q0 -32 -20 -56.5t-55 -34.5q96 -8 96 -92q0 -53 -39 -81.5t-102 -28.5q-89 0 -143 50z"/>
<glyph glyph-name="acute" d="M148 633l144 137l54 -64l-155 -123z" unicode="´"/>
<glyph glyph-name="mu" horiz-adv-x="575" unicode="µ" d="M491 0h-80v74q-42 -83 -135 -83q-73 0 -113 55v-246h-87v725h87v-328q0 -138 115 -138q53 0 84.5 32t40.5 75v359h88v-525z"/>
<glyph glyph-name="paragraph" horiz-adv-x="549" unicode="¶" d="M470 720v-720h-78v665h-86v-665h-77v361q-90 3 -138 50.5t-48 127.5q0 81 56 131t148 50h223z"/>
<glyph glyph-name="periodcentered" horiz-adv-x="280" unicode="·" d="M75 334q0 29 18 45.5t48 16.5q28 0 46 -16t18 -44q0 -27 -18 -43.5t-46 -16.5q-30 0 -48 16t-18 42z"/>
<glyph glyph-name="cedilla" d="M159 -196l12 48q33 -12 62 -12q43 0 43 32q0 18 -15 24.5t-47 6.5h-22l23 105h55l-12 -60q89 -4 89 -75q0 -85 -107 -85q-46 0 -81 16z" unicode="¸"/>
<glyph glyph-name="onesuperior" horiz-adv-x="262" unicode="¹" d="M197 400h-72v276q-52 -15 -90 -15h-7l-7 48q76 16 122 62h54v-371z"/>
<glyph glyph-name="ordmasculine" horiz-adv-x="482" unicode="º" d="M58 455q0 95 50.5 148t132.5 53t132.5 -53t50.5 -148q0 -94 -51 -147t-132 -53q-85 0 -134 52.5t-49 147.5zM135 454q0 -67 29 -100t77 -33t77.5 33t29.5 100q0 68 -29.5 102t-77.5 34t-77 -34t-29 -102z"/>
<glyph glyph-name="guillemotright" horiz-adv-x="482" unicode="»" d="M345 261l-105 117l48 45l153 -145v-35l-152 -143l-49 45zM132 261l-105 117l48 45l153 -145v-35l-152 -143l-49 45z"/>
<glyph glyph-name="onequarter" horiz-adv-x="848" unicode="¼" d="M660 0v72h-186v55l162 244h95v-242h41v-57h-41v-72h-71zM660 307l-117 -178h117v178zM224 350h-72v276q-52 -15 -90 -15h-7l-7 48q76 16 122 62h54v-371zM141 -1l438 721h74l-438 -721h-74z"/>
<glyph glyph-name="onehalf" horiz-adv-x="848" unicode="½" d="M474 0v49l134 138q16 16 21 21.5t13.5 17t11 20.5t2.5 21q0 47 -56 47q-47 0 -106 -43l-29 45q71 61 150 61q54 0 86 -26.5t32 -72.5q0 -55 -57 -112l-107 -106h168v-60h-263zM219 350h-72v276q-52 -15 -90 -15h-7l-7 48q76 16 122 62h54v-371zM103 -1l438 721h74 l-438 -721h-74z"/>
<glyph glyph-name="threequarters" horiz-adv-x="848" unicode="¾" d="M73 393l31 46q53 -36 104 -36q75 0 75 55q0 27 -19.5 39.5t-64.5 12.5q-27 0 -33 -2v61q95 2 95 59q0 39 -58 39q-45 0 -90 -25l-22 48q59 37 128 37q55 0 86 -23.5t31 -67.5q0 -32 -20 -56.5t-55 -34.5q96 -8 96 -92q0 -53 -39 -81.5t-102 -28.5q-89 0 -143 50zM686 0 v72h-186v55l162 244h95v-242h41v-57h-41v-72h-71zM686 307l-117 -178h117v178zM195 -1l438 721h74l-438 -721h-74z"/>
<glyph glyph-name="questiondown" horiz-adv-x="529" unicode="¿" d="M337 479q0 -29 -18 -45.5t-48 -16.5q-28 0 -46 16t-18 44q0 27 18 43.5t46 16.5q30 0 48 -16t18 -42zM312 323v-28q0 -44 -17.5 -81t-42 -64t-49 -51.5t-42 -54.5t-17.5 -63q0 -109 122 -109q63 0 97.5 35.5t34.5 102.5h83q0 -105 -58 -161t-163 -56q-94 0 -150.5 46.5 t-56.5 131.5q0 42 18.5 79.5t44.5 65.5t52 55t44.5 60.5t18.5 69.5v22h81z"/>
<glyph glyph-name="Agrave" horiz-adv-x="652" unicode="À" d="M258 915l170 -103l-32 -58l-177 85zM211 278h229l-115 334zM275 720h99l261 -720h-99l-70 193h-281l-69 -193h-99z"/>
<glyph glyph-name="Aacute" horiz-adv-x="652" unicode="Á" d="M219 812l170 103l39 -76l-177 -85zM211 278h229l-115 334zM275 720h99l261 -720h-99l-70 193h-281l-69 -193h-99z"/>
<glyph glyph-name="Acircumflex" horiz-adv-x="652" unicode="Â" d="M298 909h62l102 -111l-38 -37l-96 77l-96 -77l-40 37zM211 278h229l-115 334zM275 720h99l261 -720h-99l-70 193h-281l-69 -193h-99z"/>
<glyph glyph-name="Atilde" horiz-adv-x="652" unicode="Ã" d="M434 883l48 -17q-15 -47 -35.5 -66.5t-51.5 -19.5q-25 0 -68.5 16t-55.5 16t-21 -7t-21 -28l-47 19q20 46 38.5 65t45.5 19q24 0 65.5 -16t60.5 -16q15 0 23 7t19 28zM211 278h229l-115 334zM275 720h99l261 -720h-99l-70 193h-281l-69 -193h-99z"/>
<glyph glyph-name="Adieresis" horiz-adv-x="652" unicode="Ä" d="M182 825q0 21 14.5 35t38.5 14q25 0 38.5 -13.5t13.5 -35.5q0 -20 -14.5 -34t-36.5 -14q-25 0 -39.5 13.5t-14.5 34.5zM380 825q0 21 15 35t39 14q25 0 38.5 -13.5t13.5 -35.5q0 -21 -14.5 -34.5t-37.5 -13.5q-24 0 -39 13.5t-15 34.5zM211 278h229l-115 334zM275 720h99 l261 -720h-99l-70 193h-281l-69 -193h-99z"/>
<glyph glyph-name="Aring" horiz-adv-x="652" unicode="Å" d="M284 795q0 -38 40 -38t40 41q0 37 -40 37t-40 -40zM211 278h229l-115 334zM229 794q0 40 27 66t68 26t68 -24.5t27 -63.5q0 -54 -45 -79l261 -719h-99l-70 193h-281l-69 -193h-99l257 718q-45 21 -45 76z"/>
<glyph glyph-name="AE" horiz-adv-x="987" unicode="Æ" d="M270 287h203v354h-17zM473 0v207h-239l-112 -207h-107l384 720h531v-84h-364v-228h332v-84h-332v-241h372v-83h-465z"/>
<glyph glyph-name="Ccedilla" horiz-adv-x="656" unicode="Ç" d="M276 -199l12 48q33 -12 62 -12q43 0 43 32q0 18 -15 24.5t-47 6.5h-22l19 89q-137 12 -206 113t-69 260q0 105 34 187.5t106 133t173 50.5q116 0 183.5 -58.5t71.5 -172.5h-92q-3 66 -42.5 106t-120.5 40q-101 0 -157.5 -76.5t-56.5 -207.5q0 -144 57.5 -218.5 t158.5 -74.5q63 0 109.5 23.5t91.5 64.5l53 -62q-101 -101 -239 -108l-8 -44q89 -4 89 -75q0 -85 -107 -85q-46 0 -81 16z"/>
<glyph glyph-name="Egrave" horiz-adv-x="593" unicode="È" d="M225 915l170 -103l-32 -58l-177 85zM79 0v720h457v-84h-364v-228h332v-84h-332v-241h372v-83h-465z"/>
<glyph glyph-name="Eacute" horiz-adv-x="593" unicode="É" d="M214 812l170 103l39 -76l-177 -85zM79 0v720h457v-84h-364v-228h332v-84h-332v-241h372v-83h-465z"/>
<glyph glyph-name="Ecircumflex" horiz-adv-x="593" unicode="Ê" d="M280 909h62l102 -111l-38 -37l-96 77l-96 -77l-40 37zM79 0v720h457v-84h-364v-228h332v-84h-332v-241h372v-83h-465z"/>
<glyph glyph-name="Edieresis" horiz-adv-x="593" unicode="Ë" d="M159 825q0 21 14.5 35t38.5 14q25 0 38.5 -13.5t13.5 -35.5q0 -20 -14.5 -34t-36.5 -14q-25 0 -39.5 13.5t-14.5 34.5zM357 825q0 21 15 35t39 14q25 0 38.5 -13.5t13.5 -35.5q0 -21 -14.5 -34.5t-37.5 -13.5q-24 0 -39 13.5t-15 34.5zM79 0v720h457v-84h-364v-228h332 v-84h-332v-241h372v-83h-465z"/>
<glyph glyph-name="Igrave" horiz-adv-x="251" unicode="Ì" d="M55 915l170 -103l-32 -58l-177 85zM79 0v720h93v-720h-93z"/>
<glyph glyph-name="Iacute" horiz-adv-x="251" unicode="Í" d="M16 812l170 103l39 -76l-177 -85zM79 0v720h93v-720h-93z"/>
<glyph glyph-name="Icircumflex" horiz-adv-x="251" unicode="Î" d="M96 909h62l102 -111l-38 -37l-96 77l-96 -77l-40 37zM79 0v720h93v-720h-93z"/>
<glyph glyph-name="Idieresis" horiz-adv-x="251" unicode="Ï" d="M-21 825q0 21 14.5 35t38.5 14q25 0 38.5 -13.5t13.5 -35.5q0 -20 -14.5 -34t-36.5 -14q-25 0 -39.5 13.5t-14.5 34.5zM177 825q0 21 15 35t39 14q25 0 38.5 -13.5t13.5 -35.5q0 -21 -14.5 -34.5t-37.5 -13.5q-24 0 -39 13.5t-15 34.5zM79 0v720h93v-720h-93z"/>
<glyph glyph-name="Eth" horiz-adv-x="708" unicode="Ð" d="M304 636h-121v-230h187v-78h-187v-245h121q132 0 192.5 68.5t60.5 207.5q0 138 -61 207.5t-192 69.5zM16 328v78h74v314h210q355 0 355 -361q0 -187 -91.5 -273t-277.5 -86h-196v328h-74z"/>
<glyph glyph-name="Ntilde" horiz-adv-x="704" unicode="Ñ" d="M457 883l48 -17q-15 -47 -35.5 -66.5t-51.5 -19.5q-25 0 -68.5 16t-55.5 16t-21 -7t-21 -28l-47 19q20 46 38.5 65t45.5 19q24 0 65.5 -16t60.5 -16q15 0 23 7t19 28zM79 0v720h84l370 -549v549h92v-720h-83l-372 550v-550h-91z"/>
<glyph glyph-name="Ograve" horiz-adv-x="765" unicode="Ò" d="M314 915l170 -103l-32 -58l-177 85zM54 367q0 174 91.5 270t241.5 96q147 0 235.5 -95.5t88.5 -270.5q0 -187 -89.5 -283t-238.5 -96t-239 96t-90 283zM152 367q0 -145 61.5 -221.5t169.5 -76.5t169.5 76t61.5 222q0 133 -62 207t-167 74q-108 0 -170.5 -74t-62.5 -207z "/>
<glyph glyph-name="Oacute" horiz-adv-x="765" unicode="Ó" d="M275 812l170 103l39 -76l-177 -85zM54 367q0 174 91.5 270t241.5 96q147 0 235.5 -95.5t88.5 -270.5q0 -187 -89.5 -283t-238.5 -96t-239 96t-90 283zM152 367q0 -145 61.5 -221.5t169.5 -76.5t169.5 76t61.5 222q0 133 -62 207t-167 74q-108 0 -170.5 -74t-62.5 -207z "/>
<glyph glyph-name="Ocircumflex" horiz-adv-x="765" unicode="Ô" d="M355 909h62l102 -111l-38 -37l-96 77l-96 -77l-40 37zM54 367q0 174 91.5 270t241.5 96q147 0 235.5 -95.5t88.5 -270.5q0 -187 -89.5 -283t-238.5 -96t-239 96t-90 283zM152 367q0 -145 61.5 -221.5t169.5 -76.5t169.5 76t61.5 222q0 133 -62 207t-167 74 q-108 0 -170.5 -74t-62.5 -207z"/>
<glyph glyph-name="Otilde" horiz-adv-x="765" unicode="Õ" d="M492 883l48 -17q-15 -47 -35.5 -66.5t-51.5 -19.5q-25 0 -68.5 16t-55.5 16t-21 -7t-21 -28l-47 19q19 46 38 65t46 19q24 0 65.5 -16t60.5 -16q15 0 23 7t19 28zM54 367q0 174 91.5 270t241.5 96q147 0 235.5 -95.5t88.5 -270.5q0 -187 -89.5 -283t-238.5 -96t-239 96 t-90 283zM152 367q0 -145 61.5 -221.5t169.5 -76.5t169.5 76t61.5 222q0 133 -62 207t-167 74q-108 0 -170.5 -74t-62.5 -207z"/>
<glyph glyph-name="Odieresis" horiz-adv-x="765" unicode="Ö" d="M238 825q0 21 14.5 35t38.5 14q25 0 38.5 -13.5t13.5 -35.5q0 -20 -14.5 -34t-36.5 -14q-25 0 -39.5 13.5t-14.5 34.5zM436 825q0 21 15 35t39 14q25 0 38.5 -13.5t13.5 -35.5q0 -21 -14.5 -34.5t-37.5 -13.5q-24 0 -39 13.5t-15 34.5zM54 367q0 174 91.5 270t241.5 96 q147 0 235.5 -95.5t88.5 -270.5q0 -187 -89.5 -283t-238.5 -96t-239 96t-90 283zM152 367q0 -145 61.5 -221.5t169.5 -76.5t169.5 76t61.5 222q0 133 -62 207t-167 74q-108 0 -170.5 -74t-62.5 -207z"/>
<glyph glyph-name="multiply" horiz-adv-x="600" unicode="×" d="M508 451l-163 -160l163 -163l-45 -46l-163 161l-162 -161l-47 49l164 161l-164 161l45 48l163 -161l162 161z"/>
<glyph glyph-name="Oslash" horiz-adv-x="765" unicode="Ø" d="M152 367q0 -198 112 -267l165 544q-19 4 -44 4q-108 0 -170.5 -74t-62.5 -207zM614 367q0 187 -117 253l-166 -546q20 -5 52 -5q108 0 169.5 76t61.5 222zM54 367q0 174 91.5 270t241.5 96q35 0 67 -6l19 60h75l-24 -80q88 -37 137.5 -124t49.5 -216q0 -187 -89.5 -283 t-238.5 -96q-34 0 -76 7l-23 -75h-74l29 96q-88 38 -136.5 126.5t-48.5 224.5z"/>
<glyph glyph-name="Ugrave" horiz-adv-x="690" unicode="Ù" d="M275 915l170 -103l-32 -58l-177 85zM74 720h92v-444q0 -103 48 -154.5t134 -51.5q93 0 134.5 51t41.5 155v444h92v-452q0 -139 -69 -209.5t-202 -70.5q-127 0 -199 69.5t-72 210.5v452z"/>
<glyph glyph-name="Uacute" horiz-adv-x="690" unicode="Ú" d="M251 812l170 103l39 -76l-177 -85zM74 720h92v-444q0 -103 48 -154.5t134 -51.5q93 0 134.5 51t41.5 155v444h92v-452q0 -139 -69 -209.5t-202 -70.5q-127 0 -199 69.5t-72 210.5v452z"/>
<glyph glyph-name="Ucircumflex" horiz-adv-x="690" unicode="Û" d="M317 909h62l102 -111l-38 -37l-96 77l-96 -77l-40 37zM74 720h92v-444q0 -103 48 -154.5t134 -51.5q93 0 134.5 51t41.5 155v444h92v-452q0 -139 -69 -209.5t-202 -70.5q-127 0 -199 69.5t-72 210.5v452z"/>
<glyph glyph-name="Udieresis" horiz-adv-x="690" unicode="Ü" d="M199 825q0 21 14.5 35t38.5 14q25 0 38.5 -13.5t13.5 -35.5q0 -20 -14.5 -34t-36.5 -14q-25 0 -39.5 13.5t-14.5 34.5zM397 825q0 21 15 35t39 14q25 0 38.5 -13.5t13.5 -35.5q0 -21 -14.5 -34.5t-37.5 -13.5q-24 0 -39 13.5t-15 34.5zM74 720h92v-444q0 -103 48 -154.5 t134 -51.5q93 0 134.5 51t41.5 155v444h92v-452q0 -139 -69 -209.5t-202 -70.5q-127 0 -199 69.5t-72 210.5v452z"/>
<glyph glyph-name="Yacute" horiz-adv-x="590" unicode="Ý" d="M209 812l170 103l39 -76l-177 -85zM246 0v301l-231 419h102l177 -327l178 327h103l-236 -419v-301h-93z"/>
<glyph glyph-name="Thorn" horiz-adv-x="601" unicode="Þ" d="M300 523h-136v-286h128q167 0 167 146q0 71 -38.5 105.5t-120.5 34.5zM71 0v720h93v-116h142q49 0 90.5 -11t77 -35t55.5 -67t20 -101q0 -114 -66.5 -171t-187.5 -57h-131v-162h-93z"/>
<glyph glyph-name="germandbls" horiz-adv-x="567" unicode="ß" d="M87 0v454h-64v55l64 13v20q0 94 57 142.5t144 48.5q193 0 193 -180q0 -69 -38.5 -116t-105.5 -60q88 -13 137 -62.5t49 -131.5q0 -91 -53 -143t-141 -52q-74 0 -119 36l22 57q44 -23 90 -23q50 0 81.5 32t31.5 99q0 72 -45 105t-136 44v70q64 6 103 40.5t39 98.5 q0 114 -112 114q-57 0 -83.5 -34t-26.5 -105v-522h-87z"/>
<glyph glyph-name="agrave" horiz-adv-x="530" unicode="à" d="M203 770l144 -137l-43 -50l-155 123zM460 352v-352h-72l-8 89q-53 -101 -175 -101q-72 0 -115 39.5t-43 112.5q0 31 11.5 58.5t37 52.5t75.5 39.5t119 14.5q40 0 82 -6v50q0 56 -29 85t-82 29q-76 0 -155 -58l-41 54q84 78 201 78q194 0 194 -185zM372 213v20 q-32 5 -80 5q-81 0 -119 -24.5t-38 -75.5q0 -38 24 -59t70 -21q58 0 100.5 50t42.5 105z"/>
<glyph glyph-name="aacute" horiz-adv-x="530" unicode="á" d="M158 633l144 137l54 -64l-155 -123zM460 352v-352h-72l-8 89q-53 -101 -175 -101q-72 0 -115 39.5t-43 112.5q0 31 11.5 58.5t37 52.5t75.5 39.5t119 14.5q40 0 82 -6v50q0 56 -29 85t-82 29q-76 0 -155 -58l-41 54q84 78 201 78q194 0 194 -185zM372 213v20q-32 5 -80 5 q-81 0 -119 -24.5t-38 -75.5q0 -38 24 -59t70 -21q58 0 100.5 50t42.5 105z"/>
<glyph glyph-name="acircumflex" horiz-adv-x="530" unicode="â" d="M222 756h61l107 -147l-45 -32l-92 105l-92 -104l-48 32zM460 352v-352h-72l-8 89q-53 -101 -175 -101q-72 0 -115 39.5t-43 112.5q0 31 11.5 58.5t37 52.5t75.5 39.5t119 14.5q40 0 82 -6v50q0 56 -29 85t-82 29q-76 0 -155 -58l-41 54q84 78 201 78q194 0 194 -185z M372 213v20q-32 5 -80 5q-81 0 -119 -24.5t-38 -75.5q0 -38 24 -59t70 -21q58 0 100.5 50t42.5 105z"/>
<glyph glyph-name="atilde" horiz-adv-x="530" unicode="ã" d="M357 707l48 -17q-15 -47 -35.5 -66.5t-51.5 -19.5q-25 0 -68.5 16t-55.5 16t-21 -7t-21 -28l-47 19q19 46 38 65t46 19q24 0 65.5 -16t60.5 -16q15 0 23 7t19 28zM460 352v-352h-72l-8 89q-53 -101 -175 -101q-72 0 -115 39.5t-43 112.5q0 31 11.5 58.5t37 52.5 t75.5 39.5t119 14.5q40 0 82 -6v50q0 56 -29 85t-82 29q-76 0 -155 -58l-41 54q84 78 201 78q194 0 194 -185zM372 213v20q-32 5 -80 5q-81 0 -119 -24.5t-38 -75.5q0 -38 24 -59t70 -21q58 0 100.5 50t42.5 105z"/>
<glyph glyph-name="adieresis" horiz-adv-x="530" unicode="ä" d="M106 652q0 21 14.5 35t38.5 14q25 0 38.5 -13.5t13.5 -35.5q0 -20 -14.5 -34t-36.5 -14q-25 0 -39.5 13.5t-14.5 34.5zM304 652q0 21 15 35t39 14q25 0 38.5 -13.5t13.5 -35.5q0 -21 -14.5 -34.5t-37.5 -13.5q-24 0 -39 13.5t-15 34.5zM460 352v-352h-72l-8 89 q-53 -101 -175 -101q-72 0 -115 39.5t-43 112.5q0 31 11.5 58.5t37 52.5t75.5 39.5t119 14.5q40 0 82 -6v50q0 56 -29 85t-82 29q-76 0 -155 -58l-41 54q84 78 201 78q194 0 194 -185zM372 213v20q-32 5 -80 5q-81 0 -119 -24.5t-38 -75.5q0 -38 24 -59t70 -21 q58 0 100.5 50t42.5 105z"/>
<glyph glyph-name="aring" horiz-adv-x="530" unicode="å" d="M162 663q0 40 27 66t68 26t68 -24.5t27 -63.5q0 -41 -27 -66t-68 -25q-42 0 -68.5 23.5t-26.5 63.5zM217 664q0 -38 40 -38t40 41q0 37 -40 37t-40 -40zM460 352v-352h-72l-8 89q-53 -101 -175 -101q-72 0 -115 39.5t-43 112.5q0 31 11.5 58.5t37 52.5t75.5 39.5 t119 14.5q40 0 82 -6v50q0 56 -29 85t-82 29q-76 0 -155 -58l-41 54q84 78 201 78q194 0 194 -185zM372 213v20q-32 5 -80 5q-81 0 -119 -24.5t-38 -75.5q0 -38 24 -59t70 -21q58 0 100.5 50t42.5 105z"/>
<glyph glyph-name="ae" horiz-adv-x="878" unicode="æ" d="M473 308h273q-2 156 -124 156q-41 0 -71.5 -16.5t-46 -43t-23 -50t-8.5 -46.5zM372 207v32q-28 6 -63 6q-95 0 -134.5 -26t-39.5 -78q0 -39 26.5 -61.5t69.5 -22.5q62 0 101.5 39.5t39.5 110.5zM788 118l35 -60q-84 -70 -201 -70q-70 0 -124 30t-80 85 q-62 -115 -197 -115q-81 0 -127.5 40t-46.5 116q0 30 11 57t35.5 52.5t72.5 40.5t115 15q43 0 91 -6v46q0 117 -118 117q-67 0 -152 -52l-35 52q93 71 196 71q63 0 105 -21t66 -75q64 96 187 96q211 0 211 -255q0 -38 -1 -46h-358q2 -80 40 -126.5t116 -46.5q79 0 159 55z "/>
<glyph glyph-name="ccedilla" horiz-adv-x="529" unicode="ç" d="M192 -196l12 48q33 -12 62 -12q43 0 43 32q0 18 -15 24.5t-47 6.5h-22l19 89q-91 14 -143 84.5t-52 187.5q0 127 67.5 200t175.5 73q95 0 146 -50.5t56 -145.5h-83q-13 118 -118 118q-70 0 -110.5 -50.5t-40.5 -141.5t39.5 -147t115.5 -56q44 0 79 13t79 43l37 -59 q-80 -70 -193 -73l-8 -40q89 -4 89 -75q0 -85 -107 -85q-46 0 -81 16z"/>
<glyph glyph-name="egrave" horiz-adv-x="548" unicode="è" d="M223 770l144 -137l-43 -50l-155 123zM143 308h273q-2 156 -124 156q-41 0 -71.5 -16.5t-46 -43t-23 -50t-8.5 -46.5zM458 118l35 -60q-84 -70 -201 -70q-114 0 -178.5 69t-64.5 203q0 126 65.5 201.5t176.5 75.5q211 0 211 -255q0 -38 -1 -46h-358q2 -80 40 -126.5 t116 -46.5q79 0 159 55z"/>
<glyph glyph-name="eacute" horiz-adv-x="548" unicode="é" d="M183 633l144 137l54 -64l-155 -123zM143 308h273q-2 156 -124 156q-41 0 -71.5 -16.5t-46 -43t-23 -50t-8.5 -46.5zM458 118l35 -60q-84 -70 -201 -70q-114 0 -178.5 69t-64.5 203q0 126 65.5 201.5t176.5 75.5q211 0 211 -255q0 -38 -1 -46h-358q2 -80 40 -126.5 t116 -46.5q79 0 159 55z"/>
<glyph glyph-name="ecircumflex" horiz-adv-x="548" unicode="ê" d="M246 756h61l107 -147l-45 -32l-92 105l-92 -104l-48 32zM143 308h273q-2 156 -124 156q-41 0 -71.5 -16.5t-46 -43t-23 -50t-8.5 -46.5zM458 118l35 -60q-84 -70 -201 -70q-114 0 -178.5 69t-64.5 203q0 126 65.5 201.5t176.5 75.5q211 0 211 -255q0 -38 -1 -46h-358 q2 -80 40 -126.5t116 -46.5q79 0 159 55z"/>
<glyph glyph-name="edieresis" horiz-adv-x="548" unicode="ë" d="M129 652q0 21 14.5 35t38.5 14q25 0 38.5 -13.5t13.5 -35.5q0 -20 -14.5 -34t-36.5 -14q-25 0 -39.5 13.5t-14.5 34.5zM327 652q0 21 15 35t39 14q25 0 38.5 -13.5t13.5 -35.5q0 -21 -14.5 -34.5t-37.5 -13.5q-24 0 -39 13.5t-15 34.5zM143 308h273q-2 156 -124 156 q-41 0 -71.5 -16.5t-46 -43t-23 -50t-8.5 -46.5zM458 118l35 -60q-84 -70 -201 -70q-114 0 -178.5 69t-64.5 203q0 126 65.5 201.5t176.5 75.5q211 0 211 -255q0 -38 -1 -46h-358q2 -80 40 -126.5t116 -46.5q79 0 159 55z"/>
<glyph glyph-name="igrave" horiz-adv-x="247" unicode="ì" d="M167 523v-523h-87v523h87zM75 770l144 -137l-43 -50l-155 123z"/>
<glyph glyph-name="iacute" horiz-adv-x="247" unicode="í" d="M167 523v-523h-87v523h87zM26 633l144 137l54 -64l-155 -123z"/>
<glyph glyph-name="icircumflex" horiz-adv-x="247" unicode="î" d="M94 756h61l107 -147l-45 -32l-92 105l-92 -104l-48 32zM167 523v-523h-87v523h87z"/>
<glyph glyph-name="idieresis" horiz-adv-x="247" unicode="ï" d="M167 523v-523h-87v523h87zM-22 652q0 21 14.5 35t38.5 14q25 0 38.5 -13.5t13.5 -35.5q0 -20 -14.5 -34t-36.5 -14q-25 0 -39.5 13.5t-14.5 34.5zM176 652q0 21 15 35t39 14q25 0 38.5 -13.5t13.5 -35.5q0 -21 -14.5 -34.5t-37.5 -13.5q-24 0 -39 13.5t-15 34.5z"/>
<glyph glyph-name="eth" horiz-adv-x="535" unicode="ð" d="M260 63q68 0 106.5 55.5t38.5 164.5v8q-75 73 -146 73q-56 0 -92 -38t-36 -112q0 -73 36.5 -112t92.5 -39zM250 503l-38 54l66 45q-57 38 -141 54l23 66q109 -18 184 -75l80 54l39 -54l-69 -47q96 -111 96 -305q0 -144 -59.5 -225.5t-171.5 -81.5q-99 0 -157 59.5 t-58 164.5q0 99 52.5 163t145.5 64q96 0 163 -73q-14 122 -75 191z"/>
<glyph glyph-name="ntilde" horiz-adv-x="564" unicode="ñ" d="M384 707l48 -17q-15 -47 -35.5 -66.5t-51.5 -19.5q-25 0 -68.5 16t-55.5 16t-21 -7t-21 -28l-47 19q20 46 38.5 65t45.5 19q24 0 65.5 -16t60.5 -16q15 0 23 7t19 28zM74 525h76l6 -77q75 89 174 89q164 0 164 -193v-344h-89v322q0 135 -94 135q-46 0 -86 -26t-63 -54 v-377h-88v525z"/>
<glyph glyph-name="ograve" horiz-adv-x="588" unicode="ò" d="M244 770l144 -137l-43 -50l-155 123zM49 260q0 131 68 204t183 73q111 0 175 -71.5t64 -203.5q0 -129 -68.5 -201.5t-183.5 -72.5q-112 0 -175 71.5t-63 200.5zM142 262q0 -97 41 -146.5t109 -49.5t111 49.5t43 146.5q0 98 -42.5 147.5t-110.5 49.5t-109.5 -50.5 t-41.5 -146.5z"/>
<glyph glyph-name="oacute" horiz-adv-x="588" unicode="ó" d="M191 633l144 137l54 -64l-155 -123zM49 260q0 131 68 204t183 73q111 0 175 -71.5t64 -203.5q0 -129 -68.5 -201.5t-183.5 -72.5q-112 0 -175 71.5t-63 200.5zM142 262q0 -97 41 -146.5t109 -49.5t111 49.5t43 146.5q0 98 -42.5 147.5t-110.5 49.5t-109.5 -50.5 t-41.5 -146.5z"/>
<glyph glyph-name="ocircumflex" horiz-adv-x="588" unicode="ô" d="M254 756h61l107 -147l-45 -32l-92 105l-92 -104l-48 32zM49 260q0 131 68 204t183 73q111 0 175 -71.5t64 -203.5q0 -129 -68.5 -201.5t-183.5 -72.5q-112 0 -175 71.5t-63 200.5zM142 262q0 -97 41 -146.5t109 -49.5t111 49.5t43 146.5q0 98 -42.5 147.5t-110.5 49.5 t-109.5 -50.5t-41.5 -146.5z"/>
<glyph glyph-name="otilde" horiz-adv-x="588" unicode="õ" d="M389 707l48 -17q-15 -47 -35.5 -66.5t-51.5 -19.5q-25 0 -68.5 16t-55.5 16t-21 -7t-21 -28l-47 19q19 46 38 65t46 19q24 0 65.5 -16t60.5 -16q15 0 23 7t19 28zM49 260q0 131 68 204t183 73q111 0 175 -71.5t64 -203.5q0 -129 -68.5 -201.5t-183.5 -72.5 q-112 0 -175 71.5t-63 200.5zM142 262q0 -97 41 -146.5t109 -49.5t111 49.5t43 146.5q0 98 -42.5 147.5t-110.5 49.5t-109.5 -50.5t-41.5 -146.5z"/>
<glyph glyph-name="odieresis" horiz-adv-x="588" unicode="ö" d="M137 652q0 21 14.5 35t38.5 14q25 0 38.5 -13.5t13.5 -35.5q0 -20 -14.5 -34t-36.5 -14q-25 0 -39.5 13.5t-14.5 34.5zM335 652q0 21 15 35t39 14q25 0 38.5 -13.5t13.5 -35.5q0 -21 -14.5 -34.5t-37.5 -13.5q-24 0 -39 13.5t-15 34.5zM49 260q0 131 68 204t183 73 q111 0 175 -71.5t64 -203.5q0 -129 -68.5 -201.5t-183.5 -72.5q-112 0 -175 71.5t-63 200.5zM142 262q0 -97 41 -146.5t109 -49.5t111 49.5t43 146.5q0 98 -42.5 147.5t-110.5 49.5t-109.5 -50.5t-41.5 -146.5z"/>
<glyph glyph-name="divide" horiz-adv-x="600" unicode="÷" d="M299 176q20 0 34 -15t14 -35t-14 -34.5t-34 -14.5q-19 0 -33.5 15t-14.5 34q0 20 14.5 35t33.5 15zM40 264v65h520v-65h-520zM299 519q20 0 34 -14.5t14 -35.5q0 -20 -14 -34t-34 -14q-19 0 -33 14.5t-14 33.5q0 20 14 35t33 15z"/>
<glyph glyph-name="oslash" horiz-adv-x="588" unicode="ø" d="M142 262q0 -117 59 -166l112 362q-7 1 -20 1q-68 0 -109.5 -50.5t-41.5 -146.5zM446 262q0 121 -67 170l-113 -364q8 -2 26 -2q68 0 111 49.5t43 146.5zM49 260q0 131 68 204t183 73q13 0 37 -2l18 58h75l-24 -77q133 -61 133 -254q0 -129 -68.5 -201.5t-183.5 -72.5 q-17 0 -45 4l-21 -68h-74l27 88q-125 61 -125 248z"/>
<glyph glyph-name="ugrave" horiz-adv-x="560" unicode="ù" d="M228 770l144 -137l-43 -50l-155 123zM486 0h-74l-7 76q-73 -88 -172 -88q-90 0 -126.5 49t-36.5 136v352h89v-331q0 -64 22.5 -95t76.5 -31q74 0 141 77v380h87v-525z"/>
<glyph glyph-name="uacute" horiz-adv-x="560" unicode="ú" d="M185 633l144 137l54 -64l-155 -123zM486 0h-74l-7 76q-73 -88 -172 -88q-90 0 -126.5 49t-36.5 136v352h89v-331q0 -64 22.5 -95t76.5 -31q74 0 141 77v380h87v-525z"/>
<glyph glyph-name="ucircumflex" horiz-adv-x="560" unicode="û" d="M244 756h61l107 -147l-45 -32l-92 105l-92 -104l-48 32zM486 0h-74l-7 76q-73 -88 -172 -88q-90 0 -126.5 49t-36.5 136v352h89v-331q0 -64 22.5 -95t76.5 -31q74 0 141 77v380h87v-525z"/>
<glyph glyph-name="udieresis" horiz-adv-x="560" unicode="ü" d="M126 652q0 21 14.5 35t38.5 14q25 0 38.5 -13.5t13.5 -35.5q0 -20 -14.5 -34t-36.5 -14q-25 0 -39.5 13.5t-14.5 34.5zM324 652q0 21 15 35t39 14q25 0 38.5 -13.5t13.5 -35.5q0 -21 -14.5 -34.5t-37.5 -13.5q-24 0 -39 13.5t-15 34.5zM486 0h-74l-7 76q-73 -88 -172 -88 q-90 0 -126.5 49t-36.5 136v352h89v-331q0 -64 22.5 -95t76.5 -31q74 0 141 77v380h87v-525z"/>
<glyph glyph-name="yacute" horiz-adv-x="496" unicode="ý" d="M161 633l144 137l54 -64l-155 -123zM387 525h90l-188 -532q-18 -52 -27.5 -75.5t-25 -52.5t-30.5 -40t-38 -19t-54 -8q-45 0 -90 12l9 63q37 -8 71 -8q33 0 52.5 22t39.5 85l9 28l-186 525h94l137 -423z"/>
<glyph glyph-name="thorn" horiz-adv-x="584" unicode="þ" d="M155 -200h-88v920h87v-272q73 90 177 90q100 0 152.5 -72t52.5 -202q0 -129 -55 -202.5t-162 -73.5q-104 0 -164 74v-262zM155 375v-236q21 -30 61 -53t87 -23q140 0 140 198q0 201 -136 201q-82 0 -152 -87z"/>
<glyph glyph-name="OE" horiz-adv-x="1124" unicode="Œ" d="M151 368q0 -145 61.5 -220t169.5 -75q104 0 166.5 71t62.5 223q0 141 -62.5 210.5t-166.5 69.5q-107 0 -169 -73.5t-62 -205.5zM616 0v143q-31 -76 -97 -115.5t-153 -39.5q-140 0 -226.5 96.5t-86.5 283.5q0 176 88.5 270t230.5 94q83 0 149 -39.5t95 -110.5v138h451v-82 h-365v-230h332v-78h-332v-248h372v-82h-458z"/>
<glyph glyph-name="oe" horiz-adv-x="932" unicode="œ" d="M527 308h274q0 70 -29.5 113t-94.5 43q-41 0 -72 -16.5t-46.5 -42.5t-23 -50t-8.5 -47zM142 262q0 -97 41 -145.5t110 -48.5q68 0 110.5 48.5t42.5 145.5q0 98 -42.5 147.5t-110.5 49.5t-109.5 -50.5t-41.5 -146.5zM843 118l35 -60q-84 -70 -197 -70q-134 0 -196 108 q-59 -108 -200 -108q-111 0 -173.5 71.5t-62.5 200.5q0 131 67.5 204t181.5 73q67 0 115.5 -29.5t75.5 -80.5q28 49 76.5 79.5t114.5 30.5q206 0 206 -255q0 -37 -1 -45h-358q2 -79 41 -126.5t117 -47.5t158 55z"/>
<glyph glyph-name="Scaron" horiz-adv-x="582" unicode="Š" d="M328 765h-62l-106 111l41 37l96 -77l96 77l37 -37zM32 99l51 60q106 -93 206 -93q66 0 107 32.5t41 90.5q0 55 -33.5 84t-130.5 58q-119 36 -167 80.5t-48 124.5q0 94 65 145.5t169 51.5q142 0 235 -103l-51 -57q-78 82 -182 82q-62 0 -101 -28.5t-39 -80.5 q0 -55 38 -80.5t143 -60.5q110 -36 154.5 -81.5t44.5 -125.5q0 -97 -67 -153.5t-178 -56.5q-154 0 -257 111z"/>
<glyph glyph-name="scaron" horiz-adv-x="492" unicode="š" d="M267 582h-61l-109 146l48 32l92 -104l92 106l45 -33zM32 73l41 56q84 -67 166 -67q52 0 81.5 21t29.5 57q0 37 -24.5 55t-97.5 36q-91 23 -130.5 57.5t-39.5 95.5q0 71 52 112t138 41q115 0 193 -78l-41 -53q-69 60 -149 60q-47 0 -74 -19.5t-27 -53.5q0 -35 27 -52.5 t100 -36.5q91 -24 129.5 -58t38.5 -96q0 -75 -54.5 -118.5t-145.5 -43.5q-63 0 -119 23.5t-94 61.5z"/>
<glyph glyph-name="Ydieresis" horiz-adv-x="590" unicode="Ÿ" d="M148 825q0 21 14.5 35t38.5 14q25 0 38.5 -13.5t13.5 -35.5q0 -20 -14.5 -34t-36.5 -14q-25 0 -39.5 13.5t-14.5 34.5zM346 825q0 21 15 35t39 14q25 0 38.5 -13.5t13.5 -35.5q0 -21 -14.5 -34.5t-37.5 -13.5q-24 0 -39 13.5t-15 34.5zM246 0v301l-231 419h102l177 -327 l178 327h103l-236 -419v-301h-93z"/>
<glyph glyph-name="circumflex" d="M221 756h61l107 -147l-45 -32l-92 105l-92 -104l-48 32z" unicode="ˆ"/>
<glyph glyph-name="tilde" d="M355 707l48 -17q-15 -47 -35.5 -66.5t-51.5 -19.5q-25 0 -68.5 16t-55.5 16t-21 -7t-21 -28l-47 19q19 46 38 65t46 19q24 0 65.5 -16t60.5 -16q15 0 23 7t19 28z" unicode="˜"/>
<glyph glyph-name="uni0394" horiz-adv-x="675" unicode="Δ" d="M143 76h384l-191 549zM282 720h109l258 -720h-623z"/>
<glyph glyph-name="uni03BC" horiz-adv-x="575" unicode="μ" d="M491 0h-80v74q-42 -83 -135 -83q-73 0 -113 55v-246h-87v725h87v-328q0 -138 115 -138q53 0 84.5 32t40.5 75v359h88v-525z"/>
<glyph glyph-name="pi" horiz-adv-x="671" unicode="π" d="M36 451v74h599v-74h-86v-451h-88v451h-246v-451h-87v451h-92z"/>
<glyph glyph-name="endash" d="M0 234v64h500v-64h-500z" unicode="–"/>
<glyph glyph-name="emdash" horiz-adv-x="1000" unicode="—" d="M0 234v64h1000v-64h-1000z"/>
<glyph glyph-name="quoteleft" horiz-adv-x="208" unicode="‘" d="M166 589q0 -24 -16 -38.5t-43 -14.5q-31 0 -47 20t-16 52q0 97 101 145l19 -34q-36 -20 -48 -37.5t-14 -42.5q2 0 6 0.5t5 0.5q24 0 38.5 -14t14.5 -37z"/>
<glyph glyph-name="quotesinglbase" horiz-adv-x="208" unicode="‚" d="M41 30q0 24 16 38.5t43 14.5q31 0 47 -20t16 -52q0 -97 -101 -145l-19 34q36 20 48 37.5t14 42.5q-2 0 -6 -0.5t-5 -0.5q-24 0 -38.5 14t-14.5 37z"/>
<glyph glyph-name="quotedblleft" horiz-adv-x="365" unicode="“" d="M166 589q0 -24 -16 -38.5t-43 -14.5q-31 0 -47 20t-16 52q0 97 101 145l19 -34q-36 -20 -48 -37.5t-14 -42.5q2 0 6 0.5t5 0.5q24 0 38.5 -14t14.5 -37zM323 589q0 -24 -16 -38.5t-43 -14.5q-31 0 -47 20t-16 52q0 97 101 145l19 -34q-36 -20 -48 -37.5t-14 -42.5 q2 0 6 0.5t5 0.5q24 0 38.5 -14t14.5 -37z"/>
<glyph glyph-name="quotedblright" horiz-adv-x="365" unicode="”" d="M198 668q0 24 16 38.5t43 14.5q31 0 47 -20t16 -52q0 -97 -101 -145l-19 34q36 20 48 37.5t14 42.5q-2 0 -6 -0.5t-5 -0.5q-24 0 -38.5 14t-14.5 37zM41 668q0 24 16 38.5t43 14.5q31 0 47 -20t16 -52q0 -97 -101 -145l-19 34q36 20 48 37.5t14 42.5q-2 0 -6 -0.5 t-5 -0.5q-24 0 -38.5 14t-14.5 37z"/>
<glyph glyph-name="dagger" horiz-adv-x="502" unicode="†" d="M292 -105h-82v546h-167v72h167v206h82v-206h167v-72h-167v-546z"/>
<glyph glyph-name="daggerdbl" horiz-adv-x="501" unicode="‡" d="M291 -105h-81v204h-167v72h167v270h-167v72h167v206h81v-206h167v-72h-167v-270h167v-72h-167v-204z"/>
<glyph glyph-name="ellipsis" horiz-adv-x="818" unicode="…" d="M350 46q0 29 18 45.5t48 16.5q28 0 46 -16t18 -44q0 -27 -18 -43.5t-46 -16.5q-30 0 -48 16t-18 42zM618 46q0 29 18 45.5t48 16.5q28 0 46 -16t18 -44q0 -27 -18 -43.5t-46 -16.5q-30 0 -48 16t-18 42zM82 46q0 29 18 45.5t48 16.5q28 0 46 -16t18 -44q0 -27 -18 -43.5 t-46 -16.5q-30 0 -48 16t-18 42z"/>
<glyph glyph-name="perthousand" horiz-adv-x="1134" unicode="‰" d="M927 257q-41 0 -68 -28.5t-27 -71.5t25.5 -71t69.5 -28q42 0 68 28t26 71q0 42 -26.5 71t-67.5 29zM570 157q0 -43 27 -71t69 -28t68 28t26 71q0 42 -26.5 71t-67.5 29q-42 0 -69 -28.5t-27 -71.5zM111 553q0 -44 27 -71.5t69 -27.5t68 28t26 71q0 44 -26 72t-68 28 t-69 -28.5t-27 -71.5zM181 0l438 720h78l-439 -720h-77zM41 552q0 70 46.5 116.5t119.5 46.5q72 0 119 -45.5t47 -116.5q0 -68 -48 -115t-118 -47q-74 0 -120 44.5t-46 116.5zM500 155q0 70 47 117t119 47q86 0 131 -72q45 72 137 72q68 0 113.5 -46.5t45.5 -115.5 q0 -68 -46 -115t-110 -47q-99 0 -142 70q-47 -70 -131 -70q-73 0 -118.5 45t-45.5 115z"/>
<glyph glyph-name="guilsinglleft" horiz-adv-x="269" unicode="‹" d="M242 378l-105 -117l105 -116l-49 -45l-152 143v35l153 145z"/>
<glyph glyph-name="guilsinglright" horiz-adv-x="269" unicode="›" d="M132 261l-105 117l48 45l153 -145v-35l-152 -143l-49 45z"/>
<glyph glyph-name="fraction" horiz-adv-x="130" unicode="⁄" d="M-195 -1l438 721h74l-438 -721h-74z"/>
<glyph glyph-name="Euro" horiz-adv-x="607" unicode="€" d="M4 388l5 64h72q17 110 92 189t190 79q64 0 124.5 -28t101.5 -90l-51 -43q-73 89 -175 89q-77 0 -127 -53.5t-68 -142.5h321l-5 -64h-323q-1 -12 -1 -32q0 -15 2 -47h316l-5 -64h-302q20 -86 70.5 -134t122.5 -48q97 0 181 74l43 -49q-100 -100 -234 -100 q-110 0 -180 71.5t-91 185.5h-89l4 64h77q-2 16 -2 46q0 20 1 33h-70z"/>
<glyph glyph-name="trademark" horiz-adv-x="620" unicode="™" d="M114 460v217h-85v43h216v-43h-86v-217h-45zM577 460h-43l-19 189l-73 -189h-33l-70 189l-19 -189h-44l28 260h51l72 -195l72 195h48z"/>
<glyph glyph-name="arrowleft" d="M500 296v-68h-382l108 -106l-45 -42l-181 181v2l180 181l45 -41l-107 -107h382z" unicode="←"/>
<glyph glyph-name="arrowright" d="M0 228v68h382l-107 107l45 41l180 -181v-2l-181 -181l-45 42l108 106h-382z" unicode="→"/>
<glyph glyph-name="arrowdown" d="M217 512h67v-386l106 107l42 -40l-181 -181l-184 180l42 40l108 -106v386z" unicode="↓"/>
<glyph glyph-name="partialdiff" horiz-adv-x="597" unicode="∂" d="M252 60q71 0 111.5 51t40.5 115q0 67 -32 106.5t-85 39.5q-71 0 -108 -55t-37 -129q0 -64 30 -96t80 -32zM240 -12q-86 0 -135 51.5t-49 140.5q0 111 59 186t162 75q55 0 100.5 -33.5t54.5 -93.5q7 75 7 116q0 101 -31.5 150.5t-103.5 49.5t-139 -38l-27 54q80 55 174 55 q207 0 207 -266q0 -62 -7 -120t-27 -119t-50 -106t-80.5 -73.5t-114.5 -28.5z"/>
<glyph glyph-name="product" horiz-adv-x="699" unicode="∏" d="M79 -140v860h541v-860h-93v782h-355v-782h-93z"/>
<glyph glyph-name="summation" horiz-adv-x="582" unicode="∑" d="M519 637h-356l215 -319l-223 -355h399v-82h-528v40l245 395l-245 364v40h493v-83z"/>
<glyph glyph-name="minus" horiz-adv-x="600" unicode="−" d="M560 329v-65h-520v65h520z"/>
<glyph glyph-name="radical" horiz-adv-x="731" unicode="√" d="M36 246v66h197l126 -371l297 883h81l-336 -990h-85l-145 412h-135z"/>
<glyph glyph-name="infinity" horiz-adv-x="769" unicode="∞" d="M352 303q-38 51 -70 74.5t-68 23.5q-47 0 -70.5 -28t-23.5 -70t24.5 -68.5t69.5 -26.5q67 0 138 95zM650 307q0 42 -21.5 68.5t-65.5 26.5q-36 0 -64 -21.5t-73 -76.5q78 -94 142 -94q39 0 60.5 29t21.5 68zM715 313q0 -73 -40 -118t-99 -45q-31 0 -58.5 9t-54 29.5 t-38.5 32t-37 37.5q-94 -108 -181 -108q-69 0 -110.5 40t-41.5 112q0 70 42.5 114.5t113.5 44.5q54 0 94.5 -29t83.5 -85q35 39 56.5 59t56.5 38t72 18q67 0 104 -42.5t37 -106.5z"/>
<glyph glyph-name="approxequal" horiz-adv-x="744" unicode="≈" d="M670 469l48 -63q-110 -98 -214 -98q-52 0 -140 35.5t-130 35.5q-32 0 -62.5 -10.5t-49.5 -22.5t-52 -36l-46 67q115 93 217 93q47 0 134 -36.5t124 -36.5q75 0 171 72zM667 262l48 -63q-110 -98 -214 -98q-51 0 -139 35.5t-131 35.5q-32 0 -62.5 -10.5t-49.5 -22.5 t-52 -36l-46 67q115 93 217 93q47 0 134 -36.5t124 -36.5q75 0 171 72z"/>
<glyph glyph-name="notequal" horiz-adv-x="600" unicode="≠" d="M560 235v-61h-287l-105 -174h-75l106 174h-159v61h196l62 103h-258v61h295l76 124h74l-75 -124h150v-61h-187l-63 -103h250z"/>
<glyph glyph-name="lessequal" horiz-adv-x="600" unicode="≤" d="M534 113l-493 216v45l492 216l26 -64l-406 -174l406 -174zM560 65v-65h-520v65h520z"/>
<glyph glyph-name="greaterequal" horiz-adv-x="600" unicode="≥" d="M558 329l-493 -216l-25 65l406 174l-406 174l26 64l492 -216v-45zM39 0v65h520v-65h-520z"/>
<glyph glyph-name="lozenge" horiz-adv-x="615" unicode="◊" d="M304 623l-145 -271l145 -274l152 274zM270 0l-192 352l192 348h68l199 -346l-199 -354h-68z"/>
</font>
</defs>
</svg>
