<?xml version="1.0" encoding="UTF-8" standalone="no"?>
<!DOCTYPE svg  PUBLIC '-//W3C//DTD SVG 1.1//EN'  'http://www.w3.org/Graphics/SVG/1.1/DTD/svg11.dtd'>
<svg xmlns="http://www.w3.org/2000/svg">
<defs>
<font id="MinionPro-Bold" horiz-adv-x="500">
<font-face underline-position="-50" font-weight="700" descent="-200" panose-1="2 4 7 3 6 3 6 2 2 3" units-per-em="1000" unicode-range="U+0020-25CA" bbox="-132 -262 1054 917" x-height="442" underline-thickness="50" font-family="MinionPro" ascent="800" cap-height="650"/>
<missing-glyph horiz-adv-x="1000"/>
<glyph glyph-name=".notdef" horiz-adv-x="1000"/>
<glyph glyph-name=".null" horiz-adv-x="0"/>
<glyph glyph-name="nonmarkingreturn" horiz-adv-x="333"/>
<glyph glyph-name="space" horiz-adv-x="217" unicode=" "/>
<glyph glyph-name="exclam" horiz-adv-x="285" unicode="!" d="M142 -12q-33 0 -54 22t-21 57q0 34 21.5 56t53.5 22q33 0 55 -22t22 -56q0 -35 -22 -57t-55 -22zM141 665q82 0 82 -43q0 -11 -10 -73q-23 -131 -49 -330q-2 -9 -24 -9q-20 0 -22 9q-26 199 -49 330q-10 53 -10 73q0 43 82 43z"/>
<glyph glyph-name="quotedbl" horiz-adv-x="380" unicode='&quot;' d="M331 708l9 -7q-4 -69 -37 -260l-37 -19q-7 37 -18.5 102.5t-18.5 104t-10 45.5zM148 708l9 -7q-2 -29 -36 -260l-38 -19q-43 243 -47 252z"/>
<glyph glyph-name="numbersign" d="M313 387h-96l-30 -121h97zM468 469l-11 -82h-95l-30 -121h84l-13 -82h-90l-41 -169h-49l41 169h-97l-40 -169h-50l40 169h-96l11 82h105l29 121h-90l10 82h99l35 145h51l-35 -145h96l35 145h49l-35 -145h87z" unicode="#"/>
<glyph glyph-name="dollar" d="M275 247v-194q37 6 59.5 30.5t22.5 67.5q0 56 -68 89zM234 397v178q-39 -6 -59.5 -30.5t-20.5 -56.5q0 -58 80 -91zM275 381l38 -14q149 -57 149 -169q-1 -78 -51 -127t-136 -59v-83h-41v80q-97 1 -165 42q-9 29 -27 142l32 6q53 -138 160 -148v210l-30 13 q-148 59 -148 165q0 69 47 116.5t131 58.5v75h41v-72q51 0 92 -13q18 -5 37 -8q17 -87 23 -134l-33 -5q-14 47 -40.5 79t-78.5 39v-194z" unicode="$"/>
<glyph glyph-name="percent" horiz-adv-x="764" unicode="%" d="M570 302q-31 0 -44.5 -43t-13.5 -94t13.5 -96t45.5 -45q31 0 43.5 45t12.5 95q0 52 -12.5 95t-44.5 43zM570 338q75 0 115 -54.5t40 -120.5q0 -67 -39.5 -121t-115.5 -54q-75 0 -115.5 54.5t-40.5 119.5q0 67 40.5 121.5t115.5 54.5zM198 599q-31 0 -45 -44.5t-14 -92.5 q0 -50 14 -95.5t45 -45.5t43.5 45t12.5 95q0 138 -56 138zM196 635q75 0 115.5 -54.5t40.5 -119.5q0 -67 -40 -121.5t-116 -54.5q-74 0 -114.5 55t-40.5 120q0 41 15.5 79.5t52 67t87.5 28.5zM601 624l-409 -662l-37 27l409 661z"/>
<glyph glyph-name="ampersand" horiz-adv-x="715" unicode="&amp;" d="M300 77q32 0 65.5 17t53.5 41q-71 72 -210 193q-42 -45 -42 -110q0 -68 39 -104.5t94 -36.5zM289 625q-29 0 -48.5 -26.5t-19.5 -62.5t21.5 -65.5t73.5 -70.5q50 42 50 123q0 42 -20.5 72t-56.5 30zM732 426v-34q-46 -5 -69 -18t-50 -49q-13 -16 -84 -117 q95 -92 173 -210l-6 -12q-67 0 -113.5 12t-58.5 24q-2 2 -29.5 32t-49.5 51q-91 -119 -193 -119q-96 0 -152.5 57.5t-56.5 128.5q0 31 8 54t30 46t41 38t61 44q-67 65 -67 142q0 67 54 117t128 50q75 0 122.5 -41t47.5 -104q0 -47 -43 -82q-27 -24 -80 -59q73 -63 156 -140 q26 39 49 86q10 23 10 34q0 15 -14.5 22.5t-50.5 12.5v34h237z"/>
<glyph glyph-name="quotesingle" horiz-adv-x="199" unicode="&apos;" d="M148 708l9 -7q-3 -54 -36 -260l-38 -19q-42 234 -49 252z"/>
<glyph glyph-name="parenleft" horiz-adv-x="352" unicode="(" d="M314 -145l-27 -27q-211 152 -211 444q0 289 211 442l27 -27q-68 -68 -105.5 -177.5t-37.5 -238.5q0 -128 39.5 -242t103.5 -174z"/>
<glyph glyph-name="parenright" horiz-adv-x="352" unicode=")" d="M38 689l26 25q211 -154 211 -443q0 -290 -211 -443l-26 26q67 65 104.5 176.5t37.5 240.5q0 127 -40 242t-102 176z"/>
<glyph glyph-name="asterisk" horiz-adv-x="405" unicode="*" d="M372 483l-131 -28l34 -137l-27 -12l-72 128l-123 -74l-18 26l100 96l-104 105l19 25l122 -79l60 132l29 -7l-24 -140l134 -6z"/>
<glyph glyph-name="plus" horiz-adv-x="577" unicode="+" d="M531 221h-204v-221h-75v221h-205v65h205v200h75v-200h204v-65z"/>
<glyph glyph-name="comma" horiz-adv-x="254" unicode="," d="M101 161q41 0 78.5 -36.5t37.5 -90.5q0 -64 -49.5 -107t-119.5 -60l-13 35q90 37 90 97q0 26 -19 46.5t-54 27.5q-14 7 -14 36q0 23 18.5 37.5t44.5 14.5z"/>
<glyph glyph-name="hyphen" horiz-adv-x="342" unicode="-" d="M302 265l-16 -72h-245l15 72h246z"/>
<glyph glyph-name="period" horiz-adv-x="254" unicode="." d="M126 -12q-31 0 -52 21.5t-21 54.5t21 54.5t52 21.5q32 0 53.5 -21.5t21.5 -54.5q0 -34 -21.5 -55t-53.5 -21z"/>
<glyph glyph-name="slash" horiz-adv-x="327" unicode="/" d="M304 665l-216 -710h-70l216 710h70z"/>
<glyph glyph-name="zero" d="M249 594q-84 0 -84 -279q0 -118 21 -202t66 -84q83 0 83 285q0 120 -20.5 200t-65.5 80zM250 635q60 0 105 -29.5t69 -78.5t35.5 -103t11.5 -112q0 -59 -11.5 -113t-35.5 -103t-69 -78.5t-105 -29.5t-105 29.5t-69.5 78.5t-36 103t-11.5 112q0 46 7 90.5t24 87.5t41.5 75 t63 51.5t86.5 19.5z" unicode="0"/>
<glyph glyph-name="one" d="M409 0h-307v34q58 4 73 20t15 71v363q0 39 -7.5 49.5t-37.5 12.5l-51 4v29q84 13 228 52v-510q0 -54 14.5 -70.5t72.5 -20.5v-34z" unicode="1"/>
<glyph glyph-name="two" d="M440 175l33 -12q-9 -32 -22 -89.5t-17 -73.5h-401v26q120 118 160 165q110 130 110 234q0 53 -27.5 86t-77.5 33q-72 0 -134 -89l-29 24l64 94q64 62 151 62q77 0 129.5 -48.5t52.5 -129.5q0 -58 -32 -110.5t-108 -124.5l-120 -114h163q46 0 62 9.5t43 57.5z" unicode="2"/>
<glyph glyph-name="three" d="M82 482l-26 24l49 67q58 62 143 62q76 0 119.5 -37.5t43.5 -97.5q0 -38 -32 -67q-20 -17 -74 -51v-2q71 -12 110 -56t39 -102q0 -57 -34.5 -104.5t-83 -74t-92 -41t-70.5 -14.5q-71 0 -112 33q-23 19 -23 40q0 24 29 46q10 8 20 8t18 -7l7 -6q7 -6 9.5 -8l10 -8t11.5 -9 t12 -8t14 -8t14.5 -6.5t16 -5.5t16 -3.5t17.5 -1.5q40 0 65 34t25 101q0 66 -36.5 98t-83.5 32q-28 0 -54 -7l-7 34q144 48 144 130q0 46 -24.5 68.5t-61.5 22.5q-65 0 -119 -75z" unicode="3"/>
<glyph glyph-name="four" d="M269 231v262h-2q-94 -130 -177 -262h179zM486 174h-90v-63q0 -46 13 -59t68 -18v-34h-298v34q61 5 75.5 19.5t14.5 62.5v58h-254v41q181 256 309 414h72v-398h90v-57z" unicode="4"/>
<glyph glyph-name="five" d="M152 515l-27 -154q85 33 129 33q92 0 146 -50t54 -118q0 -99 -101 -170q-91 -66 -187 -68q-65 0 -104 32q-24 19 -24 41q0 11 9.5 26t22.5 25q8 5 14 5q9 0 22 -11q67 -61 129 -61q45 0 68.5 35.5t23.5 93.5q0 67 -40 107.5t-108 40.5q-52 0 -109 -19l45 320h317l6 -10 l-32 -98h-254z" unicode="5"/>
<glyph glyph-name="six" d="M235 331q-32 0 -63 -11q-6 -26 -6 -80q0 -95 32.5 -153t74.5 -58q41 1 58.5 42.5t17.5 99.5q0 71 -32 115.5t-82 44.5zM179 359l50 24q43 19 59 19q86 0 139 -51t53 -136q0 -95 -65 -161t-163 -66q-96 0 -160 69.5t-64 185.5q0 76 24.5 140.5t65.5 108.5t85 72.5t91 44.5 q59 20 149 32l7 -38q-57 -12 -107 -36q-130 -66 -164 -208z" unicode="6"/>
<glyph glyph-name="seven" d="M476 623l9 -12q-26 -55 -90 -188t-110 -232t-87 -191l-103 -12l-8 13q151 224 304 514h-213q-50 0 -66.5 -10.5t-37.5 -55.5h-35q8 46 17 106t10 68h410z" unicode="7"/>
<glyph glyph-name="eight" d="M258 28q42 0 67.5 28.5t25.5 77.5q0 51 -31 79t-116 74q-23 -17 -37.5 -48.5t-14.5 -69.5q0 -67 32.5 -104t73.5 -37zM247 595q-34 0 -54.5 -27t-20.5 -61q0 -47 31.5 -76.5t97.5 -60.5q37 35 37 105q0 59 -28 89.5t-63 30.5zM261 635q82 0 133 -44t51 -111 q0 -42 -33 -74q-35 -31 -73 -55q63 -34 98 -73.5t35 -99.5q0 -88 -70 -139t-153 -51q-98 0 -157.5 46t-59.5 123q0 48 42 88q26 23 93 61q-110 61 -110 155q0 73 57.5 123.5t146.5 50.5z" unicode="8"/>
<glyph glyph-name="nine" d="M233 595q-38 0 -57.5 -40.5t-19.5 -94.5q0 -66 33 -113t86 -47q25 0 55 13q5 35 5 74q0 85 -24.5 146.5t-77.5 61.5zM252 635q105 0 162 -72t57 -181q0 -131 -68 -225.5t-179 -138.5q-30 -12 -83.5 -22t-87.5 -11l-6 36q108 19 182.5 89.5t93.5 163.5l-48 -25 q-33 -18 -58 -18q-87 0 -140 54t-53 135q0 35 14.5 71.5t42 69t72.5 53.5t99 21z" unicode="9"/>
<glyph glyph-name="colon" horiz-adv-x="254" unicode=":" d="M127 -12q-31 0 -51.5 21.5t-20.5 54.5t20.5 54t51.5 21q32 0 53 -21t21 -54q0 -34 -21 -55t-53 -21zM128 419q32 0 52.5 -21.5t20.5 -55.5q0 -32 -20.5 -53t-52.5 -21t-52.5 21t-20.5 53q0 34 20.5 55.5t52.5 21.5z"/>
<glyph glyph-name="semicolon" horiz-adv-x="254" unicode=";" d="M102 161q41 0 78.5 -36.5t37.5 -90.5q0 -65 -49.5 -107.5t-120.5 -59.5l-9 35q87 38 87 97q0 26 -19 46.5t-54 27.5q-4 1 -9 11t-5 25q0 23 18.5 37.5t44.5 14.5zM128 419q32 0 52.5 -21.5t20.5 -55.5q0 -32 -20.5 -53t-52.5 -21t-52.5 21t-20.5 53q0 34 20.5 55.5 t52.5 21.5z"/>
<glyph glyph-name="less" horiz-adv-x="548" unicode="&lt;" d="M497 0l-444 219v68l444 219v-71l-371 -181v-2l371 -182v-70z"/>
<glyph glyph-name="equal" horiz-adv-x="577" unicode="=" d="M531 130h-484v65h484v-65zM531 313h-484v65h484v-65z"/>
<glyph glyph-name="greater" horiz-adv-x="548" unicode="&gt;" d="M497 219l-444 -219v70l371 182v2l-371 181v71l444 -219v-68z"/>
<glyph glyph-name="question" horiz-adv-x="399" unicode="?" d="M189 -12q-33 0 -54.5 22t-21.5 57q0 33 22 55.5t54 22.5q33 0 55 -22.5t22 -55.5q0 -35 -22 -57t-55 -22zM228 226l-22 -24q-48 18 -87.5 54.5t-39.5 79.5q0 60 97 122q87 54 101 70q9 10 9 18q0 37 -46 37q-29 0 -59 -17.5t-50.5 -35.5t-26.5 -18q-18 0 -38 21.5 t-20 46.5q0 22 23 43q22 20 56 31t57 11q66 0 123 -54t57 -122q0 -34 -11.5 -58t-47.5 -48q-6 -4 -23.5 -16t-28 -20t-24 -19t-20 -21.5t-6.5 -20.5q0 -27 27 -60z"/>
<glyph glyph-name="at" horiz-adv-x="766" unicode="@" d="M422 376q-32 0 -57 -28q-19 -21 -33 -64t-15 -87v-6q0 -43 19 -43q14 0 45.5 28.5t59.5 77.5q18 52 30 109q-24 13 -49 13zM552 -16l13 -30q-88 -54 -194 -54q-134 0 -225 81t-90 228q0 112 55 197.5t140 128t184 42.5q133 0 211.5 -74t78.5 -179q0 -106 -70.5 -179 t-178.5 -73q-30 0 -42 10t-12 31q0 7 4 31l8 46l-2 1q-28 -40 -77.5 -79.5t-85.5 -39.5q-22 0 -37 23.5t-14 66.5q4 106 79 183q31 32 79 53.5t95 21.5q15 0 55 -8q13 -4 36 -4q-22 -79 -48 -221q-5 -27 -5 -39q0 -26 17 -26h1q53 0 97.5 52t44.5 147q0 100 -66 156.5 t-167 56.5q-132 0 -217.5 -91.5t-85.5 -229.5q0 -49 15 -94t45 -83.5t83.5 -62t122.5 -23.5q90 0 153 34z"/>
<glyph glyph-name="A" horiz-adv-x="706" unicode="A" d="M390 266l-74 216h-3q-12 -32 -25.5 -68.5t-29 -80t-24.5 -67.5h156zM687 0h-286v35q31 5 43.5 12t12.5 21q0 10 -8 32q-14 41 -40 113h-192q-25 -71 -36 -107q-7 -24 -7 -34q0 -17 14.5 -25t53.5 -12v-35h-224l1 35q50 6 68 23t43 80l205 514l51 13q177 -483 191 -521 q26 -66 44.5 -84.5t65.5 -24.5v-35z"/>
<glyph glyph-name="B" horiz-adv-x="637" unicode="B" d="M253 323v-187q0 -53 15.5 -73.5t53.5 -20.5h4q48 1 83.5 36.5t35.5 103.5q0 141 -172 141h-20zM253 363h23q72 0 105.5 29.5t33.5 91.5q0 63 -31.5 93.5t-76.5 30.5q-33 0 -45 -12q-9 -9 -9 -43v-190zM401 353v-4q193 -23 193 -156q0 -99 -94 -150q-76 -43 -211 -43h-254 v35q58 5 72 20.5t14 78.5v382q0 63 -13 78.5t-67 20.5v35h292q112 0 165 -35q59 -38 59 -114q0 -65 -45.5 -100t-110.5 -48z"/>
<glyph glyph-name="C" horiz-adv-x="676" unicode="C" d="M625 186l35 -16q-27 -99 -56 -159q-113 -26 -186 -26q-96 0 -170.5 29t-118.5 77.5t-66 106t-22 119.5q0 155 109.5 251.5t287.5 96.5q61 0 182 -27q15 -91 23 -164l-37 -7q-43 154 -187 154q-104 0 -164.5 -83.5t-60.5 -200.5q0 -137 66 -221t169 -84q118 0 196 154z "/>
<glyph glyph-name="D" horiz-adv-x="761" unicode="D" d="M255 540v-400q0 -56 17 -76.5t68 -20.5q102 0 164 78t62 210q0 142 -74 216q-64 62 -163 62q-49 0 -63 -14q-11 -11 -11 -55zM41 650h301q196 0 287 -87q88 -84 88 -212q0 -171 -125 -268q-110 -83 -303 -83h-257v35q60 5 74.5 20.5t14.5 78.5v382q0 63 -13 78.5 t-67 20.5v35z"/>
<glyph glyph-name="E" horiz-adv-x="581" unicode="E" d="M536 173l35 -7q-9 -70 -35 -166h-510v35q65 5 80 20t15 78v384q0 64 -13 78.5t-68 19.5v35h471q0 -8 2 -31.5t4 -58t4 -60.5l-36 -5q-18 63 -41 86q-24 25 -100 25h-48q-28 0 -34.5 -5.5t-6.5 -29.5v-212h67q64 0 82.5 11.5t28.5 63.5h36v-202h-36q-10 53 -28 64.5 t-83 11.5h-67v-173q0 -70 24 -82q23 -10 90 -10q80 0 111 32q27 32 56 98z"/>
<glyph glyph-name="F" horiz-adv-x="554" unicode="F" d="M524 498l-35 -7q-18 61 -40 86q-28 29 -104 29h-50q-27 0 -33 -5.5t-6 -29.5v-221h81q66 0 84 12t27 61h36v-199h-36q-8 51 -26 63.5t-85 12.5h-81v-158q0 -70 14.5 -86t80.5 -21v-35h-312v35q56 5 69.5 21.5t13.5 85.5v369q0 66 -13.5 82t-69.5 21v36h474q5 -77 11 -152 z"/>
<glyph glyph-name="G" horiz-adv-x="727" unicode="G" d="M703 310v-34q-38 -8 -47 -20t-9 -61v-79q0 -63 6 -94q-148 -37 -228 -37q-174 0 -277.5 91t-103.5 241q0 110 55.5 190.5t144 119t196.5 38.5q69 0 195 -28q4 -52 16 -166l-37 -7q-18 80 -69 119.5t-125 39.5q-94 0 -159 -78.5t-65 -209.5q0 -79 24.5 -147t80 -114.5 t133.5 -46.5q39 0 56 12q23 14 23 55v95q0 30 -2 42.5t-14 23.5t-32 14t-62 7v34h300z"/>
<glyph glyph-name="H" horiz-adv-x="783" unicode="H" d="M746 650v-35q-59 -5 -71.5 -19.5t-12.5 -78.5v-385q0 -62 13 -77t71 -20v-35h-305v35q60 5 73.5 20t13.5 78v186h-273v-186q0 -63 13 -78t69 -20v-35h-298v35q56 5 69 20t13 78v384q0 63 -13.5 78t-72.5 20v35h300v-35q-55 -5 -67.5 -20t-12.5 -78v-147h273v147 q0 63 -13 78t-69 20v35h300z"/>
<glyph glyph-name="I" horiz-adv-x="378" unicode="I" d="M338 0h-300v35q56 5 69.5 20.5t13.5 77.5v383q0 63 -13.5 78.5t-69.5 20.5v35h300v-35q-56 -5 -69.5 -20.5t-13.5 -78.5v-383q0 -62 13.5 -77.5t69.5 -20.5v-35z"/>
<glyph glyph-name="J" horiz-adv-x="366" unicode="J" d="M338 650v-35q-53 -5 -66 -20.5t-13 -78.5v-330q0 -102 -19.5 -168.5t-82.5 -118.5q-53 -45 -122 -62l-15 37q80 34 94 121q11 68 11 195v326q0 63 -14 78.5t-72 20.5v35h299z"/>
<glyph glyph-name="K" horiz-adv-x="703" unicode="K" d="M699 0h-201q-86 118 -197 279q-24 35 -44 35h-5v-180q0 -63 14 -78.5t72 -20.5v-35h-299v35q55 5 68.5 20.5t13.5 78.5v382q0 63 -13.5 78.5t-70.5 20.5v35h294v-35q-54 -5 -66.5 -20.5t-12.5 -78.5v-170q34 10 76 53q77 77 140 161q15 20 15 31q0 15 -40 21l-18 3v35 h260v-35q-50 -5 -84.5 -19.5t-73.5 -50.5q-27 -24 -50 -48t-55 -58t-41 -43q98 -145 210 -287q30 -38 53.5 -53.5t54.5 -20.5v-35z"/>
<glyph glyph-name="L" horiz-adv-x="551" unicode="L" d="M513 180l35 -11q-24 -124 -37 -169h-487v35q66 5 81.5 20.5t15.5 77.5v383q0 63 -14 78.5t-72 20.5v35h306v-35q-59 -5 -72.5 -20t-13.5 -79v-390q0 -37 5 -52t20 -22q22 -9 75 -9q72 0 102 34q29 32 56 103z"/>
<glyph glyph-name="M" horiz-adv-x="888" unicode="M" d="M860 0h-296v35q54 6 67 20t13 72v15l-2 385h-5l-221 -520h-28l-204 510h-4l-12 -261q-3 -63 -3 -100t3 -61q3 -33 21 -44t69 -16v-35h-240v35q41 4 58.5 17.5t22.5 40.5q13 70 21 189l16 197q2 22 2 55q0 47 -16.5 61.5t-70.5 19.5v35h207l193 -438l196 438h201v-35 q-55 -5 -68.5 -17.5t-13.5 -57.5v-24l9 -374q2 -69 14.5 -85t70.5 -22v-35z"/>
<glyph glyph-name="N" horiz-adv-x="740" unicode="N" d="M724 650v-35q-41 -2 -58.5 -15t-21.5 -47q-9 -93 -9 -166v-397h-48l-416 498h-3v-225q0 -82 8 -162q4 -35 23.5 -49.5t72.5 -16.5v-35h-245v35q42 3 61 17t22 46q10 82 10 165v209q0 51 -3.5 70.5t-17.5 36.5q-23 30 -83 36v35h185l382 -439h4v176q0 48 -8 164 q-4 33 -24.5 47t-74.5 17v35h244z"/>
<glyph glyph-name="O" horiz-adv-x="766" unicode="O" d="M375 623q-78 0 -129 -76.5t-51 -203.5q0 -133 55.5 -224.5t148.5 -91.5q75 0 123.5 72t48.5 205q0 147 -54 233t-142 86zM393 665q139 0 235 -93.5t96 -239.5q0 -158 -98.5 -252.5t-244.5 -94.5q-149 0 -244 97t-95 242q0 138 94 239.5t257 101.5z"/>
<glyph glyph-name="P" horiz-adv-x="599" unicode="P" d="M253 570v-260q24 -10 54 -10q17 0 34.5 6.5t37.5 22.5t32.5 50.5t12.5 81.5q0 78 -36.5 114t-88.5 36q-25 0 -37 -10q-9 -9 -9 -31zM43 650h275q121 0 175 -39q74 -50 74 -147q0 -94 -58 -145.5t-146 -62.5q-15 -2 -42 -2l-68 16v-137q0 -63 15 -78.5t80 -20.5v-34h-311 v34q57 5 70.5 20.5t13.5 78.5v383q0 63 -12.5 78t-65.5 21v35z"/>
<glyph glyph-name="Q" horiz-adv-x="758" unicode="Q" d="M358 30l82 26q6 -4 26 -19q41 17 73 85.5t32 180.5q0 148 -54.5 234t-144.5 86q-80 0 -128.5 -80t-48.5 -201q0 -119 43 -204.5t120 -107.5zM735 -137l-9 -27q-21 -4 -50 -4q-52 0 -97 12q-82 20 -236 143q-51 3 -111.5 30t-100.5 70q-89 97 -89 232q0 91 38.5 168 t120 127.5t192.5 50.5q139 0 235 -93.5t96 -238.5q0 -121 -63.5 -208.5t-157.5 -116.5q136 -96 232 -145z"/>
<glyph glyph-name="R" horiz-adv-x="659" unicode="R" d="M252 319h26q68 0 98 27q48 40 48 119q0 73 -35 109t-83 36q-35 0 -45 -10q-9 -8 -9 -37v-244zM660 23l-6 -32q-2 0 -12.5 0.5t-17.5 0.5q-90 4 -131.5 25.5t-73.5 71.5l-82 147q-22 43 -66 44h-19v-146q0 -61 14 -77.5t71 -21.5v-35h-302v35q57 5 71.5 21.5t14.5 77.5 v384q0 60 -13.5 76t-68.5 21v35h281q124 0 178 -38q68 -44 68 -133q0 -111 -125 -163q28 -58 81 -142q57 -87 77 -108q31 -33 61 -43z"/>
<glyph glyph-name="S" horiz-adv-x="505" unicode="S" d="M442 495l-34 -8q-46 137 -140 137q-42 0 -69.5 -28t-27.5 -71q0 -40 28 -68.5t96 -62.5q87 -42 132 -89.5t45 -116.5q0 -87 -67.5 -145t-175.5 -58q-54 0 -101 14q-29 8 -61 22q-14 39 -29 170l35 11q12 -38 32.5 -75t59.5 -69t83 -32q46 0 73 29t27 76q0 42 -29 73 t-90 63q-87 44 -130.5 89.5t-43.5 112.5q0 85 62.5 140.5t166.5 55.5q70 0 139 -27q2 -21 9 -70t10 -73z"/>
<glyph glyph-name="T" horiz-adv-x="641" unicode="T" d="M616 481l-36 -2q-18 77 -44 103q-23 24 -101 24h-46v-473q0 -63 15.5 -78t82.5 -20v-35h-326v35q64 5 79 20t15 78v473h-34q-56 0 -79 -6.5t-36 -20.5q-22 -23 -42 -101h-36q2 31 6.5 100t5.5 97h24q11 -16 22.5 -20.5t34.5 -4.5h402q36 0 58 25h24q2 -77 11 -194z"/>
<glyph glyph-name="U" horiz-adv-x="729" unicode="U" d="M724 650v-35q-77 -4 -85 -59q-9 -56 -9 -139v-109q0 -173 -72 -250q-70 -73 -185 -73q-111 0 -177 52q-83 64 -83 235v235q0 69 -13.5 86t-70.5 22v35h301v-35q-56 -5 -69.5 -22t-13.5 -86v-217q0 -114 41 -175.5t121 -61.5q171 0 171 257v107q0 79 -10 139 q-4 27 -26 41.5t-71 17.5v35h251z"/>
<glyph glyph-name="V" horiz-adv-x="711" unicode="V" d="M702 650v-36q-49 -5 -71.5 -25t-51.5 -90q-76 -178 -202 -510h-50q-112 301 -204 527q-22 58 -42 75.5t-66 22.5v36h298v-36q-38 -6 -52 -13t-14 -20q0 -11 8 -32q17 -47 76 -200.5t68 -176.5h3q96 255 126 348q12 36 12 54t-15.5 26.5t-56.5 13.5v36h234z"/>
<glyph glyph-name="W" horiz-adv-x="979" unicode="W" d="M969 650v-35q-51 -8 -70.5 -27t-39.5 -81q-64 -179 -166 -518h-52q-35 96 -163 444h-2q-97 -283 -150 -444h-53q-112 372 -160 525q-18 58 -36.5 76t-63.5 25v35h296v-35q-40 -4 -55 -12.5t-15 -25.5q0 -10 7 -36q55 -194 102 -344h2q97 294 144 447h48q84 -229 168 -451 h2q53 167 94 337q6 24 6 39q0 22 -16.5 32t-61.5 14v35h235z"/>
<glyph glyph-name="X" horiz-adv-x="693" unicode="X" d="M699 0h-321v35q55 10 55 29q0 11 -11 30q-3 4 -14.5 23.5t-35.5 60t-56 95.5q-71 -105 -110 -176q-12 -21 -12 -32q0 -12 14.5 -18t50.5 -12v-35h-251v35q78 9 119 55q104 132 163 222q-108 178 -142 231q-22 36 -48 51.5t-75 20.5v35h302v-35q-49 -12 -49 -28 q0 -6 7 -20q16 -30 90 -151q49 65 90 140q10 20 10 28q0 11 -12.5 17.5t-45.5 13.5v35h241v-35q-50 -7 -76 -20t-56 -49q-30 -34 -125 -165q20 -32 76.5 -122t89.5 -141q30 -47 54.5 -62.5t77.5 -20.5v-35z"/>
<glyph glyph-name="Y" horiz-adv-x="655" unicode="Y" d="M646 650v-35q-47 -5 -69.5 -21.5t-50.5 -62.5q-58 -93 -112 -196q-18 -35 -18 -69v-128q0 -67 15 -82.5t82 -21.5v-34h-325v34q64 5 79 21t15 83v111q0 27 -13 54q-35 71 -124 227q-27 49 -47 64t-62 21v35h286v-35q-58 -8 -58 -28q0 -6 11 -30q9 -18 114 -217 q91 179 104 212q8 19 8 30q0 14 -14.5 21t-52.5 12v35h232z"/>
<glyph glyph-name="Z" horiz-adv-x="619" unicode="Z" d="M573 193l34 -8q-23 -140 -37 -185h-530l-12 17q125 188 382 588h-126q-71 0 -97.5 -8t-39.5 -27q-25 -34 -39 -95l-34 1q2 42 6.5 109t5.5 90h26q11 -17 21.5 -21t35.5 -4h407l8 -15q-257 -398 -374 -584q49 -6 124 -6q142 0 177 33q34 33 62 115z"/>
<glyph glyph-name="bracketleft" horiz-adv-x="351" unicode="[" d="M302 -162h-185v866h185v-36q-75 -7 -90 -21t-15 -73v-608q0 -33 1.5 -46t13 -24.5t30 -14.5t60.5 -7v-36z"/>
<glyph glyph-name="backslash" horiz-adv-x="332" unicode="\" d="M304 -45h-70l-206 710h70z"/>
<glyph glyph-name="bracketright" horiz-adv-x="351" unicode="]" d="M234 -162h-185v36q74 7 89.5 21t15.5 73v606q0 59 -15.5 73t-89.5 21v36h185v-866z"/>
<glyph glyph-name="asciicircum" horiz-adv-x="559" unicode="^" d="M506 213h-77l-151 335l-152 -335h-73l194 410h65z"/>
<glyph glyph-name="underscore" d="M500 -125h-500v50h500v-50z" unicode="_"/>
<glyph glyph-name="grave" horiz-adv-x="400" unicode="`" d="M241 502l-32 -13q-29 35 -76.5 92.5t-52.5 63.5l4 14q9 7 41.5 13t52.5 6h8q32 -100 55 -176z"/>
<glyph glyph-name="a" horiz-adv-x="466" unicode="a" d="M265 79v160q-10 -5 -29 -16t-26 -15q-47 -24 -47 -68q0 -38 19.5 -57.5t40.5 -19.5q19 0 42 16zM465 45l-109 -57q-38 0 -61 21q-16 14 -26 37q-88 -58 -104 -58q-61 0 -98 39t-37 89q0 38 18 59.5t58 36.5q13 5 45 16.5t49.5 18t37 15.5t27.5 16v30q0 47 -16.5 72.5 t-44.5 25.5q-20 0 -33 -18q-16 -19 -29 -69q-9 -34 -42 -34q-21 0 -41.5 15.5t-20.5 34.5q0 22 35 48q82 56 166 71q59 0 98 -29q30 -23 41 -54.5t11 -77.5v-165q0 -59 32 -59q12 0 34 8z"/>
<glyph glyph-name="b" horiz-adv-x="534" unicode="b" d="M196 382v-274q0 -20 5 -33q6 -15 23 -30.5t38 -16.5h1q43 0 72.5 48t29.5 136q0 89 -37.5 133t-90.5 44q-15 0 -41 -7zM196 417l37 18q41 19 64 19q89 0 148 -62.5t59 -148.5q0 -109 -75 -182t-185 -73q-80 0 -176 36v542q0 44 -9.5 55.5t-51.5 15.5v30q105 12 189 36 v-286z"/>
<glyph glyph-name="c" horiz-adv-x="422" unicode="c" d="M399 120l19 -24q-35 -49 -81 -78.5t-91 -29.5q-98 0 -157.5 63.5t-59.5 149.5q0 55 26.5 105.5t74.5 85.5q84 62 170 62q56 0 86 -25q18 -13 18 -36q0 -21 -14.5 -38t-28.5 -17q-10 0 -22 11q-61 52 -101 52q-34 0 -59 -35.5t-25 -109.5q0 -88 47 -132.5t91 -44.5 q59 0 107 41z"/>
<glyph glyph-name="d" horiz-adv-x="547" unicode="d" d="M344 80v280q-24 52 -72 52q-12 0 -26.5 -7t-32.5 -24t-30 -55.5t-12 -91.5q1 -84 38.5 -127t79.5 -43q30 0 55 16zM541 58v-32q-147 -25 -197 -39v58l-60 -39q-30 -18 -51 -18q-33 0 -68 13.5t-66 39.5t-50.5 69.5t-19.5 96.5q0 103 79 175t195 72q4 0 41 -5v121 q0 40 -10.5 50.5t-56.5 15.5v31q126 16 195 36v-577q0 -42 7.5 -52t39.5 -14z"/>
<glyph glyph-name="e" horiz-adv-x="437" unicode="e" d="M237 414q-30 0 -52.5 -34t-26.5 -92q20 0 59 1t60 2q12 1 16 4.5t5 15.5q0 41 -16.5 72t-44.5 31zM399 123l18 -24q-41 -61 -90.5 -86t-89.5 -25q-96 0 -151.5 62t-55.5 152q0 109 74 181q71 71 154 71q67 0 114.5 -48.5t47.5 -110.5q0 -34 -29 -38q-89 -10 -238 -16 q4 -77 41.5 -119t93.5 -42q61 0 111 43z"/>
<glyph glyph-name="f" horiz-adv-x="331" unicode="f" d="M52 442h41v22q0 26 12 67q22 65 86 117q55 47 118 55q53 -3 82 -30q12 -12 12 -28q0 -9 -3 -16q-10 -21 -31 -36q-11 -8 -18 -8q-8 0 -15 7q-50 50 -84 50q-24 0 -31 -27q-5 -17 -5 -51q0 -30 3 -87l1 -35h115q1 -3 1 -11q0 -30 -15 -37h-101v-286q0 -46 13 -58t70 -18 v-32h-272v32q43 6 52.5 17.5t9.5 58.5v286h-65l-5 12z"/>
<glyph glyph-name="g" horiz-adv-x="492" unicode="g" d="M243 -21q-65 0 -85 -21q-23 -25 -23 -51q0 -38 36 -67t93 -29q56 0 88.5 26.5t32.5 67.5q0 51 -56 65q-35 9 -86 9zM236 417q-25 0 -42.5 -29.5t-17.5 -81.5q0 -55 18 -90.5t51 -35.5q60 0 60 114q0 53 -17.5 88t-51.5 35zM494 439l4 -7q-16 -44 -43 -61l-57 4 q27 -32 27 -76q0 -74 -56 -115t-135 -41q-12 0 -49 5q-14 -14 -14 -28q0 -15 15 -26.5t46 -11.5h3q16 0 46 0.5t46 0.5q27 0 51 -4.5t49 -16.5t39.5 -38t14.5 -63q0 -84 -82.5 -144.5t-184.5 -60.5q-90 0 -138.5 37.5t-48.5 84.5q0 29 31 55q13 10 76 49q-50 18 -75 55 q-17 25 -15 54q56 23 102 66q-45 15 -71.5 51t-26.5 82q0 78 59 121t135 43q54 0 107 -27q41 2 145 12z"/>
<glyph glyph-name="h" horiz-adv-x="550" unicode="h" d="M532 0h-236v32q35 5 43 16t8 53v176q0 103 -72 103q-44 0 -72 -28v-251q0 -41 7.5 -52.5t38.5 -16.5v-32h-237v32q43 5 53 15.5t10 57.5v466q0 45 -8 53.5t-48 13.5v29q85 11 184 36v-314q63 65 133 65q66 0 102 -42t36 -124v-183q0 -46 8.5 -56t49.5 -17v-32z"/>
<glyph glyph-name="i" horiz-adv-x="295" unicode="i" d="M285 0h-256v32q44 5 54 17.5t10 64.5v198q0 48 -9 59.5t-46 17.5v29q95 11 182 36v-340q0 -51 10 -63.5t55 -18.5v-32zM148 517q-28 0 -49 21t-21 49q0 30 21 50t50 20q30 0 50.5 -20t20.5 -50q0 -29 -21 -49.5t-51 -20.5z"/>
<glyph glyph-name="j" horiz-adv-x="288" unicode="j" d="M31 388v30q73 8 189 36v-325q0 -98 -28 -162q-26 -63 -70.5 -121t-68.5 -75q-20 -15 -35 -15q-12 0 -26 16.5t-14 38.5q0 12 6.5 19.5t17.5 7.5q64 1 75 20q9 18 12 71q4 118 4 188v188q0 52 -9.5 64t-52.5 19zM148 517q-28 0 -49 21t-21 49q0 30 21 50t50 20 q30 0 50.5 -20t20.5 -50q0 -29 -21 -49.5t-51 -20.5z"/>
<glyph glyph-name="k" horiz-adv-x="513" unicode="k" d="M536 0l-176 -2q-35 44 -130 198q-12 19 -22 19q-3 0 -7 -1v-106q0 -48 10 -59t55 -17v-32h-257v32q46 6 56 17t10 59v462q0 42 -10 53t-50 16v28q107 14 186 36v-459q27 6 57 38q34 38 58 87q6 11 6 18q0 16 -36 22v30l216 9v-30q-88 -15 -125 -52q-36 -36 -70 -82 q43 -72 145 -201q23 -26 40 -36t44 -15v-32z"/>
<glyph glyph-name="l" horiz-adv-x="278" unicode="l" d="M269 0h-259v32q45 7 55 19t10 59v458q0 44 -9 54.5t-51 15.5v29q107 13 187 36v-593q0 -50 10.5 -61.5t56.5 -16.5v-32z"/>
<glyph glyph-name="m" horiz-adv-x="843" unicode="m" d="M824 0h-236v32q34 5 43 16t9 57v172q0 98 -71 98q-38 0 -78 -33q3 -33 3 -40v-202q0 -42 8.5 -52.5t43.5 -15.5v-32h-231v32q36 5 43.5 15t7.5 53v182q0 94 -69 94q-34 0 -77 -32v-244q0 -42 8 -52.5t37 -15.5v-32h-235v32q44 5 53.5 16t9.5 57v210q0 43 -8.5 56 t-42.5 18v29q82 12 176 38v-77q42 31 63 43q50 32 87 32q40 0 70 -21.5t44 -57.5l72 51q41 28 79 28q65 0 99.5 -42t34.5 -119v-193q0 -42 8.5 -52t48.5 -16v-32z"/>
<glyph glyph-name="n" horiz-adv-x="566" unicode="n" d="M549 0h-233v32q32 5 39.5 17t7.5 64v170q0 94 -69 94q-34 0 -74 -31v-242q0 -45 7.5 -56t39.5 -16v-32h-241v32q48 7 57.5 17.5t9.5 59.5v207q0 44 -8.5 55t-45.5 18v29q86 11 181 38v-74q4 3 26.5 19.5t35.5 24.5q44 28 78 28q61 0 96 -42.5t35 -117.5v-189 q0 -46 9 -56.5t49 -16.5v-32z"/>
<glyph glyph-name="o" horiz-adv-x="525" unicode="o" d="M255 415q-34 0 -58 -43.5t-24 -124.5q0 -95 28 -157.5t74 -62.5q78 0 78 172q0 104 -25.5 160t-72.5 56zM268 454q102 0 165 -66t63 -159q0 -114 -68.5 -177.5t-163.5 -63.5q-111 0 -172.5 67t-61.5 156q0 113 73 178t165 65z"/>
<glyph glyph-name="p" horiz-adv-x="547" unicode="p" d="M211 354v-277q15 -15 39.5 -27t42.5 -12q42 0 67.5 47t25.5 125q0 84 -34 126t-77 42q-33 0 -64 -24zM211 391l70 44q32 19 55 19q84 0 132.5 -57.5t48.5 -135.5q0 -105 -70 -177.5t-173 -95.5q-31 0 -63 12v-127q0 -44 12.5 -55t70.5 -16v-32h-278v32q47 4 57.5 15 t10.5 55v448q0 41 -10 52t-48 16v30q60 10 185 46v-73z"/>
<glyph glyph-name="q" horiz-adv-x="536" unicode="q" d="M339 58v314q-33 41 -67 41q-39 0 -70.5 -46.5t-31.5 -131.5q0 -83 42.5 -134t90.5 -51q20 0 36 8zM534 -230h-274v32q54 6 66.5 16.5t12.5 55.5v148l-80 -34q-111 0 -170.5 65t-59.5 148q0 105 82.5 179t195.5 74h2q42 -3 72 -14q18 -6 33 -6q18 0 51 12l5 -4 q-3 -60 -3 -106v-463q0 -44 10 -55t57 -16v-32z"/>
<glyph glyph-name="r" horiz-adv-x="404" unicode="r" d="M220 349h3q61 105 112 105q29 0 48 -18t19 -44t-14 -46t-35 -28q-7 -3 -13 -3q-9 0 -18 7q-25 21 -46 21q-33 0 -56 -52v-186q0 -46 12.5 -57t70.5 -16v-32h-274v32q42 5 53 16.5t11 56.5v218q0 37 -9 47t-45 19v28q101 13 181 38v-106z"/>
<glyph glyph-name="s" horiz-adv-x="383" unicode="s" d="M338 322l-30 -9q-45 102 -106 102q-20 0 -35.5 -15.5t-15.5 -38.5q0 -44 74 -77q69 -30 102 -62t33 -86q0 -69 -54.5 -108.5t-124.5 -39.5q-37 0 -73 10.5t-53 23.5q-5 12 -10 55.5t-6 78.5l30 3q19 -54 53 -93t76 -39q24 0 39.5 15.5t15.5 38.5q0 24 -16 43.5t-60 39.5 q-26 13 -40.5 21.5t-38.5 27.5t-36 44t-12 55q0 60 45.5 101t122.5 41q55 0 96 -18q16 -38 24 -114z"/>
<glyph glyph-name="t" horiz-adv-x="339" unicode="t" d="M329 37l-81 -38q-28 -11 -41 -11q-122 0 -122 126v280h-63l-5 12l28 36h40v73l113 78l14 -6v-145h98q8 -8 8 -21q0 -19 -14 -27h-92v-247q0 -87 57 -87q25 0 50 12z"/>
<glyph glyph-name="u" horiz-adv-x="555" unicode="u" d="M542 56v-32q-70 -9 -183 -36l-8 7v60q-40 -31 -50 -37q-46 -30 -87 -30q-62 0 -96.5 37.5t-34.5 104.5v207q0 36 -8.5 45.5t-46.5 19.5v29q90 4 185 18q-3 -63 -3 -151v-145q0 -45 20 -66.5t49 -21.5q43 0 72 28v243q0 38 -9.5 48t-54.5 18v29q106 5 191 18v-325 q0 -40 7.5 -51.5t34.5 -14.5z"/>
<glyph glyph-name="v" horiz-adv-x="465" unicode="v" d="M483 442v-32q-37 -7 -52 -19.5t-31 -48.5q-49 -107 -146 -353h-39q-111 278 -144 355q-14 33 -28.5 45.5t-50.5 20.5v32h247v-32q-25 -6 -34.5 -11t-9.5 -16q0 -9 6 -25q4 -11 76 -208q27 64 74 205q4 12 4 22q0 13 -11.5 20.5t-40.5 12.5v32h180z"/>
<glyph glyph-name="w" horiz-adv-x="683" unicode="w" d="M699 442v-32q-35 -6 -47.5 -17t-28.5 -51q-37 -93 -128 -353h-38q-15 37 -55.5 132.5t-61.5 146.5q-22 -54 -60.5 -152t-50.5 -127h-38q-22 68 -63.5 190.5t-56.5 167.5q-13 37 -25 48t-43 15v32h247v-32q-33 -5 -45 -11.5t-12 -19.5q0 -10 4 -21q5 -17 59 -195h2 q3 7 104 274h39q38 -98 113 -276h2q42 124 56 190q3 13 3 23q0 16 -13 23.5t-48 12.5v32h185z"/>
<glyph glyph-name="x" horiz-adv-x="482" unicode="x" d="M494 0h-249v32q34 6 34 21q0 10 -10 26l-50 87q-12 -17 -31 -49t-21 -36q-9 -15 -9 -24q0 -16 38 -25v-32h-189v32q41 8 62 20.5t46 42.5q19 21 81 104l-88 145q-23 37 -38.5 48.5t-53.5 17.5v32h236v-32q-32 -7 -32 -20q0 -8 7 -19l47 -78q19 28 49 78q8 13 8 18 q0 14 -38 21v32h183v-32q-41 -7 -57.5 -15t-43.5 -34q-3 -3 -79 -101l97 -155q24 -38 45.5 -53t55.5 -20v-32z"/>
<glyph glyph-name="y" horiz-adv-x="465" unicode="y" d="M483 442v-32q-36 -6 -50 -18.5t-33 -53.5q-11 -23 -116 -275q-67 -163 -105 -280q-9 -27 -37 -27q-23 0 -46.5 19t-23.5 44q0 21 27 39q57 30 82 71q13 25 19 41q3 9 3 17q0 13 -7 30q-83 231 -126 331q-14 33 -28 45t-49 17v32h248v-32q-25 -5 -34.5 -10t-9.5 -16 q0 -9 4 -20l75 -222q33 82 75 213q4 11 4 20q0 14 -12 22t-40 13v32h180z"/>
<glyph glyph-name="z" horiz-adv-x="445" unicode="z" d="M410 152l29 -14q-46 -134 -47 -138h-355l-13 16q72 115 226 383h-53q-50 0 -74 -14.5t-46 -56.5l-17 -33l-31 13q23 75 41 156h22q11 -22 61 -22h245l9 -14q-33 -56 -220 -384h64q55 0 85 16t57 64z"/>
<glyph glyph-name="braceleft" horiz-adv-x="357" unicode="{" d="M310 -129v-39q-169 0 -169 140q0 30 3 96t3 100q0 15 -2.5 26t-10.5 25t-27.5 23t-50.5 11v36q31 2 51 10.5t28 22.5t10 25t2 27q0 35 -3 100t-3 93q0 143 169 143v-39q-87 -9 -87 -96q0 -30 6 -95t6 -91q0 -99 -90 -116v-4q90 -18 90 -116q0 -27 -6 -91.5t-6 -91.5 q0 -45 17.5 -69.5t69.5 -29.5z"/>
<glyph glyph-name="bar" horiz-adv-x="270" unicode="|" d="M177 -250h-84v1000h84v-1000z"/>
<glyph glyph-name="braceright" horiz-adv-x="357" unicode="}" d="M302 289v-36q-31 -2 -51 -11t-28 -24t-10 -27.5t-2 -32.5q0 -28 3 -92.5t3 -96.5q0 -137 -171 -137v37q91 11 91 100q0 24 -6.5 83.5t-6.5 96.5q0 102 90 120v4q-90 18 -90 116q0 35 6.5 97.5t6.5 90.5q0 85 -91 96v37q35 0 61.5 -5t53.5 -18.5t41.5 -42.5t14.5 -73 q0 -32 -3 -95.5t-3 -91.5q0 -21 2 -33t9.5 -27.5t27.5 -24t52 -10.5z"/>
<glyph glyph-name="asciitilde" horiz-adv-x="577" unicode="~" d="M483 322l46 -28q-41 -107 -133 -107q-50 0 -125 42q-51 28 -83 28q-54 0 -93 -75l-43 35q51 102 139 102q51 0 108 -33q63 -36 103 -36q49 0 81 72z"/>
<glyph glyph-name="uni00A0" horiz-adv-x="217" unicode=" "/>
<glyph glyph-name="exclamdown" horiz-adv-x="285" unicode="¡" d="M143 -221q-82 0 -82 43q0 10 10 72q24 127 50 330q2 10 23 10q20 0 22 -10q26 -199 49 -330q10 -53 10 -72q0 -43 -82 -43zM142 457q33 0 54.5 -22t21.5 -57q0 -34 -22 -56t-54 -22q-33 0 -54.5 22t-21.5 56q0 35 21.5 57t54.5 22z"/>
<glyph glyph-name="cent" d="M270 187v309q-41 -4 -74 -41t-33 -108q0 -68 30.5 -107.5t76.5 -52.5zM436 231l19 -27q-63 -89 -146 -103v-96h-39v93q-103 4 -163.5 63.5t-60.5 138.5q0 113 100 185q53 37 124 49v81h39v-77h17q64 0 96 -23q15 -10 15 -30q0 -19 -14 -35t-25 -16q-7 0 -17 12 q-36 41 -72 48v-314q74 1 127 51z" unicode="¢"/>
<glyph glyph-name="sterling" d="M404 289h-152v-15q0 -44 -32.5 -84t-78.5 -65h15q50 0 96 -18q109 -44 137 -44q39 0 39 24q0 23 -7 40q-6 11 3 24q22 27 39 27q12 0 19.5 -12t7.5 -29q0 -35 -26 -69t-60 -58q-50 -37 -103 -37q-17 0 -37.5 7t-33 12.5t-39.5 21t-33 18.5q-44 22 -68 22q-25 0 -33 -40 q-4 -16 -16 -16q-26 0 -26 27q0 8 3 17q4 12 14.5 27.5t27 35t22.5 28.5q39 50 39 112q0 25 -3 44h-95v46h87q-7 63 -7 83q0 44 23 90.5t72 80.5q61 43 116 46q62 0 98 -38q10 -12 10 -24q0 -11 -7 -22q-9 -15 -25 -27q-10 -4 -15 -4q-10 0 -18 7q-16 13 -19.5 15.5 t-18 12.5t-22 13t-19 7t-21.5 4q-42 0 -42 -64q0 -22 4 -47.5t14.5 -71.5t13.5 -61h157v-46z" unicode="£"/>
<glyph glyph-name="currency" d="M245 459q-49 0 -81 -38.5t-32 -95.5q0 -59 31.5 -96.5t81.5 -37.5t81 37.5t31 96.5q0 58 -31.5 96t-80.5 38zM470 136l-50 -50l-67 75q-43 -36 -109 -36t-110 37l-67 -76l-49 50l71 68q-43 46 -43 121t43 121l-71 68l49 50l68 -76q43 37 110 37q65 0 108 -37l67 76 l50 -50l-71 -68q43 -46 43 -121t-43 -121z" unicode="¤"/>
<glyph glyph-name="yen" d="M489 622v-33q-36 -5 -52 -17t-37 -52q-12 -22 -87 -181h106v-41h-113v-67h114v-41h-114v-54q0 -67 14 -82.5t76 -19.5v-34h-303v34q59 4 72.5 20t13.5 83v53h-108v41h108v67h-108v41h96q-9 24 -20.5 50.5t-28.5 62.5t-28 62q-20 45 -35.5 57.5t-48.5 17.5v33h247v-33 l-23 -5q-24 -4 -24 -18q0 -6 3 -15q13 -37 38.5 -99.5t34.5 -86.5q49 106 72 168q7 21 7 28q0 19 -28 23l-27 5v33h183z" unicode="¥"/>
<glyph glyph-name="brokenbar" horiz-adv-x="270" unicode="¦" d="M177 -175h-84v350h84v-350zM177 325h-84v350h84v-350z"/>
<glyph glyph-name="section" horiz-adv-x="482" unicode="§" d="M100 413q0 -73 89 -155q101 -93 122 -123q23 -36 24 -77h2q29 47 29 95v3q0 76 -88 147q-61 47 -106 92q-46 49 -44 98l-1 2q-27 -37 -27 -82zM429 204q-1 -91 -100 -210q-69 -75 -150 -97q-44 0 -72 21q-19 15 -19 31q0 8 11.5 24t18.5 20q15 9 24 2q33 -27 84 -27 q23 0 39.5 12t16.5 30t-12.5 34.5t-48.5 48.5q-18 19 -57 55.5t-54 52.5q-68 67 -67 153q0 104 85 193q72 77 150 96q41 0 72 -27q13 -12 13 -26q-1 -22 -28 -43q-9 -7 -20 3q-36 27 -84 27q-23 0 -38.5 -11.5t-15.5 -26.5q0 -29 38 -60q17 -14 56 -45.5t55 -44.5 q49 -39 76 -80.5t27 -99.5v-5z"/>
<glyph glyph-name="dieresis" horiz-adv-x="400" unicode="¨" d="M302 519q-27 0 -47 19.5t-20 46.5q0 28 20 47.5t48 19.5t47.5 -19.5t19.5 -47.5q0 -27 -20 -46.5t-48 -19.5zM96 519q-27 0 -47 19.5t-20 46.5q0 28 20.5 47.5t47.5 19.5q29 0 48.5 -19.5t19.5 -47.5q0 -27 -20 -46.5t-49 -19.5z"/>
<glyph glyph-name="copyright" horiz-adv-x="699" unicode="©" d="M476 261l26 -6q-24 -83 -25 -86q-60 -20 -110 -20q-91 0 -141 51.5t-50 120.5q0 82 58 130.5t140 48.5q62 0 106 -18q3 -45 11 -89l-25 -6q-15 40 -36 60.5t-58 20.5q-48 0 -77 -39t-29 -100q0 -64 32 -105t77 -41q36 0 59.5 19.5t41.5 58.5zM351 592 q-112 0 -184.5 -76.5t-72.5 -190.5q0 -113 73 -190t184 -77q110 0 182.5 77t72.5 190t-72.5 190t-182.5 77zM350 631q131 0 219.5 -89.5t88.5 -217.5q0 -127 -88.5 -216t-219.5 -89q-133 0 -221 89t-88 216q0 128 88 217.5t221 89.5z"/>
<glyph glyph-name="ordfeminine" horiz-adv-x="335" unicode="ª" d="M185 334v92l-38 -19q-28 -15 -28 -39q0 -21 12.5 -32t25.5 -11q15 0 28 9zM318 307l-74 -36q-40 0 -57 36q-52 -36 -73 -36q-36 0 -61 24.5t-25 55.5q0 45 56 66q8 3 31.5 10.5t42 15t27.5 13.5v16q0 21 -11 33.5t-28 12.5q-27 0 -43 -53q-7 -21 -27 -21q-15 0 -29 10.5 t-14 24.5q0 16 23 32q55 34 113 45q43 0 71 -22.5t28 -67.5v-106q0 -35 21 -35q11 0 23 5z"/>
<glyph glyph-name="guillemotleft" horiz-adv-x="456" unicode="«" d="M412 51l-31 -19q-76 99 -159 192q78 84 159 192l31 -19l-83 -173zM237 51l-32 -19q-82 112 -158 192q76 80 158 192l32 -19l-83 -173z"/>
<glyph glyph-name="logicalnot" horiz-adv-x="577" unicode="¬" d="M531 101h-75v209h-409v65h484v-274z"/>
<glyph glyph-name="uni00AD" horiz-adv-x="342" unicode="­" d="M302 265l-16 -72h-245l15 72h246z"/>
<glyph glyph-name="registered" horiz-adv-x="319" unicode="®" d="M147 533h9q10 0 18 6q11 6 11 20q0 24 -25 24q-13 0 -13 -13v-37zM237 469l-4 -13q-34 0 -50 22q-12 16 -20 30q-3 7 -12 7h-4v-22q0 -14 3 -16.5t16 -3.5v-16h-70v16q15 1 17.5 3.5t2.5 16.5v70q0 13 -2.5 16t-16.5 4v15h71q49 0 49 -37q0 -23 -27 -35q13 -25 32 -45 q9 -9 15 -12zM161 635q-45 0 -74.5 -31.5t-29.5 -77.5t30 -77t74 -31t74 31t30 77t-30 77.5t-74 31.5zM160 659q56 0 95 -39t39 -94q0 -53 -39 -92.5t-95 -39.5t-94 38t-38 94q0 55 38 94t94 39z"/>
<glyph glyph-name="macron" horiz-adv-x="400" unicode="¯" d="M325 541h-250v73h250v-73z"/>
<glyph glyph-name="degree" horiz-adv-x="331" unicode="°" d="M167 621q-33 0 -54 -24t-21 -62t21 -63t54 -25q31 0 51.5 24.5t20.5 59.5q0 40 -20 65t-52 25zM165 665q57 0 96.5 -36t39.5 -95q0 -60 -39 -95t-97 -35q-57 0 -96 35t-39 95q0 59 39 95t96 36z"/>
<glyph glyph-name="plusminus" horiz-adv-x="577" unicode="±" d="M531 0h-484v65h484v-65zM531 304h-204v-193h-75v193h-205v65h205v181h75v-181h204v-65z"/>
<glyph glyph-name="twosuperior" horiz-adv-x="348" unicode="²" d="M295 506l26 -7q-10 -28 -27 -101h-258v26q158 121 158 200q0 31 -15 48.5t-42 17.5q-45 0 -81 -50l-21 20l34 49q17 21 45.5 33.5t57.5 12.5q53 0 87.5 -29.5t34.5 -80.5q0 -34 -24 -64t-85 -78l-43 -34v-2h90q26 0 37.5 7t25.5 32z"/>
<glyph glyph-name="threesuperior" horiz-adv-x="348" unicode="³" d="M208 605v-2q97 -14 97 -81q0 -41 -35.5 -73t-76 -45.5t-70.5 -13.5q-47 0 -74 22q-9 9 -9 22q0 7 2 11q8 20 25 31q11 6 23 -3q49 -42 75 -42q18 0 31 16t13 49q0 35 -18.5 52.5t-47.5 17.5q-23 0 -40 -7l-7 30q86 27 86 69q0 17 -12.5 28t-31.5 11q-35 0 -70 -39l-18 18 l34 44q35 35 91 35q49 0 77 -23.5t28 -55.5q0 -23 -19 -40q-20 -16 -53 -31z"/>
<glyph glyph-name="acute" horiz-adv-x="400" unicode="´" d="M204 489l-31 13q7 23 26.5 89t22.5 76q6 4 38 8t56 4q12 0 15 -1l6 -10z"/>
<glyph glyph-name="mu" horiz-adv-x="538" unicode="µ" d="M527 69l12 -28q-16 -22 -46.5 -37.5t-68.5 -15.5q-73 0 -90 69h-2q-57 -69 -112 -69q-52 0 -78 43h-2v-15q0 -50 12 -129t23 -118l-15 -13q-22 2 -49.5 14t-41.5 28q-2 14 -2 54q0 25 1 100.5t1 116.5v261q0 57 -4 101l128 24q3 -29 3 -114v-172q0 -51 21.5 -76t50.5 -25 q34 0 63 32v331l127 24v-329q0 -65 38 -65q15 0 31 8z"/>
<glyph glyph-name="paragraph" horiz-adv-x="519" unicode="¶" d="M479 536l-30 -32l-87 -10v-469q0 -116 -74 -190q-25 -25 -55.5 -39t-41.5 -14q-46 0 -74 24q-12 12 -12 25q0 1 0.5 3.5t0.5 3.5q3 17 22 33q12 11 24 3q34 -23 71 -23q36 0 57 32t21 125v134l-70 -31q-8 -2 -17 -2q-56 0 -115.5 59.5t-59.5 149.5q0 102 74 168 q71 63 161 63h201z"/>
<glyph glyph-name="periodcentered" horiz-adv-x="254" unicode="·" d="M126 157q-31 0 -52.5 21.5t-21.5 55.5q0 33 21.5 55t52.5 22q33 0 54.5 -21.5t21.5 -55.5t-21.5 -55.5t-54.5 -21.5z"/>
<glyph glyph-name="cedilla" horiz-adv-x="400" unicode="¸" d="M253 0l-24 -25q-8 -10 -8 -16q0 -9 15 -24q39 -39 39 -69q0 -66 -124 -101l-13 25q28 12 44 29t16 31q0 16 -22 34q-23 21 -23 39q0 16 17 34l37 43h46z"/>
<glyph glyph-name="onesuperior" horiz-adv-x="348" unicode="¹" d="M289 398h-218v29q37 4 48.5 15.5t11.5 49.5v154q0 29 -5.5 37.5t-29.5 11.5l-25 2v29q76 7 158 29v-263q0 -38 11 -49.5t49 -15.5v-29z"/>
<glyph glyph-name="ordmasculine" horiz-adv-x="369" unicode="º" d="M179 522q-20 0 -34.5 -26t-14.5 -77q0 -50 17 -82.5t42 -32.5q47 0 50 94v9q0 54 -16 84.5t-44 30.5zM188 556q69 0 111.5 -41t42.5 -99q0 -68 -45.5 -106.5t-112.5 -38.5q-74 0 -116 39.5t-42 96.5q0 67 49.5 108t112.5 41z"/>
<glyph glyph-name="guillemotright" horiz-adv-x="456" unicode="»" d="M219 396l32 20q72 -98 158 -192q-86 -92 -158 -192l-32 18l83 174zM47 396l32 20q62 -82 158 -192q-85 -93 -158 -192l-32 18l84 174z"/>
<glyph glyph-name="onequarter" horiz-adv-x="784" unicode="¼" d="M562 141v130h-2q-44 -59 -92 -130h94zM708 97h-55v-20q0 -26 10 -36.5t40 -13.5v-27h-201v27q38 3 49 13t11 37v20h-155v28q109 145 185 233h61v-217h55v-44zM618 621l-406 -661l-38 28l404 660zM294 278h-218v29q38 4 49.5 15.5t11.5 49.5v154q0 30 -5.5 38.5 t-29.5 10.5l-25 2v29q77 7 158 30v-264q0 -38 11 -49.5t48 -15.5v-29z"/>
<glyph glyph-name="onehalf" horiz-adv-x="789" unicode="½" d="M699 109l25 -8q-12 -37 -27 -101h-258v26q159 120 159 200q0 31 -15.5 48.5t-42.5 17.5q-44 0 -80 -50l-22 20l35 49q17 21 45.5 34t57.5 13q53 0 87.5 -30t34.5 -80q0 -35 -24 -64.5t-85 -78.5l-43 -34v-2h90q26 0 37.5 7t25.5 33zM598 621l-406 -661l-38 28l404 660z M285 278h-218v29q38 4 49.5 15.5t11.5 49.5v154q0 30 -5.5 38.5t-29.5 10.5l-25 2v29q76 7 158 30v-264q0 -38 11 -49.5t48 -15.5v-29z"/>
<glyph glyph-name="threequarters" horiz-adv-x="789" unicode="¾" d="M241 486v-2q47 -7 72 -28.5t25 -53.5q0 -41 -36 -73t-76 -45t-71 -13q-22 0 -43.5 7t-29.5 14q-9 9 -9 22q0 7 2 11q6 18 25 31q11 6 23 -3q49 -42 75 -42q18 0 30.5 16.5t12.5 49.5q0 35 -18.5 52t-47.5 17q-19 0 -39 -6l-7 29q86 28 86 69q0 17 -12.5 28t-31.5 11 q-37 0 -70 -39l-18 18l33 45q35 35 92 35q48 0 76.5 -23.5t28.5 -55.5q0 -25 -20 -41q-17 -13 -52 -30zM561 141v130h-2q-55 -73 -92 -130h94zM707 97h-55v-20q0 -26 10 -36.5t40 -13.5v-27h-202v27q38 3 49.5 13t11.5 37v20h-155v28q103 139 184 233h62v-217h55v-44z M618 621l-405 -661l-38 28l404 660z"/>
<glyph glyph-name="questiondown" horiz-adv-x="399" unicode="¿" d="M171 218l22 23q47 -17 87 -53.5t40 -80.5q0 -61 -97 -121q-11 -7 -32.5 -20.5t-31 -20t-22 -16t-17.5 -16.5t-5 -13q0 -37 46 -37q29 0 58.5 17.5t49.5 34.5t26 17q18 0 38 -22t20 -47q0 -22 -23 -43q-22 -20 -55 -30.5t-57 -10.5q-67 0 -124 53.5t-57 122.5 q0 33 12 56.5t47 48.5q5 3 24 15.5t28.5 20t23 19t20 22t6.5 20.5q0 28 -27 61zM207 457q33 0 54.5 -22t21.5 -57q0 -34 -22 -56t-54 -22q-33 0 -55 22t-22 56q0 35 22 57t55 22z"/>
<glyph glyph-name="Agrave" horiz-adv-x="706" unicode="À" d="M420 713l-14 -29l-208 58l-2 12q3 17 20.5 45.5t30.5 36.5q66 -46 173 -123zM390 266l-74 216h-3q-12 -32 -25.5 -68.5t-29 -80t-24.5 -67.5h156zM687 0h-286v35q31 5 43.5 12t12.5 21q0 10 -8 32q-14 41 -40 113h-192q-25 -71 -36 -107q-7 -24 -7 -34q0 -17 14.5 -25 t53.5 -12v-35h-224l1 35q50 6 68 23t43 80l205 514l51 13q177 -483 191 -521q26 -66 44.5 -84.5t65.5 -24.5v-35z"/>
<glyph glyph-name="Aacute" horiz-adv-x="706" unicode="Á" d="M525 755l-4 -12l-206 -60l-14 28q66 48 173 122q14 -5 31.5 -32t19.5 -46zM390 266l-74 216h-3q-12 -32 -25.5 -68.5t-29 -80t-24.5 -67.5h156zM687 0h-286v35q31 5 43.5 12t12.5 21q0 10 -8 32q-14 41 -40 113h-192q-25 -71 -36 -107q-7 -24 -7 -34q0 -17 14.5 -25 t53.5 -12v-35h-224l1 35q50 6 68 23t43 80l205 514l51 13q177 -483 191 -521q26 -66 44.5 -84.5t65.5 -24.5v-35z"/>
<glyph glyph-name="Acircumflex" horiz-adv-x="706" unicode="Â" d="M513 710l-16 -26q-21 8 -43 18t-48.5 23.5t-40.5 19.5q-112 -53 -132 -61l-15 26q49 40 132 123h31q50 -54 132 -123zM390 266l-74 216h-3q-12 -32 -25.5 -68.5t-29 -80t-24.5 -67.5h156zM687 0h-286v35q31 5 43.5 12t12.5 21q0 10 -8 32q-14 41 -40 113h-192 q-25 -71 -36 -107q-7 -24 -7 -34q0 -17 14.5 -25t53.5 -12v-35h-224l1 35q50 6 68 23t43 80l205 514l51 13q177 -483 191 -521q26 -66 44.5 -84.5t65.5 -24.5v-35z"/>
<glyph glyph-name="Atilde" horiz-adv-x="706" unicode="Ã" d="M310 798q21 0 64 -18q39 -17 61 -17q26 0 49 42l30 -15q-31 -98 -93 -98q-20 0 -70 21q-30 15 -52 15q-28 0 -51 -44l-29 20q33 94 91 94zM390 266l-74 216h-3q-12 -32 -25.5 -68.5t-29 -80t-24.5 -67.5h156zM687 0h-286v35q31 5 43.5 12t12.5 21q0 10 -8 32 q-14 41 -40 113h-192q-25 -71 -36 -107q-7 -24 -7 -34q0 -17 14.5 -25t53.5 -12v-35h-224l1 35q50 6 68 23t43 80l205 514l51 13q177 -483 191 -521q26 -66 44.5 -84.5t65.5 -24.5v-35z"/>
<glyph glyph-name="Adieresis" horiz-adv-x="706" unicode="Ä" d="M253 828q29 0 49 -19.5t20 -47.5q0 -27 -20 -46.5t-49 -19.5q-26 0 -46 19.5t-20 46.5q0 28 19.5 47.5t46.5 19.5zM464 828q29 0 48.5 -19.5t19.5 -47.5q0 -27 -20 -46.5t-48 -19.5q-27 0 -47 19.5t-20 46.5q0 28 20 47.5t47 19.5zM390 266l-74 216h-3 q-12 -32 -25.5 -68.5t-29 -80t-24.5 -67.5h156zM687 0h-286v35q31 5 43.5 12t12.5 21q0 10 -8 32q-14 41 -40 113h-192q-25 -71 -36 -107q-7 -24 -7 -34q0 -17 14.5 -25t53.5 -12v-35h-224l1 35q50 6 68 23t43 80l205 514l51 13q177 -483 191 -521q26 -66 44.5 -84.5 t65.5 -24.5v-35z"/>
<glyph glyph-name="Aring" horiz-adv-x="706" unicode="Å" d="M361 825q-20 0 -33 -14.5t-13 -36.5q0 -23 13 -38t33 -15t32.5 14.5t12.5 37.5t-12.5 37.5t-32.5 14.5zM360 863q37 0 66 -25t29 -64q0 -41 -29 -66.5t-66 -25.5q-38 0 -66 25.5t-28 66.5q0 40 28 64.5t66 24.5zM390 266l-74 216h-3q-12 -32 -25.5 -68.5t-29 -80 t-24.5 -67.5h156zM687 0h-286v35q31 5 43.5 12t12.5 21q0 10 -8 32q-14 41 -40 113h-192q-25 -71 -36 -107q-7 -24 -7 -34q0 -17 14.5 -25t53.5 -12v-35h-224l1 35q50 6 68 23t43 80l205 514l51 13q177 -483 191 -521q26 -66 44.5 -84.5t65.5 -24.5v-35z"/>
<glyph glyph-name="AE" horiz-adv-x="882" unicode="Æ" d="M424 340v258q-11 0 -22 -4q-122 -249 -124 -254h146zM838 175l34 -9q-20 -105 -37 -166h-501v35q61 5 75.5 23t14.5 87v147h-168q-16 -32 -82 -176q-13 -31 -13 -44q0 -16 15.5 -24t53.5 -13v-35h-244v35q47 6 71.5 24.5t52.5 69.5q95 173 226 433q10 22 10 29 q0 14 -27 17l-60 7v35h553q5 -90 10 -147l-35 -5q-16 62 -39 84q-23 24 -101 24h-52q-27 0 -33.5 -5.5t-6.5 -29.5v-232h65q66 0 85.5 12t27.5 62h37v-201h-37q-8 54 -27 66.5t-86 12.5l-65 1v-153q0 -44 5 -62t20 -25q21 -8 90 -8q81 0 109 32q36 38 59 99z"/>
<glyph glyph-name="Ccedilla" horiz-adv-x="676" unicode="Ç" d="M624 185l36 -14q-26 -102 -54 -158q-91 -24 -167 -26l-10 -12q-8 -8 -8 -15q0 -8 15 -26q39 -44 39 -71q0 -65 -125 -106l-17 31q28 14 44 30.5t17 29.5q0 9 -21 36q-23 25 -23 40q0 11 11 25l30 37q-89 4 -158 34t-109.5 78t-61 104t-20.5 116q0 155 109.5 251t290.5 96 q29 0 59.5 -3.5t48.5 -7t42 -9t28 -6.5q14 -86 23 -164l-38 -8q-26 83 -71 118t-114 35q-102 0 -163 -81.5t-61 -200.5q0 -137 62.5 -222t161.5 -85q126 0 204 154z"/>
<glyph glyph-name="Egrave" horiz-adv-x="581" unicode="È" d="M359 713l-14 -29l-207 58l-3 12q3 17 20.5 45.5t31.5 36.5q106 -75 172 -123zM536 173l35 -7q-9 -70 -35 -166h-510v35q65 5 80 20t15 78v384q0 64 -13 78.5t-68 19.5v35h471q0 -8 2 -31.5t4 -58t4 -60.5l-36 -5q-18 63 -41 86q-24 25 -100 25h-48q-28 0 -34.5 -5.5 t-6.5 -29.5v-212h67q64 0 82.5 11.5t28.5 63.5h36v-202h-36q-10 53 -28 64.5t-83 11.5h-67v-173q0 -70 24 -82q23 -10 90 -10q80 0 111 32q27 32 56 98z"/>
<glyph glyph-name="Eacute" horiz-adv-x="581" unicode="É" d="M455 755l-4 -12l-206 -60l-14 28q4 3 172 122q14 -5 32 -31.5t20 -46.5zM536 173l35 -7q-9 -70 -35 -166h-510v35q65 5 80 20t15 78v384q0 64 -13 78.5t-68 19.5v35h471q0 -8 2 -31.5t4 -58t4 -60.5l-36 -5q-18 63 -41 86q-24 25 -100 25h-48q-28 0 -34.5 -5.5 t-6.5 -29.5v-212h67q64 0 82.5 11.5t28.5 63.5h36v-202h-36q-10 53 -28 64.5t-83 11.5h-67v-173q0 -70 24 -82q23 -10 90 -10q80 0 111 32q27 32 56 98z"/>
<glyph glyph-name="Ecircumflex" horiz-adv-x="581" unicode="Ê" d="M441 710l-16 -26q-20 8 -42 18.5t-48.5 23t-40.5 19.5q-110 -52 -132 -61l-16 26q50 40 133 123h30q57 -60 132 -123zM536 173l35 -7q-9 -70 -35 -166h-510v35q65 5 80 20t15 78v384q0 64 -13 78.5t-68 19.5v35h471q0 -8 2 -31.5t4 -58t4 -60.5l-36 -5q-18 63 -41 86 q-24 25 -100 25h-48q-28 0 -34.5 -5.5t-6.5 -29.5v-212h67q64 0 82.5 11.5t28.5 63.5h36v-202h-36q-10 53 -28 64.5t-83 11.5h-67v-173q0 -70 24 -82q23 -10 90 -10q80 0 111 32q27 32 56 98z"/>
<glyph glyph-name="Edieresis" horiz-adv-x="581" unicode="Ë" d="M188 828q29 0 48.5 -19.5t19.5 -47.5q0 -27 -20 -46.5t-48 -19.5q-27 0 -47 19.5t-20 46.5q0 28 20 47.5t47 19.5zM398 828q29 0 48.5 -19t19.5 -48q0 -27 -19.5 -46.5t-48.5 -19.5q-27 0 -47 19.5t-20 46.5q0 28 20 47.5t47 19.5zM536 173l35 -7q-9 -70 -35 -166h-510 v35q65 5 80 20t15 78v384q0 64 -13 78.5t-68 19.5v35h471q0 -8 2 -31.5t4 -58t4 -60.5l-36 -5q-18 63 -41 86q-24 25 -100 25h-48q-28 0 -34.5 -5.5t-6.5 -29.5v-212h67q64 0 82.5 11.5t28.5 63.5h36v-202h-36q-10 53 -28 64.5t-83 11.5h-67v-173q0 -70 24 -82 q23 -10 90 -10q80 0 111 32q27 32 56 98z"/>
<glyph glyph-name="Igrave" horiz-adv-x="378" unicode="Ì" d="M258 713l-15 -29l-207 58l-2 12q3 17 20 45.5t31 36.5q66 -46 173 -123zM338 0h-300v35q56 5 69.5 20.5t13.5 77.5v383q0 63 -13.5 78.5t-69.5 20.5v35h300v-35q-56 -5 -69.5 -20.5t-13.5 -78.5v-383q0 -62 13.5 -77.5t69.5 -20.5v-35z"/>
<glyph glyph-name="Iacute" horiz-adv-x="378" unicode="Í" d="M347 755l-4 -12l-206 -60l-15 28q24 17 83.5 59t89.5 63q14 -5 31.5 -31.5t20.5 -46.5zM338 0h-300v35q56 5 69.5 20.5t13.5 77.5v383q0 63 -13.5 78.5t-69.5 20.5v35h300v-35q-56 -5 -69.5 -20.5t-13.5 -78.5v-383q0 -62 13.5 -77.5t69.5 -20.5v-35z"/>
<glyph glyph-name="Icircumflex" horiz-adv-x="378" unicode="Î" d="M336 710l-16 -26q-27 11 -75 34t-57 27q-101 -49 -131 -61l-16 26q50 40 133 123h30q57 -60 132 -123zM338 0h-300v35q56 5 69.5 20.5t13.5 77.5v383q0 63 -13.5 78.5t-69.5 20.5v35h300v-35q-56 -5 -69.5 -20.5t-13.5 -78.5v-383q0 -62 13.5 -77.5t69.5 -20.5v-35z"/>
<glyph glyph-name="Idieresis" horiz-adv-x="378" unicode="Ï" d="M83 828q29 0 48.5 -19.5t19.5 -47.5q0 -27 -20 -46.5t-48 -19.5q-27 0 -47 19.5t-20 46.5q0 28 20 47.5t47 19.5zM293 828q29 0 48.5 -19t19.5 -48q0 -27 -19.5 -46.5t-48.5 -19.5q-27 0 -47 19.5t-20 46.5q0 28 20 47.5t47 19.5zM338 0h-300v35q56 5 69.5 20.5 t13.5 77.5v383q0 63 -13.5 78.5t-69.5 20.5v35h300v-35q-56 -5 -69.5 -20.5t-13.5 -78.5v-383q0 -62 13.5 -77.5t69.5 -20.5v-35z"/>
<glyph glyph-name="Eth" horiz-adv-x="760" unicode="Ð" d="M266 315v-178q0 -54 15 -73t66 -19q96 0 158.5 78.5t62.5 207.5q0 146 -72 220q-56 56 -157 56q-52 0 -64 -14q-9 -9 -9 -49v-179h141v-50h-141zM52 650h300q188 0 280 -88q86 -83 86 -210q0 -176 -124 -268q-112 -84 -297 -84h-253v34q59 6 73.5 22.5t14.5 80.5v178h-94 v50h94v148q0 64 -13 80.5t-67 21.5v35z"/>
<glyph glyph-name="Ntilde" horiz-adv-x="740" unicode="Ñ" d="M324 798q22 0 64 -18q39 -17 61 -17q28 0 49 42l30 -15q-31 -98 -92 -98q-20 0 -70 21q-30 15 -53 15q-27 0 -50 -44l-30 20q33 94 91 94zM724 650v-35q-41 -2 -58.5 -15t-21.5 -47q-9 -93 -9 -166v-397h-48l-416 498h-3v-225q0 -82 8 -162q4 -35 23.5 -49.5t72.5 -16.5 v-35h-245v35q42 3 61 17t22 46q10 82 10 165v209q0 51 -3.5 70.5t-17.5 36.5q-23 30 -83 36v35h185l382 -439h4v176q0 48 -8 164q-4 33 -24.5 47t-74.5 17v35h244z"/>
<glyph glyph-name="Ograve" horiz-adv-x="766" unicode="Ò" d="M456 722l-14 -30l-208 58l-2 12q3 17 20 45.5t31 36.5q17 -12 173 -122zM375 623q-78 0 -129 -76.5t-51 -203.5q0 -133 55.5 -224.5t148.5 -91.5q75 0 123.5 72t48.5 205q0 147 -54 233t-142 86zM393 665q139 0 235 -93.5t96 -239.5q0 -158 -98.5 -252.5t-244.5 -94.5 q-149 0 -244 97t-95 242q0 138 94 239.5t257 101.5z"/>
<glyph glyph-name="Oacute" horiz-adv-x="766" unicode="Ó" d="M536 763l-4 -12l-206 -60l-15 28q24 17 83.5 59t89.5 63q14 -5 31.5 -31.5t20.5 -46.5zM375 623q-78 0 -129 -76.5t-51 -203.5q0 -133 55.5 -224.5t148.5 -91.5q75 0 123.5 72t48.5 205q0 147 -54 233t-142 86zM393 665q139 0 235 -93.5t96 -239.5q0 -158 -98.5 -252.5 t-244.5 -94.5q-149 0 -244 97t-95 242q0 138 94 239.5t257 101.5z"/>
<glyph glyph-name="Ocircumflex" horiz-adv-x="766" unicode="Ô" d="M530 718l-16 -26q-27 11 -75 34t-57 27q-101 -49 -131 -61l-16 26q50 40 133 123h30q57 -60 132 -123zM375 623q-78 0 -129 -76.5t-51 -203.5q0 -133 55.5 -224.5t148.5 -91.5q75 0 123.5 72t48.5 205q0 147 -54 233t-142 86zM393 665q139 0 235 -93.5t96 -239.5 q0 -158 -98.5 -252.5t-244.5 -94.5q-149 0 -244 97t-95 242q0 138 94 239.5t257 101.5z"/>
<glyph glyph-name="Otilde" horiz-adv-x="766" unicode="Õ" d="M333 806q22 0 64 -18q39 -17 61 -17q28 0 49 42l30 -15q-31 -98 -93 -98q-18 0 -70 21q-30 15 -52 15q-27 0 -50 -44l-30 20q33 94 91 94zM375 623q-78 0 -129 -76.5t-51 -203.5q0 -133 55.5 -224.5t148.5 -91.5q75 0 123.5 72t48.5 205q0 147 -54 233t-142 86zM393 665 q139 0 235 -93.5t96 -239.5q0 -158 -98.5 -252.5t-244.5 -94.5q-149 0 -244 97t-95 242q0 138 94 239.5t257 101.5z"/>
<glyph glyph-name="Odieresis" horiz-adv-x="766" unicode="Ö" d="M277 832q29 0 48.5 -19.5t19.5 -47.5q0 -27 -20 -46.5t-48 -19.5q-27 0 -47 19.5t-20 46.5q0 28 20 47.5t47 19.5zM487 832q29 0 48.5 -19t19.5 -48q0 -27 -19.5 -46.5t-48.5 -19.5q-27 0 -47 19.5t-20 46.5q0 28 20 47.5t47 19.5zM375 623q-78 0 -129 -76.5t-51 -203.5 q0 -133 55.5 -224.5t148.5 -91.5q75 0 123.5 72t48.5 205q0 147 -54 233t-142 86zM393 665q139 0 235 -93.5t96 -239.5q0 -158 -98.5 -252.5t-244.5 -94.5q-149 0 -244 97t-95 242q0 138 94 239.5t257 101.5z"/>
<glyph glyph-name="multiply" horiz-adv-x="577" unicode="×" d="M519 60l-49 -50l-182 186l-181 -186l-48 50l180 186l-180 184l48 51l181 -185l182 187l49 -50l-182 -187z"/>
<glyph glyph-name="Oslash" horiz-adv-x="771" unicode="Ø" d="M538 509l-277 -407q23 -36 59.5 -55.5t76.5 -19.5q80 0 131.5 73.5t51.5 210.5q0 119 -42 198zM237 141l278 405q-51 77 -137 77q-79 0 -133.5 -77.5t-54.5 -208.5q0 -113 47 -196zM652 674l-50 -77q58 -47 92.5 -114.5t34.5 -147.5q0 -156 -99.5 -253t-250.5 -97 q-97 0 -172 45l-57 -82l-31 26l53 77q-60 46 -95 117.5t-35 154.5q0 61 22.5 120.5t64 109.5t111 81t154.5 31q98 0 174 -44l51 76z"/>
<glyph glyph-name="Ugrave" horiz-adv-x="729" unicode="Ù" d="M452 713l-14 -29l-207 58l-3 12q3 17 20.5 45.5t30.5 36.5q66 -46 173 -123zM724 650v-35q-77 -4 -85 -59q-9 -56 -9 -139v-109q0 -173 -72 -250q-70 -73 -185 -73q-111 0 -177 52q-83 64 -83 235v235q0 69 -13.5 86t-70.5 22v35h301v-35q-56 -5 -69.5 -22t-13.5 -86 v-217q0 -114 41 -175.5t121 -61.5q171 0 171 257v107q0 79 -10 139q-4 27 -26 41.5t-71 17.5v35h251z"/>
<glyph glyph-name="Uacute" horiz-adv-x="729" unicode="Ú" d="M543 755l-4 -12l-205 -60l-15 28q145 102 173 122q14 -5 31.5 -32t19.5 -46zM724 650v-35q-77 -4 -85 -59q-9 -56 -9 -139v-109q0 -173 -72 -250q-70 -73 -185 -73q-111 0 -177 52q-83 64 -83 235v235q0 69 -13.5 86t-70.5 22v35h301v-35q-56 -5 -69.5 -22t-13.5 -86 v-217q0 -114 41 -175.5t121 -61.5q171 0 171 257v107q0 79 -10 139q-4 27 -26 41.5t-71 17.5v35h251z"/>
<glyph glyph-name="Ucircumflex" horiz-adv-x="729" unicode="Û" d="M532 710l-16 -26q-21 8 -43 18t-48.5 23.5t-40.5 19.5q-115 -55 -131 -61l-16 26q60 49 132 123h31q57 -60 132 -123zM724 650v-35q-77 -4 -85 -59q-9 -56 -9 -139v-109q0 -173 -72 -250q-70 -73 -185 -73q-111 0 -177 52q-83 64 -83 235v235q0 69 -13.5 86t-70.5 22v35 h301v-35q-56 -5 -69.5 -22t-13.5 -86v-217q0 -114 41 -175.5t121 -61.5q171 0 171 257v107q0 79 -10 139q-4 27 -26 41.5t-71 17.5v35h251z"/>
<glyph glyph-name="Udieresis" horiz-adv-x="729" unicode="Ü" d="M278 828q29 0 48.5 -19t19.5 -48q0 -27 -19.5 -46.5t-48.5 -19.5q-27 0 -47 19.5t-20 46.5q0 28 20 47.5t47 19.5zM488 828q29 0 48.5 -19t19.5 -48q0 -27 -19.5 -46.5t-48.5 -19.5q-27 0 -47 19.5t-20 46.5q0 28 20 47.5t47 19.5zM724 650v-35q-77 -4 -85 -59 q-9 -56 -9 -139v-109q0 -173 -72 -250q-70 -73 -185 -73q-111 0 -177 52q-83 64 -83 235v235q0 69 -13.5 86t-70.5 22v35h301v-35q-56 -5 -69.5 -22t-13.5 -86v-217q0 -114 41 -175.5t121 -61.5q171 0 171 257v107q0 79 -10 139q-4 27 -26 41.5t-71 17.5v35h251z"/>
<glyph glyph-name="Yacute" horiz-adv-x="655" unicode="Ý" d="M509 755l-3 -12l-206 -60l-15 28q145 102 173 122q14 -5 31.5 -31.5t19.5 -46.5zM646 650v-35q-47 -5 -69.5 -21.5t-50.5 -62.5q-58 -93 -112 -196q-18 -35 -18 -69v-128q0 -67 15 -82.5t82 -21.5v-34h-325v34q64 5 79 21t15 83v111q0 27 -13 54q-35 71 -124 227 q-27 49 -47 64t-62 21v35h286v-35q-58 -8 -58 -28q0 -6 11 -30q9 -18 114 -217q91 179 104 212q8 19 8 30q0 14 -14.5 21t-52.5 12v35h232z"/>
<glyph glyph-name="Thorn" horiz-adv-x="593" unicode="Þ" d="M252 432v-227q22 -8 47 -8q14 0 31 6t37.5 19.5t34 43.5t13.5 71q0 69 -34.5 100.5t-84.5 31.5q-26 0 -36 -10q-8 -5 -8 -27zM330 650v-35q-52 -6 -65 -22.5t-13 -83.5q28 1 83 1q108 0 166.5 -43t58.5 -131q0 -83 -63 -135t-169 -52l-76 15v-45q0 -49 16.5 -63.5 t75.5 -20.5v-35h-305v35q54 4 68 20.5t14 71.5v398q0 55 -12.5 70t-63.5 20v35h285z"/>
<glyph glyph-name="germandbls" horiz-adv-x="572" unicode="ß" d="M93 442v11q0 48 18 90q28 67 94 114q63 44 129 47q84 -1 130 -45.5t47 -110.5q0 -20 -10 -31q-46 -34 -67.5 -60.5t-21.5 -53.5q0 -18 10.5 -36.5t20.5 -29t35 -35.5q70 -66 70 -137q0 -65 -63 -121t-133 -56q-35 0 -59 15q-19 11 -19 28q0 5 3 13q6 17 21 27q11 10 21 1 q40 -35 77 -35q16 0 29.5 14t13.5 41q0 47 -52 102q-46 47 -66.5 77t-20.5 64q0 8 1 15t3.5 14.5t4.5 12.5t7 12.5t7.5 11t10 11.5t10 10.5t12 12.5t11.5 12q6 6 14 13.5t13 13t7 8.5q6 7 6 35q0 54 -31.5 96t-76.5 42q-18 0 -32 -9t-22 -28t-13.5 -38.5t-7.5 -51t-2.5 -53 t-0.5 -56.5v-314q0 -44 6.5 -55.5t32.5 -16.5v-33h-229v33q42 5 52 16.5t10 54.5v287h-62l-5 13l27 38h40z"/>
<glyph glyph-name="agrave" horiz-adv-x="466" unicode="à" d="M270 502l-31 -13q-29 35 -76.5 92.5t-52.5 63.5l4 14q9 7 41.5 13t52.5 6h8q34 -107 54 -176zM265 79v160q-10 -5 -29 -16t-26 -15q-47 -24 -47 -68q0 -38 19.5 -57.5t40.5 -19.5q19 0 42 16zM465 45l-109 -57q-38 0 -61 21q-16 14 -26 37q-88 -58 -104 -58q-61 0 -98 39 t-37 89q0 38 18 59.5t58 36.5q13 5 45 16.5t49.5 18t37 15.5t27.5 16v30q0 47 -16.5 72.5t-44.5 25.5q-20 0 -33 -18q-16 -19 -29 -69q-9 -34 -42 -34q-21 0 -41.5 15.5t-20.5 34.5q0 22 35 48q82 56 166 71q59 0 98 -29q30 -23 41 -54.5t11 -77.5v-165q0 -59 32 -59 q12 0 34 8z"/>
<glyph glyph-name="aacute" horiz-adv-x="466" unicode="á" d="M217 489l-31 13q7 23 26.5 89t22.5 76q6 4 38 8t56 4q12 0 15 -1l6 -10zM265 79v160q-10 -5 -29 -16t-26 -15q-47 -24 -47 -68q0 -38 19.5 -57.5t40.5 -19.5q19 0 42 16zM465 45l-109 -57q-38 0 -61 21q-16 14 -26 37q-88 -58 -104 -58q-61 0 -98 39t-37 89q0 38 18 59.5 t58 36.5q13 5 45 16.5t49.5 18t37 15.5t27.5 16v30q0 47 -16.5 72.5t-44.5 25.5q-20 0 -33 -18q-16 -19 -29 -69q-9 -34 -42 -34q-21 0 -41.5 15.5t-20.5 34.5q0 22 35 48q82 56 166 71q59 0 98 -29q30 -23 41 -54.5t11 -77.5v-165q0 -59 32 -59q12 0 34 8z"/>
<glyph glyph-name="acircumflex" horiz-adv-x="466" unicode="â" d="M351 506l-27 -22q-17 14 -33.5 29.5t-36 34.5t-29.5 28q-10 -9 -29 -28.5t-36 -35t-34 -28.5l-26 22q48 71 106 173h37q50 -88 108 -173zM265 79v160q-10 -5 -29 -16t-26 -15q-47 -24 -47 -68q0 -38 19.5 -57.5t40.5 -19.5q19 0 42 16zM465 45l-109 -57q-38 0 -61 21 q-16 14 -26 37q-88 -58 -104 -58q-61 0 -98 39t-37 89q0 38 18 59.5t58 36.5q13 5 45 16.5t49.5 18t37 15.5t27.5 16v30q0 47 -16.5 72.5t-44.5 25.5q-20 0 -33 -18q-16 -19 -29 -69q-9 -34 -42 -34q-21 0 -41.5 15.5t-20.5 34.5q0 22 35 48q82 56 166 71q59 0 98 -29 q30 -23 41 -54.5t11 -77.5v-165q0 -59 32 -59q12 0 34 8z"/>
<glyph glyph-name="atilde" horiz-adv-x="466" unicode="ã" d="M110 512l-29 19q34 105 93 105q20 0 62 -21q40 -20 58 -20q27 0 50 46l28 -14q-31 -106 -87 -106q-25 0 -67 22q-34 20 -56 20q-30 0 -52 -51zM265 79v160q-10 -5 -29 -16t-26 -15q-47 -24 -47 -68q0 -38 19.5 -57.5t40.5 -19.5q19 0 42 16zM465 45l-109 -57 q-38 0 -61 21q-16 14 -26 37q-88 -58 -104 -58q-61 0 -98 39t-37 89q0 38 18 59.5t58 36.5q13 5 45 16.5t49.5 18t37 15.5t27.5 16v30q0 47 -16.5 72.5t-44.5 25.5q-20 0 -33 -18q-16 -19 -29 -69q-9 -34 -42 -34q-21 0 -41.5 15.5t-20.5 34.5q0 22 35 48q82 56 166 71 q59 0 98 -29q30 -23 41 -54.5t11 -77.5v-165q0 -59 32 -59q12 0 34 8z"/>
<glyph glyph-name="adieresis" horiz-adv-x="466" unicode="ä" d="M327 519q-27 0 -47 19.5t-20 46.5q0 28 20 47.5t48 19.5t47.5 -19.5t19.5 -47.5q0 -27 -20 -46.5t-48 -19.5zM121 519q-27 0 -47 19.5t-20 46.5q0 28 20.5 47.5t47.5 19.5q29 0 48.5 -19.5t19.5 -47.5q0 -27 -20 -46.5t-49 -19.5zM265 79v160q-10 -5 -29 -16t-26 -15 q-47 -24 -47 -68q0 -38 19.5 -57.5t40.5 -19.5q19 0 42 16zM465 45l-109 -57q-38 0 -61 21q-16 14 -26 37q-88 -58 -104 -58q-61 0 -98 39t-37 89q0 38 18 59.5t58 36.5q13 5 45 16.5t49.5 18t37 15.5t27.5 16v30q0 47 -16.5 72.5t-44.5 25.5q-20 0 -33 -18q-16 -19 -29 -69 q-9 -34 -42 -34q-21 0 -41.5 15.5t-20.5 34.5q0 22 35 48q82 56 166 71q59 0 98 -29q30 -23 41 -54.5t11 -77.5v-165q0 -59 32 -59q12 0 34 8z"/>
<glyph glyph-name="aring" horiz-adv-x="466" unicode="å" d="M228 538q19 0 31 14.5t12 38.5q0 22 -12 36t-32 14t-33 -14t-13 -36q0 -24 13.5 -38.5t33.5 -14.5zM226 499q-39 0 -67.5 25.5t-28.5 66.5q0 40 29 65t68 25q37 0 66 -25t29 -65q0 -41 -29 -66.5t-67 -25.5zM265 79v160q-10 -5 -29 -16t-26 -15q-47 -24 -47 -68 q0 -38 19.5 -57.5t40.5 -19.5q19 0 42 16zM465 45l-109 -57q-38 0 -61 21q-16 14 -26 37q-88 -58 -104 -58q-61 0 -98 39t-37 89q0 38 18 59.5t58 36.5q13 5 45 16.5t49.5 18t37 15.5t27.5 16v30q0 47 -16.5 72.5t-44.5 25.5q-20 0 -33 -18q-16 -19 -29 -69q-9 -34 -42 -34 q-21 0 -41.5 15.5t-20.5 34.5q0 22 35 48q82 56 166 71q59 0 98 -29q30 -23 41 -54.5t11 -77.5v-165q0 -59 32 -59q12 0 34 8z"/>
<glyph glyph-name="ae" horiz-adv-x="671" unicode="æ" d="M225 67q41 0 68 35q-23 54 -23 140q-2 -1 -61 -32q-46 -27 -46 -70q0 -35 19 -54t43 -19zM468 412q-30 0 -52.5 -34t-27.5 -94q114 3 121 3q13 1 18.5 6t5.5 19q0 39 -18 69.5t-47 30.5zM630 119l19 -25q-40 -57 -90 -81.5t-86 -24.5q-110 0 -163 84l-30 -25 q-71 -59 -116 -59q-59 0 -96 38.5t-37 86.5q0 38 18 61.5t57 38.5q147 54 165 67v25q0 45 -20 72.5t-45 27.5q-20 0 -34 -17q-13 -16 -27 -67q-9 -33 -42 -33q-20 0 -41 14.5t-21 32.5q0 25 36 49q79 53 164 70q46 0 81 -25q27 -18 35 -38q28 29 64.5 46t68.5 17 q69 0 117 -49.5t48 -112.5q0 -18 -5.5 -26t-21.5 -12q-36 -7 -245 -15q0 -79 39 -120.5t99 -41.5q53 0 109 42z"/>
<glyph glyph-name="ccedilla" horiz-adv-x="422" unicode="ç" d="M401 122l18 -25q-62 -86 -148 -104l-14 -18q-5 -5 -5 -12q0 -10 19 -29q35 -43 35 -71q0 -65 -123 -104l-14 29q61 31 61 60q0 14 -20 36q-23 25 -23 39q0 13 12 26l32 39q-92 7 -146.5 66t-54.5 147q0 54 27 105t75 86q84 62 168 62q57 0 90 -25q17 -13 15 -31 q0 -22 -15 -41t-28 -19q-8 0 -22 11q-55 51 -102 51q-33 0 -57.5 -36t-24.5 -110q0 -88 46 -132t91 -44q53 0 108 44z"/>
<glyph glyph-name="egrave" horiz-adv-x="437" unicode="è" d="M274 502l-31 -13q-17 21 -47 56.5t-50.5 60t-32.5 39.5l4 14q9 7 41.5 13t52.5 6h8q32 -100 55 -176zM237 414q-30 0 -52.5 -34t-26.5 -92q20 0 59 1t60 2q12 1 16 4.5t5 15.5q0 41 -16.5 72t-44.5 31zM399 123l18 -24q-41 -61 -90.5 -86t-89.5 -25q-96 0 -151.5 62 t-55.5 152q0 109 74 181q71 71 154 71q67 0 114.5 -48.5t47.5 -110.5q0 -34 -29 -38q-89 -10 -238 -16q4 -77 41.5 -119t93.5 -42q61 0 111 43z"/>
<glyph glyph-name="eacute" horiz-adv-x="437" unicode="é" d="M233 489l-31 13q7 23 26.5 89t22.5 76q6 4 38 8t56 4q12 0 15 -1l6 -10zM237 414q-30 0 -52.5 -34t-26.5 -92q20 0 59 1t60 2q12 1 16 4.5t5 15.5q0 41 -16.5 72t-44.5 31zM399 123l18 -24q-41 -61 -90.5 -86t-89.5 -25q-96 0 -151.5 62t-55.5 152q0 109 74 181 q71 71 154 71q67 0 114.5 -48.5t47.5 -110.5q0 -34 -29 -38q-89 -10 -238 -16q4 -77 41.5 -119t93.5 -42q61 0 111 43z"/>
<glyph glyph-name="ecircumflex" horiz-adv-x="437" unicode="ê" d="M359 506l-28 -22q-16 14 -33 29.5t-36 34t-29 28.5q-10 -9 -29 -28.5t-36 -35t-34 -28.5l-27 22q48 70 107 173h37q50 -88 108 -173zM237 414q-30 0 -52.5 -34t-26.5 -92q20 0 59 1t60 2q12 1 16 4.5t5 15.5q0 41 -16.5 72t-44.5 31zM399 123l18 -24q-41 -61 -90.5 -86 t-89.5 -25q-96 0 -151.5 62t-55.5 152q0 109 74 181q71 71 154 71q67 0 114.5 -48.5t47.5 -110.5q0 -34 -29 -38q-89 -10 -238 -16q4 -77 41.5 -119t93.5 -42q61 0 111 43z"/>
<glyph glyph-name="edieresis" horiz-adv-x="437" unicode="ë" d="M333 519q-27 0 -47 19.5t-20 46.5q0 28 20 47.5t48 19.5t47.5 -19.5t19.5 -47.5q0 -27 -20 -46.5t-48 -19.5zM127 519q-27 0 -47 19.5t-20 46.5q0 28 20.5 47.5t47.5 19.5q29 0 48.5 -19.5t19.5 -47.5q0 -27 -20 -46.5t-49 -19.5zM237 414q-30 0 -52.5 -34t-26.5 -92 q20 0 59 1t60 2q12 1 16 4.5t5 15.5q0 41 -16.5 72t-44.5 31zM399 123l18 -24q-41 -61 -90.5 -86t-89.5 -25q-96 0 -151.5 62t-55.5 152q0 109 74 181q71 71 154 71q67 0 114.5 -48.5t47.5 -110.5q0 -34 -29 -38q-89 -10 -238 -16q4 -77 41.5 -119t93.5 -42q61 0 111 43z "/>
<glyph glyph-name="igrave" horiz-adv-x="295" unicode="ì" d="M185 502l-32 -13q-29 35 -76.5 92.5t-52.5 63.5l4 14q9 7 41.5 13t52.5 6h8q32 -100 55 -176zM284 0h-254v33q42 4 52.5 19t10.5 70v190q0 46 -8.5 58t-47.5 18v30q95 11 183 36v-332q0 -57 9.5 -70t54.5 -19v-33z"/>
<glyph glyph-name="iacute" horiz-adv-x="295" unicode="í" d="M147 489l-31 13q7 23 26.5 89t22.5 76q6 4 38 8t56 4q12 0 15 -1l6 -10zM284 0h-254v33q42 4 52.5 19t10.5 70v190q0 46 -8.5 58t-47.5 18v30q95 11 183 36v-332q0 -57 9.5 -70t54.5 -19v-33z"/>
<glyph glyph-name="icircumflex" horiz-adv-x="295" unicode="î" d="M273 506l-28 -22q-22 18 -56.5 51t-42.5 41q-7 -6 -28 -27.5t-37 -36t-33 -28.5l-27 22q57 85 106 173h38q50 -88 108 -173zM284 0h-254v33q42 4 52.5 19t10.5 70v190q0 46 -8.5 58t-47.5 18v30q95 11 183 36v-332q0 -57 9.5 -70t54.5 -19v-33z"/>
<glyph glyph-name="idieresis" horiz-adv-x="295" unicode="ï" d="M247 519q-27 0 -47 19.5t-20 46.5q0 28 20 47.5t48 19.5t47.5 -19.5t19.5 -47.5q0 -27 -20 -46.5t-48 -19.5zM41 519q-27 0 -47 19.5t-20 46.5q0 28 20.5 47.5t47.5 19.5q29 0 48.5 -19.5t19.5 -47.5q0 -27 -20 -46.5t-49 -19.5zM284 0h-254v33q42 4 52.5 19t10.5 70v190 q0 46 -8.5 58t-47.5 18v30q95 11 183 36v-332q0 -57 9.5 -70t54.5 -19v-33z"/>
<glyph glyph-name="eth" horiz-adv-x="522" unicode="ð" d="M265 415q-41 0 -67 -45t-26 -126v-5q0 -96 26 -153.5t70 -57.5q80 0 82 202v12q0 106 -23 138q-26 35 -62 35zM465 656l-123 -63q144 -133 144 -324q0 -142 -66 -211.5t-165 -69.5q-105 0 -165 66t-60 157q0 112 71.5 177.5t169.5 65.5q27 0 48 -9q-13 50 -55 106 l-145 -73l-19 37l137 67q-72 70 -167 86q-3 5 -3 11q0 19 12 24q122 -7 227 -80l140 71z"/>
<glyph glyph-name="ntilde" horiz-adv-x="566" unicode="ñ" d="M167 512l-29 19q34 105 93 105q21 0 62 -21q40 -20 58 -20q29 0 50 46l28 -14q-30 -106 -87 -106q-25 0 -67 22q-34 20 -56 20q-30 0 -52 -51zM549 0h-233v32q32 5 39.5 17t7.5 64v170q0 94 -69 94q-34 0 -74 -31v-242q0 -45 7.5 -56t39.5 -16v-32h-241v32 q48 7 57.5 17.5t9.5 59.5v207q0 44 -8.5 55t-45.5 18v29q86 11 181 38v-74q4 3 26.5 19.5t35.5 24.5q44 28 78 28q61 0 96 -42.5t35 -117.5v-189q0 -46 9 -56.5t49 -16.5v-32z"/>
<glyph glyph-name="ograve" horiz-adv-x="525" unicode="ò" d="M298 502l-31 -13q-29 35 -76.5 92.5t-52.5 63.5l4 14q9 7 41.5 13t52.5 6h8q34 -107 54 -176zM255 415q-34 0 -58 -43.5t-24 -124.5q0 -95 28 -157.5t74 -62.5q78 0 78 172q0 104 -25.5 160t-72.5 56zM268 454q102 0 165 -66t63 -159q0 -114 -68.5 -177.5t-163.5 -63.5 q-111 0 -172.5 67t-61.5 156q0 113 73 178t165 65z"/>
<glyph glyph-name="oacute" horiz-adv-x="525" unicode="ó" d="M260 489l-31 13q7 23 26.5 89t22.5 76q6 4 38 8t56 4q12 0 15 -1l6 -10zM255 415q-34 0 -58 -43.5t-24 -124.5q0 -95 28 -157.5t74 -62.5q78 0 78 172q0 104 -25.5 160t-72.5 56zM268 454q102 0 165 -66t63 -159q0 -114 -68.5 -177.5t-163.5 -63.5q-111 0 -172.5 67 t-61.5 156q0 113 73 178t165 65z"/>
<glyph glyph-name="ocircumflex" horiz-adv-x="525" unicode="ô" d="M388 506l-28 -22q-16 14 -33 29.5t-36 34t-29 28.5q-10 -9 -29 -28.5t-36 -35t-34 -28.5l-27 22q57 85 106 173h38q50 -88 108 -173zM255 415q-34 0 -58 -43.5t-24 -124.5q0 -95 28 -157.5t74 -62.5q78 0 78 172q0 104 -25.5 160t-72.5 56zM268 454q102 0 165 -66 t63 -159q0 -114 -68.5 -177.5t-163.5 -63.5q-111 0 -172.5 67t-61.5 156q0 113 73 178t165 65z"/>
<glyph glyph-name="otilde" horiz-adv-x="525" unicode="õ" d="M144 512l-29 19q34 105 93 105q21 0 62 -21q40 -20 58 -20q29 0 50 46l28 -14q-30 -106 -87 -106q-25 0 -67 22q-34 20 -56 20q-30 0 -52 -51zM255 415q-34 0 -58 -43.5t-24 -124.5q0 -95 28 -157.5t74 -62.5q78 0 78 172q0 104 -25.5 160t-72.5 56zM268 454 q102 0 165 -66t63 -159q0 -114 -68.5 -177.5t-163.5 -63.5q-111 0 -172.5 67t-61.5 156q0 113 73 178t165 65z"/>
<glyph glyph-name="odieresis" horiz-adv-x="525" unicode="ö" d="M365 519q-27 0 -47 19.5t-20 46.5q0 28 20 47.5t48 19.5t47.5 -19.5t19.5 -47.5q0 -27 -20 -46.5t-48 -19.5zM159 519q-27 0 -47 19.5t-20 46.5q0 28 20.5 47.5t47.5 19.5q29 0 48.5 -19.5t19.5 -47.5q0 -27 -20 -46.5t-49 -19.5zM255 415q-34 0 -58 -43.5t-24 -124.5 q0 -95 28 -157.5t74 -62.5q78 0 78 172q0 104 -25.5 160t-72.5 56zM268 454q102 0 165 -66t63 -159q0 -114 -68.5 -177.5t-163.5 -63.5q-111 0 -172.5 67t-61.5 156q0 113 73 178t165 65z"/>
<glyph glyph-name="divide" horiz-adv-x="577" unicode="÷" d="M289 159q24 0 42 -18t18 -42t-18.5 -42.5t-41.5 -18.5q-25 0 -42.5 18.5t-17.5 42.5q0 25 17.5 42.5t42.5 17.5zM531 221h-484v65h484v-65zM290 349q-22 0 -40.5 18t-18.5 42t18.5 42.5t40.5 18.5q25 0 43 -18.5t18 -42.5q0 -25 -18 -42.5t-43 -17.5z"/>
<glyph glyph-name="oslash" horiz-adv-x="531" unicode="ø" d="M352 323l-154 -236q29 -59 76 -59q95 0 95 182q0 66 -17 113zM180 127l152 234q-27 52 -75 52q-35 0 -65 -43.5t-30 -133.5q0 -58 18 -109zM443 457l-33 -49q91 -64 91 -177q0 -115 -69.5 -179t-167.5 -64q-63 0 -117 27l-36 -51l-29 23l35 50q-43 31 -65 77.5t-22 96.5 q0 111 74 177t167 66q60 0 109 -26l35 50z"/>
<glyph glyph-name="ugrave" horiz-adv-x="555" unicode="ù" d="M314 502l-32 -13q-29 35 -76.5 92.5t-52.5 63.5l4 14q9 7 41.5 13t52.5 6h8q32 -100 55 -176zM542 56v-32q-70 -9 -183 -36l-8 7v60q-40 -31 -50 -37q-46 -30 -87 -30q-62 0 -96.5 37.5t-34.5 104.5v207q0 36 -8.5 45.5t-46.5 19.5v29q90 4 185 18q-3 -63 -3 -151v-145 q0 -45 20 -66.5t49 -21.5q43 0 72 28v243q0 38 -9.5 48t-54.5 18v29q106 5 191 18v-325q0 -40 7.5 -51.5t34.5 -14.5z"/>
<glyph glyph-name="uacute" horiz-adv-x="555" unicode="ú" d="M270 489l-31 13q7 23 26.5 89t22.5 76q6 4 38 8t56 4q12 0 15 -1l6 -10zM542 56v-32q-70 -9 -183 -36l-8 7v60q-40 -31 -50 -37q-46 -30 -87 -30q-62 0 -96.5 37.5t-34.5 104.5v207q0 36 -8.5 45.5t-46.5 19.5v29q90 4 185 18q-3 -63 -3 -151v-145q0 -45 20 -66.5 t49 -21.5q43 0 72 28v243q0 38 -9.5 48t-54.5 18v29q106 5 191 18v-325q0 -40 7.5 -51.5t34.5 -14.5z"/>
<glyph glyph-name="ucircumflex" horiz-adv-x="555" unicode="û" d="M399 506l-27 -22q-17 14 -33.5 29.5t-36 34.5t-29.5 28q-10 -9 -29 -28.5t-36 -35t-34 -28.5l-26 22q48 71 106 173h37q50 -88 108 -173zM542 56v-32q-70 -9 -183 -36l-8 7v60q-40 -31 -50 -37q-46 -30 -87 -30q-62 0 -96.5 37.5t-34.5 104.5v207q0 36 -8.5 45.5 t-46.5 19.5v29q90 4 185 18q-3 -63 -3 -151v-145q0 -45 20 -66.5t49 -21.5q43 0 72 28v243q0 38 -9.5 48t-54.5 18v29q106 5 191 18v-325q0 -40 7.5 -51.5t34.5 -14.5z"/>
<glyph glyph-name="udieresis" horiz-adv-x="555" unicode="ü" d="M371 519q-27 0 -47 19.5t-20 46.5q0 28 20 47.5t48 19.5t47.5 -19.5t19.5 -47.5q0 -27 -20 -46.5t-48 -19.5zM165 519q-27 0 -47 19.5t-20 46.5q0 28 20.5 47.5t47.5 19.5q29 0 48.5 -19.5t19.5 -47.5q0 -27 -20 -46.5t-49 -19.5zM542 56v-32q-70 -9 -183 -36l-8 7v60 q-40 -31 -50 -37q-46 -30 -87 -30q-62 0 -96.5 37.5t-34.5 104.5v207q0 36 -8.5 45.5t-46.5 19.5v29q90 4 185 18q-3 -63 -3 -151v-145q0 -45 20 -66.5t49 -21.5q43 0 72 28v243q0 38 -9.5 48t-54.5 18v29q106 5 191 18v-325q0 -40 7.5 -51.5t34.5 -14.5z"/>
<glyph glyph-name="yacute" horiz-adv-x="465" unicode="ý" d="M250 489l-31 13q7 23 26.5 89t22.5 76q6 4 38 8t56 4q12 0 15 -1l6 -10zM483 442v-32q-36 -6 -50 -18.5t-33 -53.5q-11 -23 -116 -275q-67 -163 -105 -280q-9 -27 -37 -27q-23 0 -46.5 19t-23.5 44q0 21 27 39q57 30 82 71q13 25 19 41q3 9 3 17q0 13 -7 30 q-83 231 -126 331q-14 33 -28 45t-49 17v32h248v-32q-25 -5 -34.5 -10t-9.5 -16q0 -9 4 -20l75 -222q33 82 75 213q4 11 4 20q0 14 -12 22t-40 13v32h180z"/>
<glyph glyph-name="thorn" horiz-adv-x="538" unicode="þ" d="M200 363v-289q41 -37 74 -37q42 0 73.5 45.5t31.5 128.5q0 84 -36 126.5t-81 42.5q-24 0 -62 -17zM200 703v-303q62 33 87 46q18 8 41 8q85 0 133 -59t48 -136q0 -104 -71 -176.5t-174 -94.5q-32 0 -64 12v-112q0 -53 14 -67.5t73 -18.5v-32h-280v32q44 4 54.5 16.5 t10.5 65.5v679q0 44 -10 57t-54 18v29q100 10 192 36z"/>
<glyph glyph-name="OE" horiz-adv-x="992" unicode="Œ" d="M531 100v457q0 37 -28 48q-30 13 -76 13q-105 0 -169.5 -77.5t-64.5 -211.5q0 -126 62 -212t173 -86q43 0 67 10q21 8 28.5 20.5t7.5 38.5zM947 179l35 -8q-18 -97 -35 -171h-325q-60 0 -105 -5q-60 -6 -102 -6q-183 0 -278.5 94t-95.5 234q0 151 107.5 247.5t284.5 96.5 q8 0 104 -6q73 -5 89 -5h295q2 -40 11 -148l-37 -5q-16 58 -42 84q-22 25 -105 25h-46q-27 0 -33 -5.5t-6 -29.5v-212h70q64 0 83 12t29 63h36v-202h-36q-11 53 -29 64.5t-83 11.5h-70v-162q0 -50 4.5 -69t19.5 -25q20 -9 88 -9q82 0 112 33q31 31 60 103z"/>
<glyph glyph-name="oe" horiz-adv-x="770" unicode="œ" d="M255 414q-33 0 -58.5 -45.5t-25.5 -128.5q0 -87 28.5 -148.5t75.5 -62.5q19 0 35 12t30 53.5t14 108.5v10q0 98 -26.5 149.5t-72.5 51.5zM563 412q-29 0 -53.5 -34.5t-28.5 -94.5q81 2 126 4q13 0 17.5 4t4.5 18q0 40 -18.5 71.5t-47.5 31.5zM726 119l18 -24 q-38 -59 -87 -83t-86 -24q-100 0 -159 76q-64 -76 -155 -76q-106 0 -168 68t-62 157q0 111 73 176t164 65q101 0 161 -83q75 83 159 83q70 0 119 -49t49 -113q0 -30 -27 -36q-33 -9 -249 -17q1 -73 38.5 -117.5t102.5 -44.5q55 0 109 42z"/>
<glyph glyph-name="Scaron" horiz-adv-x="505" unicode="Š" d="M393 843l15 -26q-49 -38 -132 -123h-30q-66 69 -133 123l17 26q66 -27 131 -59q59 29 132 59zM442 495l-34 -8q-46 137 -140 137q-42 0 -69.5 -28t-27.5 -71q0 -40 28 -68.5t96 -62.5q87 -42 132 -89.5t45 -116.5q0 -87 -67.5 -145t-175.5 -58q-54 0 -101 14 q-29 8 -61 22q-14 39 -29 170l35 11q12 -38 32.5 -75t59.5 -69t83 -32q46 0 73 29t27 76q0 42 -29 73t-90 63q-87 44 -130.5 89.5t-43.5 112.5q0 85 62.5 140.5t166.5 55.5q70 0 139 -27q2 -21 9 -70t10 -73z"/>
<glyph glyph-name="scaron" horiz-adv-x="383" unicode="š" d="M300 689l27 -22q-43 -62 -106 -173h-38q-44 80 -108 173l27 22q18 -14 34 -29t36.5 -35t29.5 -28q80 77 98 92zM338 322l-30 -9q-45 102 -106 102q-20 0 -35.5 -15.5t-15.5 -38.5q0 -44 74 -77q69 -30 102 -62t33 -86q0 -69 -54.5 -108.5t-124.5 -39.5q-37 0 -73 10.5 t-53 23.5q-5 12 -10 55.5t-6 78.5l30 3q19 -54 53 -93t76 -39q24 0 39.5 15.5t15.5 38.5q0 24 -16 43.5t-60 39.5q-26 13 -40.5 21.5t-38.5 27.5t-36 44t-12 55q0 60 45.5 101t122.5 41q55 0 96 -18q16 -38 24 -114z"/>
<glyph glyph-name="Ydieresis" horiz-adv-x="655" unicode="Ÿ" d="M238 828q29 0 48.5 -19.5t19.5 -47.5q0 -27 -20 -46.5t-48 -19.5q-27 0 -47 19.5t-20 46.5q0 28 20 47.5t47 19.5zM448 828q29 0 48.5 -19t19.5 -48q0 -27 -19.5 -46.5t-48.5 -19.5q-27 0 -47 19.5t-20 46.5q0 28 20 47.5t47 19.5zM646 650v-35q-47 -5 -69.5 -21.5 t-50.5 -62.5q-58 -93 -112 -196q-18 -35 -18 -69v-128q0 -67 15 -82.5t82 -21.5v-34h-325v34q64 5 79 21t15 83v111q0 27 -13 54q-35 71 -124 227q-27 49 -47 64t-62 21v35h286v-35q-58 -8 -58 -28q0 -6 11 -30q9 -18 114 -217q91 179 104 212q8 19 8 30q0 14 -14.5 21 t-52.5 12v35h232z"/>
<glyph glyph-name="circumflex" horiz-adv-x="400" unicode="ˆ" d="M326 506l-28 -22q-17 14 -33.5 29.5t-36 34.5t-29.5 28q-1 -1 -38.5 -37.5t-59.5 -54.5l-27 22q48 71 106 173h37q45 -80 109 -173z"/>
<glyph glyph-name="tilde" horiz-adv-x="400" unicode="˜" d="M81 512l-29 19q34 105 93 105q21 0 62 -21q40 -20 58 -20q29 0 50 46l28 -14q-30 -106 -87 -106q-25 0 -67 22q-34 20 -56 20q-30 0 -52 -51z"/>
<glyph glyph-name="Alpha" horiz-adv-x="706" unicode="Α" d="M390 266l-74 216h-3q-12 -32 -25.5 -68.5t-29 -80t-24.5 -67.5h156zM687 0h-286v35q31 5 43.5 12t12.5 21q0 10 -8 32q-14 41 -40 113h-192q-25 -71 -36 -107q-7 -24 -7 -34q0 -17 14.5 -25t53.5 -12v-35h-224l1 35q50 6 68 23t43 80l205 514l51 13q177 -483 191 -521 q26 -66 44.5 -84.5t65.5 -24.5v-35z"/>
<glyph glyph-name="Beta" horiz-adv-x="637" unicode="Β" d="M253 323v-187q0 -53 15.5 -73.5t53.5 -20.5h4q48 1 83.5 36.5t35.5 103.5q0 141 -172 141h-20zM253 363h23q72 0 105.5 29.5t33.5 91.5q0 63 -31.5 93.5t-76.5 30.5q-33 0 -45 -12q-9 -9 -9 -43v-190zM401 353v-4q193 -23 193 -156q0 -99 -94 -150q-76 -43 -211 -43h-254 v35q58 5 72 20.5t14 78.5v382q0 63 -13 78.5t-67 20.5v35h292q112 0 165 -35q59 -38 59 -114q0 -65 -45.5 -100t-110.5 -48z"/>
<glyph glyph-name="Gamma" horiz-adv-x="541" unicode="Γ" d="M518 494l-36 -6q-20 63 -36 84q-23 34 -99 34h-52q-26 0 -32.5 -6t-6.5 -30v-428q0 -70 14 -86t78 -21v-35h-310v35q57 5 70.5 21t13.5 86v369q0 66 -13.5 82.5t-70.5 21.5v35h469q5 -86 11 -156z"/>
<glyph glyph-name="uni0394" horiz-adv-x="662" unicode="Δ" d="M462 58l-172 429l-171 -429h343zM622 0h-583v29l271 626l40 10l272 -636v-29z"/>
<glyph glyph-name="Epsilon" horiz-adv-x="581" unicode="Ε" d="M536 173l35 -7q-9 -70 -35 -166h-510v35q65 5 80 20t15 78v384q0 64 -13 78.5t-68 19.5v35h471q0 -8 2 -31.5t4 -58t4 -60.5l-36 -5q-18 63 -41 86q-24 25 -100 25h-48q-28 0 -34.5 -5.5t-6.5 -29.5v-212h67q64 0 82.5 11.5t28.5 63.5h36v-202h-36q-10 53 -28 64.5 t-83 11.5h-67v-173q0 -70 24 -82q23 -10 90 -10q80 0 111 32q27 32 56 98z"/>
<glyph glyph-name="Zeta" horiz-adv-x="619" unicode="Ζ" d="M573 193l34 -8q-23 -140 -37 -185h-530l-12 17q125 188 382 588h-126q-71 0 -97.5 -8t-39.5 -27q-25 -34 -39 -95l-34 1q2 42 6.5 109t5.5 90h26q11 -17 21.5 -21t35.5 -4h407l8 -15q-257 -398 -374 -584q49 -6 124 -6q142 0 177 33q34 33 62 115z"/>
<glyph glyph-name="Eta" horiz-adv-x="783" unicode="Η" d="M746 650v-35q-59 -5 -71.5 -19.5t-12.5 -78.5v-385q0 -62 13 -77t71 -20v-35h-305v35q60 5 73.5 20t13.5 78v186h-273v-186q0 -63 13 -78t69 -20v-35h-298v35q56 5 69 20t13 78v384q0 63 -13.5 78t-72.5 20v35h300v-35q-55 -5 -67.5 -20t-12.5 -78v-147h273v147 q0 63 -13 78t-69 20v35h300z"/>
<glyph glyph-name="Theta" horiz-adv-x="760" unicode="Θ" d="M494 222h-34q-6 42 -15 52.5t-38 10.5h-55q-29 0 -38.5 -10.5t-14.5 -52.5h-35v229h35q5 -41 14.5 -51.5t39.5 -10.5h55q29 0 37.5 10t14.5 52h34v-229zM372 621q-78 0 -127.5 -75.5t-49.5 -203.5q0 -135 54 -224t148 -89q76 0 122 69t46 204q0 149 -52 234t-141 85z M387 665q139 0 235 -94t96 -238q0 -155 -98 -251.5t-243 -96.5q-148 0 -241.5 96t-93.5 239q0 63 22.5 123.5t64 110.5t109 80.5t149.5 30.5z"/>
<glyph glyph-name="Iota" horiz-adv-x="378" unicode="Ι" d="M338 0h-300v35q56 5 69.5 20.5t13.5 77.5v383q0 63 -13.5 78.5t-69.5 20.5v35h300v-35q-56 -5 -69.5 -20.5t-13.5 -78.5v-383q0 -62 13.5 -77.5t69.5 -20.5v-35z"/>
<glyph glyph-name="Kappa" horiz-adv-x="703" unicode="Κ" d="M699 0h-201q-86 118 -197 279q-24 35 -44 35h-5v-180q0 -63 14 -78.5t72 -20.5v-35h-299v35q55 5 68.5 20.5t13.5 78.5v382q0 63 -13.5 78.5t-70.5 20.5v35h294v-35q-54 -5 -66.5 -20.5t-12.5 -78.5v-170q34 10 76 53q77 77 140 161q15 20 15 31q0 15 -40 21l-18 3v35 h260v-35q-50 -5 -84.5 -19.5t-73.5 -50.5q-27 -24 -50 -48t-55 -58t-41 -43q98 -145 210 -287q30 -38 53.5 -53.5t54.5 -20.5v-35z"/>
<glyph glyph-name="Lambda" horiz-adv-x="699" unicode="Λ" d="M682 0h-287v35q33 5 46 13t13 23q0 8 -9 35q-6 18 -57.5 161.5t-76.5 213.5h-3q-100 -279 -129 -370q-8 -26 -8 -38q0 -16 14.5 -24t53.5 -14v-35h-223l1 35q46 6 66 25.5t46 84.5q16 41 89 223.5t111 282.5l52 14q162 -444 190 -516q26 -67 47.5 -88t63.5 -26v-35z"/>
<glyph glyph-name="Mu" horiz-adv-x="888" unicode="Μ" d="M860 0h-296v35q54 6 67 20t13 72v15l-2 385h-5l-221 -520h-28l-204 510h-4l-12 -261q-3 -63 -3 -100t3 -61q3 -33 21 -44t69 -16v-35h-240v35q41 4 58.5 17.5t22.5 40.5q13 70 21 189l16 197q2 22 2 55q0 47 -16.5 61.5t-70.5 19.5v35h207l193 -438l196 438h201v-35 q-55 -5 -68.5 -17.5t-13.5 -57.5v-24l9 -374q2 -69 14.5 -85t70.5 -22v-35z"/>
<glyph glyph-name="Nu" horiz-adv-x="740" unicode="Ν" d="M724 650v-35q-41 -2 -58.5 -15t-21.5 -47q-9 -93 -9 -166v-397h-48l-416 498h-3v-225q0 -82 8 -162q4 -35 23.5 -49.5t72.5 -16.5v-35h-245v35q42 3 61 17t22 46q10 82 10 165v209q0 51 -3.5 70.5t-17.5 36.5q-23 30 -83 36v35h185l382 -439h4v176q0 48 -8 164 q-4 33 -24.5 47t-74.5 17v35h244z"/>
<glyph glyph-name="Xi" horiz-adv-x="644" unicode="Ξ" d="M595 199l-12 -199h-519l-13 199h34q11 -29 14.5 -36.5t13 -23.5t19 -20t26 -8t41.5 -4h249q20 0 34.5 1.5t26 9t17 10.5t14 19.5t10.5 21.5l12 30h33zM499 225h-35q-7 42 -18.5 52.5t-51.5 10.5h-142q-42 0 -53 -10.5t-19 -54.5h-33v228h33q8 -42 19 -52t54 -10h141 q40 0 51.5 10.5t18.5 51.5h34zM570 469h-34q-13 52 -25 66t-55 14h-264q-42 0 -55 -14.5t-27 -65.5h-33l7 181h478z"/>
<glyph glyph-name="Omicron" horiz-adv-x="766" unicode="Ο" d="M375 623q-78 0 -129 -76.5t-51 -203.5q0 -133 55.5 -224.5t148.5 -91.5q75 0 123.5 72t48.5 205q0 147 -54 233t-142 86zM393 665q139 0 235 -93.5t96 -239.5q0 -158 -98.5 -252.5t-244.5 -94.5q-149 0 -244 97t-95 242q0 138 94 239.5t257 101.5z"/>
<glyph glyph-name="Pi" horiz-adv-x="761" unicode="Π" d="M727 650v-35q-61 -5 -74 -20t-13 -79v-383q0 -63 13.5 -78t73.5 -20v-35h-301v35q55 5 67.5 20.5t12.5 77.5v439q0 23 -6 28.5t-29 5.5h-181q-23 0 -29 -6t-6 -30v-437q0 -62 12 -77.5t63 -20.5v-35h-295v35q58 5 72 20.5t14 77.5v383q0 63 -14 78.5t-75 20.5v35h695z "/>
<glyph glyph-name="Rho" horiz-adv-x="599" unicode="Ρ" d="M253 570v-260q24 -10 54 -10q17 0 34.5 6.5t37.5 22.5t32.5 50.5t12.5 81.5q0 78 -36.5 114t-88.5 36q-25 0 -37 -10q-9 -9 -9 -31zM43 650h275q121 0 175 -39q74 -50 74 -147q0 -94 -58 -145.5t-146 -62.5q-15 -2 -42 -2l-68 16v-137q0 -63 15 -78.5t80 -20.5v-34h-311 v34q57 5 70.5 20.5t13.5 78.5v383q0 63 -12.5 78t-65.5 21v35z"/>
<glyph glyph-name="Sigma" horiz-adv-x="612" unicode="Σ" d="M589 197l-39 -197h-520v25l250 278l-238 321v26h489q3 -43 11 -165l-35 -5q-11 40 -35 83q-13 24 -34.5 33.5t-66.5 9.5h-148l177 -240l-227 -258h252q55 0 79 18.5t50 77.5z"/>
<glyph glyph-name="Tau" horiz-adv-x="641" unicode="Τ" d="M616 481l-36 -2q-18 77 -44 103q-23 24 -101 24h-46v-473q0 -63 15.5 -78t82.5 -20v-35h-326v35q64 5 79 20t15 78v473h-34q-56 0 -79 -6.5t-36 -20.5q-22 -23 -42 -101h-36q2 31 6.5 100t5.5 97h24q11 -16 22.5 -20.5t34.5 -4.5h402q36 0 58 25h24q2 -77 11 -194z"/>
<glyph glyph-name="Upsilon" horiz-adv-x="666" unicode="Υ" d="M491 0h-318v36q64 5 78.5 18.5t14.5 74.5v68q0 147 -36 235q-65 161 -196 161q-12 0 -28 -3l-6 31q29 17 71.5 30.5t76.5 13.5q93 0 143 -68q26 -35 41.5 -93.5t19 -95t7.5 -101.5h8q9 75 37.5 152t72.5 131q63 75 130 75q19 0 34.5 -19.5t21.5 -42.5l-2 -9h-14 q-37 0 -82 -29t-84 -91q-81 -130 -81 -278v-67q0 -34 1.5 -49.5t13.5 -26t26 -12.5t50 -5v-36z"/>
<glyph glyph-name="Phi" horiz-adv-x="787" unicode="Φ" d="M458 536v-409q21 4 40 11t40.5 22t37 36.5t26 56.5t10.5 79q0 51 -15 91t-39 62.5t-49 34.5t-51 16zM329 127v409q-25 -4 -49.5 -15.5t-49 -33.5t-39.5 -61t-15 -90q0 -99 46.5 -149.5t106.5 -59.5zM521 658v-34q-42 -4 -52.5 -12t-10.5 -38q45 -2 91.5 -15t93 -39.5 t75.5 -74.5t29 -111q0 -51 -20 -93.5t-50.5 -69.5t-70 -45.5t-76.5 -27t-72 -9.5q0 -32 10.5 -41.5t52.5 -13.5v-34h-255v34q42 4 52.5 13.5t10.5 41.5q-45 1 -91.5 14t-92.5 39.5t-75.5 74.5t-29.5 111q0 62 29.5 111t75.5 76.5t93 42t91 16.5q0 29 -10 37.5t-48 12.5v34 h250z"/>
<glyph glyph-name="Chi" horiz-adv-x="693" unicode="Χ" d="M699 0h-321v35q55 10 55 29q0 11 -11 30q-3 4 -14.5 23.5t-35.5 60t-56 95.5q-71 -105 -110 -176q-12 -21 -12 -32q0 -12 14.5 -18t50.5 -12v-35h-251v35q78 9 119 55q104 132 163 222q-108 178 -142 231q-22 36 -48 51.5t-75 20.5v35h302v-35q-49 -12 -49 -28 q0 -6 7 -20q16 -30 90 -151q49 65 90 140q10 20 10 28q0 11 -12.5 17.5t-45.5 13.5v35h241v-35q-50 -7 -76 -20t-56 -49q-30 -34 -125 -165q20 -32 76.5 -122t89.5 -141q30 -47 54.5 -62.5t77.5 -20.5v-35z"/>
<glyph glyph-name="Psi" horiz-adv-x="788" unicode="Ψ" d="M765 659l8 -34q-30 -12 -41.5 -33t-19.5 -69l-12 -68q-10 -57 -29 -88.5t-52 -55.5q-57 -42 -160 -48v-132q0 -60 13.5 -75.5t68.5 -21.5v-34h-298v34q54 6 68 21.5t14 75.5v132q-111 6 -166 48q-35 26 -54 58t-27 91l-9 63q-8 61 -17 75q-11 17 -38 27l9 34 q111 -8 148 -51q13 -15 20.5 -35.5t15.5 -67.5l10 -60q13 -78 33.5 -105.5t74.5 -34.5v213q0 60 -13 75.5t-64 21.5v35h287v-35q-51 -6 -63.5 -21.5t-12.5 -75.5v-213q53 7 73.5 35t35.5 110l10 54q8 45 17.5 67.5t26.5 38.5q40 41 143 49z"/>
<glyph glyph-name="alpha" horiz-adv-x="537" unicode="α" d="M221 398q-26 0 -46.5 -44.5t-20.5 -106.5q0 -73 28 -122t58 -49q35 0 60 37.5t25 98.5v26q0 70 -32.5 115t-71.5 45zM525 92l16 -25q-16 -37 -48 -58t-65 -21q-79 0 -99 105h-2q-61 -105 -140 -105q-58 0 -107.5 61t-49.5 145q0 73 35.5 132.5t91.5 95.5t92 36 q25 0 49.5 -24.5t39.5 -63.5h3q4 24 11 40q15 13 47 26.5t57 18.5l16 -10q-11 -31 -22.5 -105.5t-11.5 -139.5q0 -61 14 -91.5t35 -30.5q20 0 38 14z"/>
<glyph glyph-name="beta" horiz-adv-x="535" unicode="β" d="M230 338l19 65q44 6 67 23q28 26 28 88q0 63 -27.5 100t-64.5 37q-47 0 -59.5 -59t-12.5 -196q0 -179 7 -317q49 -33 98 -33q45 0 69 27.5t24 97.5q0 80 -39 123.5t-92 43.5h-17zM68 -194v553q0 101 18.5 164.5t61.5 108.5q67 71 148 71q73 0 115.5 -41.5t42.5 -108.5 q0 -28 -9 -50.5t-30.5 -43.5t-31.5 -29t-37 -27q60 -10 103 -46q56 -46 56 -129q0 -56 -30 -105t-72 -77t-81 -44t-62 -16q-34 0 -73 36q1 -42 6.5 -135.5t6.5 -119.5l-13 -11q-32 1 -68.5 14t-50.5 36z"/>
<glyph glyph-name="gamma" horiz-adv-x="504" unicode="γ" d="M312 81h4q20 37 48.5 120.5t28.5 140.5q0 24 -16 61q-3 10 4 18q10 13 29 23.5t33 10.5q20 0 30 -19.5t10 -48.5q0 -35 -15.5 -80t-30 -75t-59.5 -115q-39 -74 -57 -124q1 -8 7.5 -82.5t7.5 -103.5q-18 -15 -60 -32.5t-69 -18.5l-17 15q1 20 9 56t19.5 82.5t14.5 62.5 q1 64 -24.5 159.5t-73.5 170.5q-23 36 -42 51t-49 15q-6 0 -26 -2l-7 27q85 61 140 61q65 0 108 -122q36 -95 53 -251z"/>
<glyph glyph-name="delta" horiz-adv-x="509" unicode="δ" d="M352 185q0 40 -11 74.5t-33.5 64t-34.5 42t-35 33.5q-69 -36 -69 -183q0 -81 29 -134.5t70 -53.5q42 0 63 41.5t21 115.5zM458 577l-11 -21q-92 79 -203 79q-44 0 -44 -20q0 -13 95 -101q13 -13 20 -19q88 -78 126 -137t38 -135q0 -110 -67 -172.5t-158 -62.5 q-106 0 -165 65.5t-59 154.5q0 84 49.5 137.5t131.5 78.5q-89 91 -89 142q0 48 52.5 92.5t116.5 44.5q65 0 110.5 -40t56.5 -86z"/>
<glyph glyph-name="epsilon" horiz-adv-x="427" unicode="ε" d="M395 131l24 -26q-72 -117 -203 -117q-79 0 -130.5 36.5t-51.5 98.5q0 47 32.5 70t91.5 39v2q-53 10 -79.5 33t-26.5 64q0 57 56 90t139 33q72 0 109.5 -23t37.5 -56q0 -18 -16 -32.5t-35 -14.5h-2h-3q-15 0 -23 19q-14 33 -28.5 50t-40.5 17q-27 0 -44 -21t-17 -54 q0 -31 17.5 -48.5t51.5 -17.5q16 0 42 2t27 2l5 -9l-25 -64q-34 4 -56 4q-71 0 -71 -54q0 -39 27 -62.5t68 -23.5q69 0 124 63z"/>
<glyph glyph-name="zeta" horiz-adv-x="383" unicode="ζ" d="M123 726l25 -9q-1 -4 -1 -12q0 -40 29.5 -65.5t61.5 -27.5q83 76 126 76q21 0 22 -17q0 -19 -12 -45t-28 -35q-41 -26 -95 -27q-46 -51 -71.5 -132.5t-26.5 -167.5q0 -64 18.5 -99t61.5 -49q9 -3 41 -14q47 -15 70.5 -39.5t23.5 -74.5q0 -75 -84 -159l-29 17q20 44 20 80 q0 25 -16 42.5t-56 29.5q-11 4 -30.5 10.5l-28.5 9.5q-110 39 -110 196q0 101 48.5 193.5t118.5 160.5q-57 6 -90.5 29.5t-38.5 55.5q0 14 15 35.5t36 37.5z"/>
<glyph glyph-name="eta" horiz-adv-x="530" unicode="η" d="M467 -235l-8 -9q-23 0 -64 13.5t-63 30.5q7 376 7 475q0 101 -69 101q-7 0 -13 -1t-11.5 -3t-9.5 -3.5t-10 -5.5t-8 -5.5l-8 -6t-7 -5.5v-346q-43 -4 -131 -12q4 64 4 132v188q0 44 -8 54.5t-45 20.5v29q15 8 73 23.5t90 18.5q17 -20 17 -69q13 11 47 34q51 35 86 35 q126 0 126 -172v-120q1 -99 3 -242t2 -155z"/>
<glyph glyph-name="theta" horiz-adv-x="509" unicode="θ" d="M346 332h-182q1 -132 27 -218.5t68 -86.5q85 0 87 305zM164 389h181q-8 275 -89 275q-41 0 -65.5 -80.5t-26.5 -194.5zM477 344q0 -99 -23.5 -177.5t-76 -128.5t-128.5 -50q-71 0 -121.5 50t-73 128.5t-22.5 177.5q0 152 60.5 255.5t165.5 103.5q73 0 123.5 -50 t73 -129.5t22.5 -179.5z"/>
<glyph glyph-name="iota" horiz-adv-x="279" unicode="ι" d="M270 72l10 -29q-65 -55 -122 -55q-39 0 -64.5 26.5t-25.5 88.5v328l128 24v-328q0 -63 37 -63q20 0 37 8z"/>
<glyph glyph-name="kappa" horiz-adv-x="508" unicode="κ" d="M496 74l12 -27q-47 -59 -119 -59q-29 0 -51.5 14t-46.5 53q-2 4 -75 145q-3 -4 -10 -13.5t-11 -14.5v-172l-126 -12q3 45 3 148v185q0 34 -8 42.5t-46 18.5v28q15 7 76 24t89 20q12 -16 12 -90v-138q77 106 135 171q50 57 89 57q26 0 41 -16t15 -39q0 -28 -20 -46 q-9 -7 -18 -3q-23 9 -42 9q-49 0 -96 -63q18 -39 52 -98.5t57 -90.5q30 -41 55 -41q15 0 33 8z"/>
<glyph glyph-name="lambda" horiz-adv-x="512" unicode="λ" d="M495 61l11 -29q-54 -44 -127 -44q-45 0 -69 38t-49 128q-45 164 -50 181q-72 -238 -104 -326l-82 -21l-10 14q112 222 175 415q-19 68 -32 107q-19 59 -38.5 80.5t-44.5 21.5q-19 0 -36 -7l-9 27q60 57 116 57q54 0 87.5 -57t83.5 -235q57 -201 82 -272q30 -82 67 -82 q18 0 29 4z"/>
<glyph glyph-name="uni03BC" horiz-adv-x="538" unicode="μ" d="M527 69l12 -28q-16 -22 -46.5 -37.5t-68.5 -15.5q-73 0 -90 69h-2q-57 -69 -112 -69q-52 0 -78 43h-2v-15q0 -50 12 -129t23 -118l-15 -13q-22 2 -49.5 14t-41.5 28q-2 14 -2 54q0 25 1 100.5t1 116.5v261q0 57 -4 101l128 24q3 -29 3 -114v-172q0 -51 21.5 -76t50.5 -25 q34 0 63 32v331l127 24v-329q0 -65 38 -65q15 0 31 8z"/>
<glyph glyph-name="nu" horiz-adv-x="485" unicode="ν" d="M21 366l-8 30q32 23 74 40.5t69 17.5t46.5 -23.5t41.5 -88.5q17 -49 41.5 -128t26.5 -85q66 119 66 193q0 37 -22 70q-8 10 -4 22q8 17 24.5 28.5t33.5 11.5q23 0 38 -22.5t15 -53.5q0 -35 -22.5 -89.5t-47 -98.5t-72.5 -122l-47 -80h-37q-83 241 -110 306 q-17 42 -33 58.5t-37 16.5q-18 0 -36 -3z"/>
<glyph glyph-name="xi" horiz-adv-x="425" unicode="ξ" d="M363 396l-46 -69q-38 5 -55 5q-56 0 -81.5 -28t-25.5 -73q0 -88 97 -111q30 -7 52 -14q48 -14 76.5 -41t28.5 -80q-1 -84 -90 -160l-31 16q24 50 24 82q0 60 -65 76q-37 11 -72 18q-143 33 -143 156q0 108 136 171q-48 13 -74.5 44t-26.5 74q0 35 25 70t70 60 q-28 5 -60 24.5t-38 45.5q0 17 16 40t34 33l26 -12q-1 -5 -1 -14q0 -31 22 -53t47 -25q35 22 77.5 38t70.5 16q27 0 27 -15q0 -5 -1 -8q-2 -18 -15.5 -37.5t-27.5 -26.5q-39 -17 -102 -17q-18 0 -28 1q-33 -29 -33 -78q0 -42 26.5 -69.5t81.5 -27.5q44 0 72 3z"/>
<glyph glyph-name="omicron" horiz-adv-x="525" unicode="ο" d="M255 415q-34 0 -58 -43.5t-24 -124.5q0 -95 28 -157.5t74 -62.5q78 0 78 172q0 104 -25.5 160t-72.5 56zM268 454q102 0 165 -66t63 -159q0 -114 -68.5 -177.5t-163.5 -63.5q-111 0 -172.5 67t-61.5 156q0 113 73 178t165 65z"/>
<glyph glyph-name="pi" horiz-adv-x="550" unicode="π" d="M502 472l30 -5q-2 -33 -10 -67.5t-16 -45.5q-12 -5 -51 -5h-22q-5 -67 -5 -135q0 -11 0.5 -33t0.5 -34q1 -75 37 -75q19 0 43 10l12 -27q-18 -27 -51 -47t-63 -20q-86 0 -86 129q0 127 8 234q-62 2 -116 2v-6q0 -99 -12.5 -180t-24.5 -116.5t-21 -44.5q-38 -16 -74 -18 l-9 20q41 63 62.5 168t21.5 179q-78 0 -128 -31l-17 26q13 18 22.5 28.5t32.5 29t55.5 28t73.5 9.5h5q219 -3 251 -3q22 0 32 5t19 25z"/>
<glyph glyph-name="rho" horiz-adv-x="520" unicode="ρ" d="M364 201q0 83 -34.5 140t-84.5 57q-56 0 -56 -107v-10q0 -101 4 -193q41 -47 83 -47q33 0 60.5 39.5t27.5 120.5zM68 -244l-5 13q6 26 6 160q0 42 -1 133.5t-1 128.5q0 138 92 208q69 55 137 55q90 0 142 -60t52 -144q0 -48 -17 -90.5t-43 -72t-59 -51.5t-63.5 -33.5 t-57.5 -14.5q-31 0 -57 18q0 -6 2.5 -68t2.5 -90q0 -26 -2 -40q-9 -16 -53 -33t-75 -19z"/>
<glyph glyph-name="uni03C2" horiz-adv-x="411" unicode="ς" d="M295 -165l-26 19q29 36 29 81q0 23 -21.5 41.5t-64.5 27.5l-64 16q-118 33 -118 178q0 122 110 202q78 54 151 54q45 0 78 -20q22 -15 22 -39q0 -25 -16 -42.5t-32 -17.5q-11 1 -31 18q-52 37 -93 37q-39 0 -59.5 -33t-20.5 -91q0 -68 24.5 -100t75.5 -45q19 -4 48 -13 q52 -14 77.5 -40.5t25.5 -75.5q0 -51 -31.5 -93.5t-63.5 -63.5z"/>
<glyph glyph-name="sigma" horiz-adv-x="528" unicode="σ" d="M270 380q-47 0 -76.5 -43t-29.5 -126q0 -76 27 -129.5t70 -53.5q35 0 61 42.5t26 146.5q0 100 -31 138q-21 25 -47 25zM304 448q22 -1 51 -2t49 -2t35 -1q22 0 34 5t28 23l28 -12q-15 -80 -46 -98h-5q-52 0 -114 12l-2 -2q109 -55 109 -160q0 -104 -63.5 -163.5 t-158.5 -59.5q-104 0 -161.5 67t-57.5 156q0 113 74 175t189 62h11z"/>
<glyph glyph-name="tau" horiz-adv-x="461" unicode="τ" d="M417 470l29 -4q-14 -91 -24 -110q-12 -5 -73 -5q-11 1 -31 1.5t-31 0.5q-5 -65 -5 -140q0 -11 0.5 -34t0.5 -35q1 -44 14 -58.5t34 -14.5t43 10l12 -28q-18 -26 -51.5 -45.5t-66.5 -19.5q-93 0 -93 129q0 138 9 239q-6 0 -17.5 0.5t-16.5 0.5q-81 0 -125 -35l-17 26 q11 21 22.5 35t30.5 30t47.5 24t65.5 8h3q36 -1 94.5 -2t93.5 -1h8q17 0 26 5.5t18 22.5z"/>
<glyph glyph-name="upsilon" horiz-adv-x="479" unicode="υ" d="M287 424v12q4 5 26 11.5t36 6.5q35 0 67 -47.5t32 -132.5q0 -113 -67.5 -199.5t-158.5 -86.5q-63 0 -103 37t-40 111q0 27 0.5 85.5t0.5 85.5q0 65 -42 65q-16 0 -28 -4l-9 31q22 17 62 36t74 19q70 0 70 -111q0 -33 -0.5 -102.5t-0.5 -98.5q0 -38 20 -60.5t49 -22.5 q43 0 64.5 41.5t21.5 138.5q0 135 -74 185z"/>
<glyph glyph-name="phi" horiz-adv-x="610" unicode="φ" d="M390 410q-14 0 -18.5 -12.5t-4.5 -49.5q1 -50 2.5 -154.5t1.5 -152.5q40 4 72.5 52.5t32.5 134.5q0 84 -29.5 133t-56.5 49zM249 466l14 -31q-100 -60 -100 -186q0 -81 29 -133t69 -66q-3 104 -3 164v46q1 100 44.5 147t106.5 47q69 0 120 -59.5t51 -152.5 q0 -104 -61.5 -165.5t-146.5 -80.5q0 -26 1 -90.5t1 -95.5q-5 -19 -40 -36t-67 -18l-8 10q3 42 3 111q0 66 -1 113q-104 5 -167.5 67t-63.5 163q0 49 19.5 90.5t52.5 71t69 49.5t78 35z"/>
<glyph glyph-name="chi" horiz-adv-x="482" unicode="χ" d="M507 -171l7 -29q-51 -44 -118 -44q-34 0 -59 22t-49 85q-11 28 -29.5 85t-30.5 92q-43 -92 -132 -301l-15 -1q-36 16 -43 67q19 35 77.5 139.5t90.5 163.5q-37 116 -63 181q-19 48 -34.5 64.5t-37.5 16.5q-21 0 -46 -10l-10 29q72 65 132 65q34 0 58.5 -28t47.5 -89 q8 -18 21.5 -61t15.5 -47q23 47 92 203l80 22l11 -10q-80 -116 -163 -275q67 -200 93 -256q24 -51 40.5 -69t38.5 -18q12 0 25 3z"/>
<glyph glyph-name="psi" horiz-adv-x="607" unicode="ψ" d="M584 454l16 -30q-39 -29 -50 -94q-24 -128 -37 -178q-23 -88 -91 -135q-33 -20 -59 -24l-2 -231l-12 -6q-13 2 -22 8.5t-17 31t-9 67.5l-2 126q-92 4 -138.5 43.5t-62.5 131.5q-4 26 -8 54t-7 56t-5 39q-6 35 -14.5 47.5t-24.5 12.5q-10 0 -26 -2l-8 30q26 24 58.5 38.5 t58.5 14.5q72 0 81 -109q6 -69 12 -131q6 -82 24.5 -120t61.5 -50l-7 448l67 30l11 -4l-8 -479q43 4 59 32.5t24 88.5q3 25 9.5 84t8.5 79q5 57 22 73q43 43 97 58z"/>
<glyph glyph-name="uni03D1" horiz-adv-x="496" unicode="ϑ" d="M210 657q-63 0 -63 -96q0 -72 36.5 -116t93.5 -44q35 0 66 12q-17 121 -55 182.5t-78 61.5zM18 207l-8 30q57 43 117 43q43 0 61.5 -23.5t24.5 -65.5q1 -3 7 -44q5 -33 9.5 -49.5t17.5 -31.5t35 -15q72 0 74 205v12q0 54 -8 110q-63 -52 -122 -52q-85 0 -133.5 48 t-48.5 125q0 92 62 148t139 56q97 0 159 -89.5t62 -259.5q0 -95 -29 -181.5t-92 -138.5q-56 -46 -111 -46q-112 0 -139 125q-2 7 -3.5 15.5t-3.5 20.5t-4 22q-7 38 -45 38q-7 0 -21 -2z"/>
<glyph glyph-name="uni03D6" horiz-adv-x="668" unicode="ϖ" d="M140 488l-13 31q111 67 227 67q76 0 133.5 -24.5t90.5 -67t48.5 -93t15.5 -108.5q0 -71 -23 -131.5t-57 -97t-71.5 -56.5t-69.5 -20q-38 0 -68 21.5t-45 57.5q-24 -31 -58 -55t-65 -24q-65 0 -109.5 60.5t-44.5 148.5q0 167 176 261l20 -28q-67 -76 -67 -197 q0 -77 26.5 -117.5t59.5 -40.5q22 0 38.5 18.5t16.5 57.5q0 31 -2 63.5t-5.5 68t-4.5 43.5l122 26l12 -9q-1 -14 -4 -53t-5 -74.5t-2 -67.5q0 -36 18 -59.5t48 -23.5q79 0 79 162q0 127 -66 211.5t-197 84.5q-80 0 -154 -35z"/>
<glyph glyph-name="endash" horiz-adv-x="511" unicode="–" d="M461 196h-411v68h411v-68z"/>
<glyph glyph-name="emdash" horiz-adv-x="921" unicode="—" d="M871 196h-821v67h821v-67z"/>
<glyph glyph-name="quoteleft" horiz-adv-x="242" unicode="‘" d="M189 717l14 -34q-87 -40 -87 -97q0 -27 19.5 -46t51.5 -25q5 -1 10 -10.5t5 -25.5q0 -20 -18 -33.5t-39 -13.5h-1q-42 0 -78.5 34.5t-36.5 88.5q0 62 46.5 103t113.5 59z"/>
<glyph glyph-name="quotesinglbase" horiz-adv-x="253" unicode="‚" d="M98 156q45 0 84 -36.5t39 -94.5q0 -67 -49 -109.5t-122 -62.5l-13 35q91 43 91 105q0 29 -20 49t-55 26q-5 1 -10 11.5t-5 26.5q0 21 18.5 35.5t41.5 14.5z"/>
<glyph glyph-name="quotedblleft" horiz-adv-x="445" unicode="“" d="M394 717l14 -34q-88 -41 -88 -95q0 -28 19.5 -47.5t51.5 -25.5q14 -3 14 -36q0 -20 -17.5 -33.5t-39.5 -13.5h-1q-42 0 -78.5 34.5t-36.5 88.5q0 62 47 103t115 59zM191 717l13 -34q-88 -42 -88 -95q0 -28 19.5 -47.5t52.5 -25.5q2 -1 5 -4.5t6 -12t3 -19.5 q0 -20 -18 -33.5t-39 -13.5h-1q-42 0 -78.5 34.5t-36.5 88.5q0 62 47 103t115 59z"/>
<glyph glyph-name="quotedblright" horiz-adv-x="445" unicode="”" d="M298 708q42 0 79 -34.5t37 -88.5q0 -61 -47.5 -102t-115.5 -60l-12 35q86 39 86 95q0 27 -19 46.5t-51 25.5q-2 1 -5 4.5t-6 12t-3 19.5q0 20 17.5 33.5t39.5 13.5zM94 708q42 0 79 -34.5t37 -88.5q0 -61 -47.5 -102t-115.5 -60l-12 35q86 39 86 95q0 27 -19 46.5 t-51 25.5q-2 1 -5 4.5t-6 12t-3 19.5q0 20 17.5 33.5t39.5 13.5z"/>
<glyph glyph-name="dagger" horiz-adv-x="506" unicode="†" d="M273 -98h-52q2 35 2 111q0 166 -38 259q15 29 22 44.5t12.5 38t5.5 44.5q-71 -4 -123 -42q-16 6 -34.5 23t-27.5 36q9 19 27.5 35.5t34.5 22.5q50 -37 123 -41q0 31 -7.5 55.5t-14.5 36.5t-27 42q25 48 71 70q47 -19 70 -70q-2 -3 -9 -14t-8.5 -14t-7 -12t-7 -13 t-5 -12.5t-5 -15t-3.5 -15.5t-2.5 -18t-0.5 -20q73 4 123 41q16 -6 34.5 -22.5t27.5 -35.5q-9 -19 -27.5 -36t-34.5 -23q-52 39 -123 41v-6q0 -12 1.5 -23t8 -26t8.5 -20t13.5 -26.5t12.5 -24.5q-16 -36 -29 -106t-13 -153q0 -76 2 -111z"/>
<glyph glyph-name="daggerdbl" horiz-adv-x="492" unicode="‡" d="M452 128q-10 -20 -27.5 -37t-33.5 -22q-53 40 -123 42q1 -32 8 -57.5t14.5 -39t26.5 -42.5q-23 -50 -71 -68q-22 8 -41 26.5t-30 41.5q2 3 5 8q16 26 23 39t13.5 37.5t7.5 54.5q-72 -2 -123 -42q-38 12 -61 59q22 46 61 58q49 -36 123 -40q-1 95 -49 135q48 46 49 129 q-74 -2 -123 -39q-37 10 -61 56q10 20 27 36.5t34 20.5q46 -34 123 -38q0 10 -1.5 19t-3 15.5t-4.5 15.5t-5 13.5t-7.5 14.5t-8 14l-10 16t-10.5 17q11 21 30.5 40t41.5 26q44 -15 71 -66q-3 -5 -11.5 -19t-11 -18.5t-8 -15t-7.5 -16.5t-5 -16t-4.5 -19.5t-1.5 -20.5 q75 4 123 38q16 -5 34 -21.5t27 -35.5q-9 -19 -27 -35t-34 -21q-51 37 -123 39q1 -84 48 -129q-47 -40 -48 -130l3 -5q66 1 120 40q16 -5 33.5 -21.5t27.5 -36.5z"/>
<glyph glyph-name="ellipsis" horiz-adv-x="983" unicode="…" d="M821 -12q-32 0 -52.5 21t-20.5 55q0 33 20.5 54.5t52.5 21.5t53 -21.5t21 -54.5t-21 -54.5t-53 -21.5zM496 -12q-32 0 -52.5 21t-20.5 55q0 33 20.5 54.5t52.5 21.5t53 -21.5t21 -54.5q0 -34 -21 -55t-53 -21zM164 -12q-32 0 -52.5 21t-20.5 55q0 33 20.5 54.5t52.5 21.5 t53 -21.5t21 -54.5q0 -34 -21 -55t-53 -21z"/>
<glyph glyph-name="perthousand" horiz-adv-x="1088" unicode="‰" d="M899 294q-31 0 -44 -42.5t-13 -91.5q0 -52 13 -94t44 -42q17 0 29 14.5t17.5 37.5t8 43.5t2.5 40.5q0 134 -57 134zM557 294q-31 0 -44 -42t-13 -92q0 -49 13 -92.5t44 -43.5t43.5 43.5t12.5 92.5q0 21 -2 41.5t-7.5 42.5t-17.5 36t-29 14zM899 330q75 0 115 -53.5 t40 -118.5t-39.5 -117.5t-115.5 -52.5q-75 0 -115 53t-40 117q0 65 40 118.5t115 53.5zM557 330q75 0 114.5 -53.5t39.5 -118.5t-39 -117.5t-115 -52.5t-116 53t-40 117q0 65 40 118.5t116 53.5zM199 599q-32 0 -46 -43t-14 -89q0 -50 14 -94t46 -44q29 0 41.5 44.5 t12.5 92.5q0 133 -54 133zM197 635q75 0 115 -53t40 -117q0 -65 -39.5 -118.5t-115.5 -53.5q-75 0 -115.5 53.5t-40.5 118.5q0 64 40.5 117t115.5 53zM594 624l-409 -662l-37 27l408 661z"/>
<glyph glyph-name="guilsinglleft" horiz-adv-x="279" unicode="‹" d="M235 51l-31 -19q-81 108 -159 192q78 84 159 192l31 -19l-83 -173z"/>
<glyph glyph-name="guilsinglright" horiz-adv-x="279" unicode="›" d="M45 396l31 20q62 -82 158 -192q-92 -100 -158 -192l-31 18l83 174z"/>
<glyph glyph-name="fraction" horiz-adv-x="180" unicode="⁄" d="M312 621l-406 -661l-38 28l404 660z"/>
<glyph glyph-name="Euro" d="M445 146l32 -9q-15 -70 -40 -127q-63 -22 -120 -22q-114 0 -174 71.5t-73 181.5h-44v42h40v10q0 26 2 56h-42v42h47q20 121 89 183.5t172 62.5q66 0 120 -21q4 -28 9 -73.5t6 -53.5l-36 -8q-30 115 -105 115q-96 0 -118 -205h198v-42h-202q-1 -8 -1 -28q0 -27 1 -38h202 v-42h-198q9 -107 37.5 -158.5t80.5 -51.5q34 0 61 28t56 87z" unicode="€"/>
<glyph glyph-name="trademark" horiz-adv-x="482" unicode="™" d="M458 477h-90v18q16 1 19.5 5t3.5 21v86h-1l-59 -127h-18l-49 123h-2l-3 -57q-2 -20 -2 -37q1 -7 6 -9.5t20 -4.5v-18h-76v18q19 1 22 14q4 17 6 40l2 39q0 3 0.5 7t0.5 5q0 7 -2.5 10.5t-7 4.5t-16.5 2v20h83l41 -85l42 85h76v-20q-14 -1 -17 -5.5t-3 -20.5l1 -66 q0 -19 3.5 -23.5t19.5 -6.5v-18zM196 586h-18q-7 22 -11 25q-6 6 -24 6h-11v-92q0 -20 4 -24.5t23 -5.5v-18h-98v18q19 1 22.5 5.5t3.5 24.5v92h-9q-20 0 -25 -7q-7 -6 -12 -24h-18q0 11 2 31t2 26h15q2 -5 5 -5q3 -1 9 -1h110q8 0 13 6h16q0 -6 0.5 -25.5t0.5 -31.5z"/>
<glyph glyph-name="uni2190" horiz-adv-x="652" unicode="←" d="M619 226h-475l232 -208l-36 -46l-309 281v1l309 281l36 -47l-232 -207h475v-55z"/>
<glyph glyph-name="uni2192" horiz-adv-x="652" unicode="→" d="M31 281h476l-232 207l37 47l307 -281v-1l-307 -281l-37 46l232 208h-476v55z"/>
<glyph glyph-name="partialdiff" horiz-adv-x="499" unicode="∂" d="M276 360q-48 0 -85 -53q-48 -65 -48 -163q0 -47 19 -82t53 -35q29 0 54 25.5t39 60.5q36 83 47 192q-10 22 -32.5 38.5t-46.5 16.5zM247 411q69 0 115 -51q8 30 8 74v15q0 90 -24 137q-34 67 -117 67q-52 0 -121 -40q-10 0 -24 22t-14 39q0 5 1 7q58 29 126 29 q142 0 220 -135q53 -94 53 -207q0 -140 -49 -237q-73 -143 -209 -143q-81 0 -130 55.5t-49 139.5q0 98 59 161q61 67 155 67z"/>
<glyph glyph-name="product" horiz-adv-x="750" unicode="∏" d="M716 650v-35q-60 -5 -74 -22t-14 -81v-446q0 -64 14.5 -81t73.5 -22v-34h-297v34q54 5 66.5 22t12.5 81v504q0 23 -5.5 28.5t-28.5 5.5h-178q-23 0 -28.5 -6t-5.5 -30v-502q0 -64 12.5 -81t62.5 -22v-34h-293v34q58 5 72.5 22t14.5 81v446q0 64 -14.5 81t-75.5 22v35h685 z"/>
<glyph glyph-name="summation" horiz-adv-x="553" unicode="∑" d="M530 116l-40 -196h-467v29l224 315l-211 357v29h452q0 -7 2 -32.5t5 -64.5t5 -70l-35 -6q-11 37 -36 84q-13 25 -35 35t-69 10h-132l165 -275l-214 -305h220q56 0 80.5 19t51.5 79z"/>
<glyph glyph-name="minus" horiz-adv-x="577" unicode="−" d="M531 221h-484v65h484v-65z"/>
<glyph glyph-name="radical" horiz-adv-x="560" unicode="√" d="M534 912l-164 -950l-234 497l-98 -48l-15 37l172 87l163 -358h2l126 740z"/>
<glyph glyph-name="infinity" horiz-adv-x="757" unicode="∞" d="M552 343q-15 0 -31 -6t-32.5 -19t-26 -21.5t-26 -26t-18.5 -19.5q4 -4 15.5 -16t15 -15t13 -12.5t13 -12.5t12 -10t13 -9.5t12.5 -7t14 -6t13.5 -3.5t15.5 -3q37 0 63 26.5t26 65.5q0 45 -26 70t-66 25zM204 156q25 0 52.5 16.5t43 31.5t39.5 43q-53 59 -78 75 q-32 21 -63 21q-38 0 -61.5 -28.5t-23.5 -66.5q1 -40 27.5 -66t63.5 -26zM708 248q0 -65 -45 -106.5t-108 -41.5q-82 0 -176 107q-26 -27 -39 -39.5t-38.5 -31.5t-51.5 -27.5t-56 -8.5q-61 0 -103 42.5t-42 105.5q0 64 43 107.5t107 43.5q36 0 70.5 -17t55 -35.5t55.5 -54.5 q37 37 57 54.5t56 35t73 17.5q61 0 101.5 -43.5t40.5 -107.5z"/>
<glyph glyph-name="approxequal" horiz-adv-x="613" unicode="≈" d="M529 228l33 -43q-21 -32 -57.5 -53t-75.5 -21q-56 0 -134 33q-62 26 -111 26h-5q-54 0 -94 -55l-36 39q54 76 138 77h5q62 0 124 -28q72 -30 118 -30q59 0 95 55zM530 392l33 -42q-21 -32 -58 -53.5t-76 -21.5q-52 0 -137 35q-61 25 -108 25q-61 0 -98 -60l-36 41 q52 77 137 79h5q60 0 125 -27q72 -30 117 -30q57 0 96 54z"/>
<glyph glyph-name="notequal" horiz-adv-x="575" unicode="≠" d="M526 131h-275l-80 -140l-47 31l63 109h-138v65h171l65 116h-236v65h269l81 141l49 -30l-65 -111h143v-65h-177l-64 -116h241v-65z"/>
<glyph glyph-name="lessequal" horiz-adv-x="587" unicode="≤" d="M531 0h-475v65h475v-65zM531 116l-475 209v59l475 208v-70l-399 -167l399 -168v-71z"/>
<glyph glyph-name="greaterequal" horiz-adv-x="587" unicode="≥" d="M531 0h-475v65h475v-65zM531 325l-475 -208v70l399 168l-399 168v70l475 -208v-60z"/>
<glyph glyph-name="lozenge" horiz-adv-x="568" unicode="◊" d="M428 337l-142 320h-4l-143 -320l144 -322h2zM501 337l-182 -390h-71l-181 390l184 391h68z"/>
</font>
</defs>
</svg>
